<?xml version="1.0" encoding="UTF-8"?>
<!-- Do not edit this file with editors other than draw.io -->
<!DOCTYPE svg PUBLIC "-//W3C//DTD SVG 1.1//EN" "http://www.w3.org/Graphics/SVG/1.1/DTD/svg11.dtd">
<svg xmlns="http://www.w3.org/2000/svg" style="background: #ffffff; background-color: light-dark(#ffffff, var(--ge-dark-color, #121212)); color-scheme: light dark;" xmlns:xlink="http://www.w3.org/1999/xlink" version="1.1" width="943px" height="781px" viewBox="0 0 943 781" content="&lt;mxfile host=&quot;app.diagrams.net&quot; agent=&quot;Mozilla/5.0 (Macintosh; Intel Mac OS X 10_15_7) AppleWebKit/537.36 (KHTML, like Gecko) Chrome/141.0.0.0 Safari/537.36&quot; scale=&quot;1&quot; border=&quot;0&quot; version=&quot;28.2.7&quot;&gt;&#10;  &lt;diagram name=&quot;Page-1&quot; id=&quot;pVIxcW2xZ3lmXTLjTOgz&quot;&gt;&#10;    &lt;mxGraphModel dx=&quot;1282&quot; dy=&quot;985&quot; grid=&quot;1&quot; gridSize=&quot;10&quot; guides=&quot;1&quot; tooltips=&quot;1&quot; connect=&quot;1&quot; arrows=&quot;1&quot; fold=&quot;1&quot; page=&quot;1&quot; pageScale=&quot;1&quot; pageWidth=&quot;1169&quot; pageHeight=&quot;827&quot; math=&quot;0&quot; shadow=&quot;0&quot;&gt;&#10;      &lt;root&gt;&#10;        &lt;mxCell id=&quot;0&quot; /&gt;&#10;        &lt;mxCell id=&quot;1&quot; parent=&quot;0&quot; /&gt;&#10;        &lt;mxCell id=&quot;H2fNjRapKjcZLar6XIbd-1&quot; value=&quot;AWS Cloud&quot; style=&quot;points=[[0,0],[0.25,0],[0.5,0],[0.75,0],[1,0],[1,0.25],[1,0.5],[1,0.75],[1,1],[0.75,1],[0.5,1],[0.25,1],[0,1],[0,0.75],[0,0.5],[0,0.25]];outlineConnect=0;gradientColor=none;whiteSpace=wrap;fontSize=18;fontStyle=0;container=0;pointerEvents=0;collapsible=0;recursiveResize=0;shape=mxgraph.aws4.group;grIcon=mxgraph.aws4.group_aws_cloud_alt;strokeColor=#232F3E;fillColor=none;verticalAlign=top;align=left;spacingLeft=30;fontColor=#232F3E;dashed=0;convertToSvg=1;fillStyle=solid;&quot; parent=&quot;1&quot; vertex=&quot;1&quot;&gt;&#10;          &lt;mxGeometry x=&quot;310&quot; y=&quot;30&quot; width=&quot;740&quot; height=&quot;740&quot; as=&quot;geometry&quot; /&gt;&#10;        &lt;/mxCell&gt;&#10;        &lt;mxCell id=&quot;HFJM1gJeS1aWMsCjSJut-6&quot; value=&quot;&quot; style=&quot;edgeStyle=orthogonalEdgeStyle;endArrow=block;elbow=vertical;startArrow=none;startFill=0;endFill=1;strokeColor=#545B64;rounded=0;exitX=1;exitY=0.5;exitDx=0;exitDy=0;exitPerimeter=0;strokeWidth=1;endSize=9;startSize=9;entryX=0;entryY=0.5;entryDx=0;entryDy=0;entryPerimeter=0;convertToSvg=1;&quot; parent=&quot;1&quot; source=&quot;H2fNjRapKjcZLar6XIbd-8&quot; target=&quot;H2fNjRapKjcZLar6XIbd-15&quot; edge=&quot;1&quot;&gt;&#10;          &lt;mxGeometry width=&quot;100&quot; relative=&quot;1&quot; as=&quot;geometry&quot;&gt;&#10;            &lt;mxPoint x=&quot;903&quot; y=&quot;630&quot; as=&quot;sourcePoint&quot; /&gt;&#10;            &lt;mxPoint x=&quot;741&quot; y=&quot;630&quot; as=&quot;targetPoint&quot; /&gt;&#10;            &lt;Array as=&quot;points&quot;&gt;&#10;              &lt;mxPoint x=&quot;581&quot; y=&quot;639&quot; /&gt;&#10;              &lt;mxPoint x=&quot;581&quot; y=&quot;639&quot; /&gt;&#10;            &lt;/Array&gt;&#10;          &lt;/mxGeometry&gt;&#10;        &lt;/mxCell&gt;&#10;        &lt;mxCell id=&quot;H2fNjRapKjcZLar6XIbd-16&quot; value=&quot;&quot; style=&quot;edgeStyle=orthogonalEdgeStyle;endArrow=block;elbow=vertical;startArrow=none;startFill=0;endFill=1;strokeColor=#545B64;rounded=0;exitX=0;exitY=0.5;exitDx=0;exitDy=0;exitPerimeter=0;strokeWidth=1;endSize=9;startSize=9;convertToSvg=1;&quot; parent=&quot;1&quot; source=&quot;H2fNjRapKjcZLar6XIbd-11&quot; edge=&quot;1&quot;&gt;&#10;          &lt;mxGeometry width=&quot;100&quot; relative=&quot;1&quot; as=&quot;geometry&quot;&gt;&#10;            &lt;mxPoint x=&quot;341&quot; y=&quot;540&quot; as=&quot;sourcePoint&quot; /&gt;&#10;            &lt;mxPoint x=&quot;719&quot; y=&quot;639&quot; as=&quot;targetPoint&quot; /&gt;&#10;            &lt;Array as=&quot;points&quot; /&gt;&#10;          &lt;/mxGeometry&gt;&#10;        &lt;/mxCell&gt;&#10;        &lt;mxCell id=&quot;HFJM1gJeS1aWMsCjSJut-3&quot; value=&quot;&quot; style=&quot;rounded=0;whiteSpace=wrap;strokeColor=none;convertToSvg=1;fillStyle=solid;fillColor=#FFFFFF;&quot; parent=&quot;1&quot; vertex=&quot;1&quot;&gt;&#10;          &lt;mxGeometry x=&quot;771&quot; y=&quot;620&quot; width=&quot;60&quot; height=&quot;40&quot; as=&quot;geometry&quot; /&gt;&#10;        &lt;/mxCell&gt;&#10;        &lt;mxCell id=&quot;H2fNjRapKjcZLar6XIbd-18&quot; value=&quot;Alert&quot; style=&quot;sketch=0;outlineConnect=0;fontColor=#232F3E;gradientColor=none;fillColor=#E7157B;strokeColor=none;dashed=0;verticalLabelPosition=bottom;verticalAlign=top;align=center;fontSize=18;fontStyle=0;aspect=fixed;pointerEvents=1;shape=mxgraph.aws4.alarm;convertToSvg=1;&quot; parent=&quot;1&quot; vertex=&quot;1&quot;&gt;&#10;          &lt;mxGeometry x=&quot;781&quot; y=&quot;619&quot; width=&quot;40&quot; height=&quot;40&quot; as=&quot;geometry&quot; /&gt;&#10;        &lt;/mxCell&gt;&#10;        &lt;mxCell id=&quot;H2fNjRapKjcZLar6XIbd-2&quot; value=&quot;Devices&quot; style=&quot;sketch=0;outlineConnect=0;gradientColor=none;fontColor=#545B64;strokeColor=none;fillColor=#879196;dashed=0;verticalLabelPosition=bottom;verticalAlign=top;align=center;fontSize=18;fontStyle=0;aspect=fixed;shape=mxgraph.aws4.illustration_devices;pointerEvents=1;labelPosition=center;convertToSvg=1;&quot; parent=&quot;1&quot; vertex=&quot;1&quot;&gt;&#10;          &lt;mxGeometry x=&quot;140&quot; y=&quot;289.8&quot; width=&quot;80&quot; height=&quot;58.4&quot; as=&quot;geometry&quot; /&gt;&#10;        &lt;/mxCell&gt;&#10;        &lt;mxCell id=&quot;H2fNjRapKjcZLar6XIbd-3&quot; value=&quot;WAF&quot; style=&quot;sketch=0;points=[[0,0,0],[0.25,0,0],[0.5,0,0],[0.75,0,0],[1,0,0],[0,1,0],[0.25,1,0],[0.5,1,0],[0.75,1,0],[1,1,0],[0,0.25,0],[0,0.5,0],[0,0.75,0],[1,0.25,0],[1,0.5,0],[1,0.75,0]];outlineConnect=0;fontColor=#232F3E;fillColor=#DD344C;strokeColor=#ffffff;dashed=0;verticalLabelPosition=middle;verticalAlign=middle;align=left;fontSize=18;fontStyle=0;aspect=fixed;shape=mxgraph.aws4.resourceIcon;resIcon=mxgraph.aws4.waf;labelPosition=right;spacingLeft=5;convertToSvg=1;&quot; parent=&quot;1&quot; vertex=&quot;1&quot;&gt;&#10;          &lt;mxGeometry x=&quot;401&quot; y=&quot;440&quot; width=&quot;78&quot; height=&quot;78&quot; as=&quot;geometry&quot; /&gt;&#10;        &lt;/mxCell&gt;&#10;        &lt;mxCell id=&quot;H2fNjRapKjcZLar6XIbd-4&quot; value=&quot;IAM&quot; style=&quot;sketch=0;points=[[0,0,0],[0.25,0,0],[0.5,0,0],[0.75,0,0],[1,0,0],[0,1,0],[0.25,1,0],[0.5,1,0],[0.75,1,0],[1,1,0],[0,0.25,0],[0,0.5,0],[0,0.75,0],[1,0.25,0],[1,0.5,0],[1,0.75,0]];outlineConnect=0;fontColor=#232F3E;fillColor=#DD344C;strokeColor=#ffffff;dashed=0;verticalLabelPosition=top;verticalAlign=bottom;align=center;fontSize=18;fontStyle=0;aspect=fixed;shape=mxgraph.aws4.resourceIcon;resIcon=mxgraph.aws4.identity_and_access_management;labelPosition=center;convertToSvg=1;&quot; parent=&quot;1&quot; vertex=&quot;1&quot;&gt;&#10;          &lt;mxGeometry x=&quot;883&quot; y=&quot;120&quot; width=&quot;78&quot; height=&quot;78&quot; as=&quot;geometry&quot; /&gt;&#10;        &lt;/mxCell&gt;&#10;        &lt;mxCell id=&quot;H2fNjRapKjcZLar6XIbd-6&quot; value=&quot;S3 Standard&quot; style=&quot;sketch=0;points=[[0,0,0],[0.25,0,0],[0.5,0,0],[0.75,0,0],[1,0,0],[0,1,0],[0.25,1,0],[0.5,1,0],[0.75,1,0],[1,1,0],[0,0.25,0],[0,0.5,0],[0,0.75,0],[1,0.25,0],[1,0.5,0],[1,0.75,0]];outlineConnect=0;fontColor=#232F3E;fillColor=#7AA116;strokeColor=#ffffff;dashed=0;verticalLabelPosition=top;verticalAlign=bottom;align=center;fontSize=18;fontStyle=0;aspect=fixed;shape=mxgraph.aws4.resourceIcon;resIcon=mxgraph.aws4.s3;labelPosition=center;convertToSvg=1;&quot; parent=&quot;1&quot; vertex=&quot;1&quot;&gt;&#10;          &lt;mxGeometry x=&quot;762&quot; y=&quot;280&quot; width=&quot;78&quot; height=&quot;78&quot; as=&quot;geometry&quot; /&gt;&#10;        &lt;/mxCell&gt;&#10;        &lt;mxCell id=&quot;H2fNjRapKjcZLar6XIbd-7&quot; value=&quot;Lambda&quot; style=&quot;sketch=0;points=[[0,0,0],[0.25,0,0],[0.5,0,0],[0.75,0,0],[1,0,0],[0,1,0],[0.25,1,0],[0.5,1,0],[0.75,1,0],[1,1,0],[0,0.25,0],[0,0.5,0],[0,0.75,0],[1,0.25,0],[1,0.5,0],[1,0.75,0]];outlineConnect=0;fontColor=#232F3E;fillColor=#ED7100;strokeColor=#ffffff;dashed=0;verticalLabelPosition=middle;verticalAlign=middle;align=left;fontSize=18;fontStyle=0;aspect=fixed;shape=mxgraph.aws4.resourceIcon;resIcon=mxgraph.aws4.lambda;labelPosition=right;spacingLeft=5;convertToSvg=1;&quot; parent=&quot;1&quot; vertex=&quot;1&quot;&gt;&#10;          &lt;mxGeometry x=&quot;640&quot; y=&quot;440&quot; width=&quot;79&quot; height=&quot;79&quot; as=&quot;geometry&quot; /&gt;&#10;        &lt;/mxCell&gt;&#10;        &lt;mxCell id=&quot;H2fNjRapKjcZLar6XIbd-8&quot; value=&quot;CloudWatch&quot; style=&quot;sketch=0;points=[[0,0,0],[0.25,0,0],[0.5,0,0],[0.75,0,0],[1,0,0],[0,1,0],[0.25,1,0],[0.5,1,0],[0.75,1,0],[1,1,0],[0,0.25,0],[0,0.5,0],[0,0.75,0],[1,0.25,0],[1,0.5,0],[1,0.75,0]];points=[[0,0,0],[0.25,0,0],[0.5,0,0],[0.75,0,0],[1,0,0],[0,1,0],[0.25,1,0],[0.5,1,0],[0.75,1,0],[1,1,0],[0,0.25,0],[0,0.5,0],[0,0.75,0],[1,0.25,0],[1,0.5,0],[1,0.75,0]];outlineConnect=0;fontColor=#232F3E;fillColor=#E7157B;strokeColor=#ffffff;dashed=0;verticalLabelPosition=bottom;verticalAlign=top;align=center;fontSize=18;fontStyle=0;aspect=fixed;shape=mxgraph.aws4.resourceIcon;resIcon=mxgraph.aws4.cloudwatch_2;convertToSvg=1;&quot; parent=&quot;1&quot; vertex=&quot;1&quot;&gt;&#10;          &lt;mxGeometry x=&quot;401&quot; y=&quot;600&quot; width=&quot;78&quot; height=&quot;78&quot; as=&quot;geometry&quot; /&gt;&#10;        &lt;/mxCell&gt;&#10;        &lt;mxCell id=&quot;H2fNjRapKjcZLar6XIbd-11&quot; value=&quot;Budgets&quot; style=&quot;sketch=0;points=[[0,0,0],[0.25,0,0],[0.5,0,0],[0.75,0,0],[1,0,0],[0,1,0],[0.25,1,0],[0.5,1,0],[0.75,1,0],[1,1,0],[0,0.25,0],[0,0.5,0],[0,0.75,0],[1,0.25,0],[1,0.5,0],[1,0.75,0]];outlineConnect=0;fontColor=#232F3E;fillColor=#7AA116;strokeColor=#ffffff;dashed=0;verticalLabelPosition=bottom;verticalAlign=top;align=center;fontSize=18;fontStyle=0;aspect=fixed;shape=mxgraph.aws4.resourceIcon;resIcon=mxgraph.aws4.budgets_2;convertToSvg=1;&quot; parent=&quot;1&quot; vertex=&quot;1&quot;&gt;&#10;          &lt;mxGeometry x=&quot;881&quot; y=&quot;599&quot; width=&quot;80&quot; height=&quot;80&quot; as=&quot;geometry&quot; /&gt;&#10;        &lt;/mxCell&gt;&#10;        &lt;mxCell id=&quot;H2fNjRapKjcZLar6XIbd-12&quot; value=&quot;Route 53&quot; style=&quot;sketch=0;points=[[0,0,0],[0.25,0,0],[0.5,0,0],[0.75,0,0],[1,0,0],[0,1,0],[0.25,1,0],[0.5,1,0],[0.75,1,0],[1,1,0],[0,0.25,0],[0,0.5,0],[0,0.75,0],[1,0.25,0],[1,0.5,0],[1,0.75,0]];outlineConnect=0;fontColor=#232F3E;fillColor=#8C4FFF;strokeColor=#ffffff;dashed=0;verticalLabelPosition=top;verticalAlign=bottom;align=center;fontSize=18;fontStyle=0;aspect=fixed;shape=mxgraph.aws4.resourceIcon;resIcon=mxgraph.aws4.route_53;convertToSvg=1;labelPosition=center;&quot; parent=&quot;1&quot; vertex=&quot;1&quot;&gt;&#10;          &lt;mxGeometry x=&quot;401&quot; y=&quot;120&quot; width=&quot;78&quot; height=&quot;78&quot; as=&quot;geometry&quot; /&gt;&#10;        &lt;/mxCell&gt;&#10;        &lt;mxCell id=&quot;H2fNjRapKjcZLar6XIbd-13&quot; value=&quot;CloudFront&quot; style=&quot;sketch=0;points=[[0,0,0],[0.25,0,0],[0.5,0,0],[0.75,0,0],[1,0,0],[0,1,0],[0.25,1,0],[0.5,1,0],[0.75,1,0],[1,1,0],[0,0.25,0],[0,0.5,0],[0,0.75,0],[1,0.25,0],[1,0.5,0],[1,0.75,0]];outlineConnect=0;fontColor=#232F3E;fillColor=#8C4FFF;strokeColor=#ffffff;dashed=0;verticalLabelPosition=top;verticalAlign=bottom;align=right;fontSize=18;fontStyle=0;aspect=fixed;shape=mxgraph.aws4.resourceIcon;resIcon=mxgraph.aws4.cloudfront;labelPosition=left;convertToSvg=1;&quot; parent=&quot;1&quot; vertex=&quot;1&quot;&gt;&#10;          &lt;mxGeometry x=&quot;521&quot; y=&quot;280&quot; width=&quot;78&quot; height=&quot;78&quot; as=&quot;geometry&quot; /&gt;&#10;        &lt;/mxCell&gt;&#10;        &lt;mxCell id=&quot;H2fNjRapKjcZLar6XIbd-15&quot; value=&quot;SNS&quot; style=&quot;sketch=0;points=[[0,0,0],[0.25,0,0],[0.5,0,0],[0.75,0,0],[1,0,0],[0,1,0],[0.25,1,0],[0.5,1,0],[0.75,1,0],[1,1,0],[0,0.25,0],[0,0.5,0],[0,0.75,0],[1,0.25,0],[1,0.5,0],[1,0.75,0]];outlineConnect=0;fontColor=#232F3E;fillColor=#E7157B;strokeColor=#ffffff;dashed=0;verticalLabelPosition=bottom;verticalAlign=top;align=center;fontSize=17;fontStyle=0;aspect=fixed;shape=mxgraph.aws4.resourceIcon;resIcon=mxgraph.aws4.sns;convertToSvg=1;&quot; parent=&quot;1&quot; vertex=&quot;1&quot;&gt;&#10;          &lt;mxGeometry x=&quot;641&quot; y=&quot;600&quot; width=&quot;78&quot; height=&quot;78&quot; as=&quot;geometry&quot; /&gt;&#10;        &lt;/mxCell&gt;&#10;        &lt;mxCell id=&quot;H2fNjRapKjcZLar6XIbd-19&quot; value=&quot;Email&quot; style=&quot;sketch=0;outlineConnect=0;fontColor=#232F3E;gradientColor=none;fillColor=#232F3D;strokeColor=none;dashed=0;verticalLabelPosition=bottom;verticalAlign=top;align=center;fontSize=18;fontStyle=0;aspect=fixed;pointerEvents=1;shape=mxgraph.aws4.email_2;convertToSvg=1;&quot; parent=&quot;1&quot; vertex=&quot;1&quot;&gt;&#10;          &lt;mxGeometry x=&quot;881&quot; y=&quot;454.5&quot; width=&quot;78&quot; height=&quot;49&quot; as=&quot;geometry&quot; /&gt;&#10;        &lt;/mxCell&gt;&#10;        &lt;mxCell id=&quot;HFJM1gJeS1aWMsCjSJut-4&quot; value=&quot;&quot; style=&quot;rounded=0;whiteSpace=wrap;strokeColor=none;convertToSvg=1;fillStyle=solid;fillColor=#FFFFFF;&quot; parent=&quot;1&quot; vertex=&quot;1&quot;&gt;&#10;          &lt;mxGeometry x=&quot;530&quot; y=&quot;619&quot; width=&quot;60&quot; height=&quot;40&quot; as=&quot;geometry&quot; /&gt;&#10;        &lt;/mxCell&gt;&#10;        &lt;mxCell id=&quot;HFJM1gJeS1aWMsCjSJut-5&quot; value=&quot;Alarm&quot; style=&quot;sketch=0;outlineConnect=0;fontColor=#232F3E;gradientColor=none;fillColor=#E7157B;strokeColor=none;dashed=0;verticalLabelPosition=bottom;verticalAlign=top;align=center;fontSize=18;fontStyle=0;aspect=fixed;pointerEvents=1;shape=mxgraph.aws4.alarm;convertToSvg=1;&quot; parent=&quot;1&quot; vertex=&quot;1&quot;&gt;&#10;          &lt;mxGeometry x=&quot;540&quot; y=&quot;620&quot; width=&quot;40&quot; height=&quot;40&quot; as=&quot;geometry&quot; /&gt;&#10;        &lt;/mxCell&gt;&#10;        &lt;mxCell id=&quot;HFJM1gJeS1aWMsCjSJut-8&quot; value=&quot;&quot; style=&quot;edgeStyle=orthogonalEdgeStyle;endArrow=block;elbow=vertical;startArrow=block;startFill=1;endFill=1;strokeColor=#545B64;rounded=0;strokeWidth=1;endSize=9;startSize=9;entryX=0;entryY=0.5;entryDx=0;entryDy=0;entryPerimeter=0;convertToSvg=1;&quot; parent=&quot;1&quot; source=&quot;H2fNjRapKjcZLar6XIbd-2&quot; target=&quot;H2fNjRapKjcZLar6XIbd-13&quot; edge=&quot;1&quot;&gt;&#10;          &lt;mxGeometry width=&quot;100&quot; relative=&quot;1&quot; as=&quot;geometry&quot;&gt;&#10;            &lt;mxPoint x=&quot;191&quot; y=&quot;533&quot; as=&quot;sourcePoint&quot; /&gt;&#10;            &lt;mxPoint x=&quot;192&quot; y=&quot;400&quot; as=&quot;targetPoint&quot; /&gt;&#10;            &lt;Array as=&quot;points&quot; /&gt;&#10;          &lt;/mxGeometry&gt;&#10;        &lt;/mxCell&gt;&#10;        &lt;mxCell id=&quot;HFJM1gJeS1aWMsCjSJut-9&quot; value=&quot;&quot; style=&quot;edgeStyle=orthogonalEdgeStyle;endArrow=block;elbow=vertical;startArrow=block;startFill=1;endFill=1;strokeColor=#545B64;rounded=0;strokeWidth=1;endSize=9;startSize=9;entryX=0;entryY=0.5;entryDx=0;entryDy=0;entryPerimeter=0;exitX=1;exitY=0.5;exitDx=0;exitDy=0;exitPerimeter=0;convertToSvg=1;&quot; parent=&quot;1&quot; source=&quot;H2fNjRapKjcZLar6XIbd-13&quot; target=&quot;H2fNjRapKjcZLar6XIbd-6&quot; edge=&quot;1&quot;&gt;&#10;          &lt;mxGeometry width=&quot;100&quot; relative=&quot;1&quot; as=&quot;geometry&quot;&gt;&#10;            &lt;mxPoint x=&quot;601&quot; y=&quot;319&quot; as=&quot;sourcePoint&quot; /&gt;&#10;            &lt;mxPoint x=&quot;621&quot; y=&quot;401&quot; as=&quot;targetPoint&quot; /&gt;&#10;            &lt;Array as=&quot;points&quot; /&gt;&#10;          &lt;/mxGeometry&gt;&#10;        &lt;/mxCell&gt;&#10;        &lt;mxCell id=&quot;HFJM1gJeS1aWMsCjSJut-10&quot; value=&quot;&quot; style=&quot;endArrow=block;elbow=vertical;startArrow=block;startFill=1;endFill=1;strokeColor=#545B64;rounded=0;strokeWidth=1;endSize=9;startSize=9;entryX=0.25;entryY=1;entryDx=0;entryDy=0;entryPerimeter=0;exitX=0.5;exitY=0;exitDx=0;exitDy=0;exitPerimeter=0;convertToSvg=1;&quot; parent=&quot;1&quot; source=&quot;H2fNjRapKjcZLar6XIbd-3&quot; target=&quot;H2fNjRapKjcZLar6XIbd-13&quot; edge=&quot;1&quot;&gt;&#10;          &lt;mxGeometry width=&quot;100&quot; relative=&quot;1&quot; as=&quot;geometry&quot;&gt;&#10;            &lt;mxPoint x=&quot;671&quot; y=&quot;280&quot; as=&quot;sourcePoint&quot; /&gt;&#10;            &lt;mxPoint x=&quot;863&quot; y=&quot;280&quot; as=&quot;targetPoint&quot; /&gt;&#10;          &lt;/mxGeometry&gt;&#10;        &lt;/mxCell&gt;&#10;        &lt;mxCell id=&quot;HFJM1gJeS1aWMsCjSJut-12&quot; value=&quot;&quot; style=&quot;endArrow=block;elbow=vertical;startArrow=none;startFill=0;endFill=1;strokeColor=#545B64;rounded=0;strokeWidth=1;endSize=9;startSize=9;entryX=0.5;entryY=0;entryDx=0;entryDy=0;entryPerimeter=0;exitX=0.5;exitY=1;exitDx=0;exitDy=0;exitPerimeter=0;convertToSvg=1;&quot; parent=&quot;1&quot; source=&quot;H2fNjRapKjcZLar6XIbd-3&quot; target=&quot;H2fNjRapKjcZLar6XIbd-8&quot; edge=&quot;1&quot;&gt;&#10;          &lt;mxGeometry width=&quot;100&quot; relative=&quot;1&quot; as=&quot;geometry&quot;&gt;&#10;            &lt;mxPoint x=&quot;471&quot; y=&quot;512&quot; as=&quot;sourcePoint&quot; /&gt;&#10;            &lt;mxPoint x=&quot;572&quot; y=&quot;390&quot; as=&quot;targetPoint&quot; /&gt;&#10;          &lt;/mxGeometry&gt;&#10;        &lt;/mxCell&gt;&#10;        &lt;mxCell id=&quot;HFJM1gJeS1aWMsCjSJut-13&quot; value=&quot;&quot; style=&quot;endArrow=block;elbow=vertical;startArrow=none;startFill=0;endFill=1;strokeColor=#545B64;rounded=0;strokeWidth=1;endSize=9;startSize=9;entryX=0.5;entryY=1;entryDx=0;entryDy=0;entryPerimeter=0;exitX=0.5;exitY=0;exitDx=0;exitDy=0;exitPerimeter=0;convertToSvg=1;&quot; parent=&quot;1&quot; source=&quot;H2fNjRapKjcZLar6XIbd-15&quot; target=&quot;H2fNjRapKjcZLar6XIbd-7&quot; edge=&quot;1&quot;&gt;&#10;          &lt;mxGeometry width=&quot;100&quot; relative=&quot;1&quot; as=&quot;geometry&quot;&gt;&#10;            &lt;mxPoint x=&quot;241&quot; y=&quot;810&quot; as=&quot;sourcePoint&quot; /&gt;&#10;            &lt;mxPoint x=&quot;241&quot; y=&quot;932&quot; as=&quot;targetPoint&quot; /&gt;&#10;          &lt;/mxGeometry&gt;&#10;        &lt;/mxCell&gt;&#10;        &lt;mxCell id=&quot;HFJM1gJeS1aWMsCjSJut-15&quot; value=&quot;&quot; style=&quot;endArrow=block;elbow=vertical;startArrow=none;startFill=0;endFill=1;strokeColor=#545B64;rounded=0;strokeWidth=1;endSize=9;startSize=9;exitX=1;exitY=0;exitDx=0;exitDy=0;exitPerimeter=0;convertToSvg=1;&quot; parent=&quot;1&quot; source=&quot;H2fNjRapKjcZLar6XIbd-15&quot; target=&quot;H2fNjRapKjcZLar6XIbd-19&quot; edge=&quot;1&quot;&gt;&#10;          &lt;mxGeometry width=&quot;100&quot; relative=&quot;1&quot; as=&quot;geometry&quot;&gt;&#10;            &lt;mxPoint x=&quot;430&quot; y=&quot;580&quot; as=&quot;sourcePoint&quot; /&gt;&#10;            &lt;mxPoint x=&quot;430&quot; y=&quot;662&quot; as=&quot;targetPoint&quot; /&gt;&#10;          &lt;/mxGeometry&gt;&#10;        &lt;/mxCell&gt;&#10;        &lt;mxCell id=&quot;HFJM1gJeS1aWMsCjSJut-16&quot; value=&quot;&quot; style=&quot;endArrow=block;elbow=vertical;startArrow=block;startFill=1;endFill=1;strokeColor=#545B64;rounded=0;strokeWidth=1;endSize=9;startSize=9;entryX=0.5;entryY=1;entryDx=0;entryDy=0;entryPerimeter=0;exitX=0.75;exitY=0;exitDx=0;exitDy=0;exitPerimeter=0;convertToSvg=1;&quot; parent=&quot;1&quot; source=&quot;H2fNjRapKjcZLar6XIbd-13&quot; target=&quot;H2fNjRapKjcZLar6XIbd-5&quot; edge=&quot;1&quot;&gt;&#10;          &lt;mxGeometry width=&quot;100&quot; relative=&quot;1&quot; as=&quot;geometry&quot;&gt;&#10;            &lt;mxPoint x=&quot;520&quot; y=&quot;452&quot; as=&quot;sourcePoint&quot; /&gt;&#10;            &lt;mxPoint x=&quot;621&quot; y=&quot;370&quot; as=&quot;targetPoint&quot; /&gt;&#10;          &lt;/mxGeometry&gt;&#10;        &lt;/mxCell&gt;&#10;        &lt;mxCell id=&quot;HFJM1gJeS1aWMsCjSJut-18&quot; value=&quot;Author: M.Glavitsch&amp;#xa;Last update: Oct 23, 2025&quot; style=&quot;text;align=right;verticalAlign=middle;rounded=0;strokeColor=none;spacingLeft=4;spacingBottom=4;spacingRight=4;spacingTop=4;convertToSvg=1;&quot; parent=&quot;1&quot; vertex=&quot;1&quot;&gt;&#10;          &lt;mxGeometry x=&quot;890&quot; y=&quot;770&quot; width=&quot;160&quot; height=&quot;40&quot; as=&quot;geometry&quot; /&gt;&#10;        &lt;/mxCell&gt;&#10;        &lt;mxCell id=&quot;HFJM1gJeS1aWMsCjSJut-17&quot; value=&quot;IAM Roles&amp;#xa;Permission Policies&quot; style=&quot;text;align=left;verticalAlign=middle;rounded=0;fontSize=16;convertToSvg=1;&quot; parent=&quot;1&quot; vertex=&quot;1&quot;&gt;&#10;          &lt;mxGeometry x=&quot;883&quot; y=&quot;200&quot; width=&quot;200&quot; height=&quot;50&quot; as=&quot;geometry&quot; /&gt;&#10;        &lt;/mxCell&gt;&#10;        &lt;mxCell id=&quot;HFJM1gJeS1aWMsCjSJut-14&quot; value=&quot;controls&amp;#xa;distribution&quot; style=&quot;endArrow=block;elbow=vertical;startArrow=none;startFill=0;endFill=1;strokeColor=#545B64;rounded=0;strokeWidth=1;endSize=9;startSize=9;entryX=0.75;entryY=1;entryDx=0;entryDy=0;entryPerimeter=0;exitX=0.5;exitY=0;exitDx=0;exitDy=0;exitPerimeter=0;fontSize=16;convertToSvg=1;labelBackgroundColor=#FFFFFF;&quot; parent=&quot;1&quot; source=&quot;H2fNjRapKjcZLar6XIbd-7&quot; target=&quot;H2fNjRapKjcZLar6XIbd-13&quot; edge=&quot;1&quot;&gt;&#10;          &lt;mxGeometry x=&quot;-0.0058&quot; width=&quot;100&quot; relative=&quot;1&quot; as=&quot;geometry&quot;&gt;&#10;            &lt;mxPoint x=&quot;741&quot; y=&quot;722&quot; as=&quot;sourcePoint&quot; /&gt;&#10;            &lt;mxPoint x=&quot;741&quot; y=&quot;600&quot; as=&quot;targetPoint&quot; /&gt;&#10;            &lt;mxPoint as=&quot;offset&quot; /&gt;&#10;          &lt;/mxGeometry&gt;&#10;        &lt;/mxCell&gt;&#10;        &lt;mxCell id=&quot;H2fNjRapKjcZLar6XIbd-5&quot; value=&quot;Certificate&amp;#xa;Manager&quot; style=&quot;sketch=0;points=[[0,0,0],[0.25,0,0],[0.5,0,0],[0.75,0,0],[1,0,0],[0,1,0],[0.25,1,0],[0.5,1,0],[0.75,1,0],[1,1,0],[0,0.25,0],[0,0.5,0],[0,0.75,0],[1,0.25,0],[1,0.5,0],[1,0.75,0]];outlineConnect=0;fontColor=#232F3E;fillColor=#DD344C;strokeColor=#ffffff;dashed=0;verticalLabelPosition=top;verticalAlign=bottom;align=center;fontSize=18;fontStyle=0;aspect=fixed;shape=mxgraph.aws4.resourceIcon;resIcon=mxgraph.aws4.certificate_manager_3;labelPosition=center;convertToSvg=1;&quot; parent=&quot;1&quot; vertex=&quot;1&quot;&gt;&#10;          &lt;mxGeometry x=&quot;641&quot; y=&quot;120&quot; width=&quot;78&quot; height=&quot;78&quot; as=&quot;geometry&quot; /&gt;&#10;        &lt;/mxCell&gt;&#10;        &lt;mxCell id=&quot;SvVcy9G818gmS4jsLhIc-5&quot; value=&quot;&quot; style=&quot;endArrow=block;elbow=vertical;startArrow=block;startFill=1;endFill=1;strokeColor=#545B64;rounded=0;strokeWidth=1;endSize=9;startSize=9;entryX=0;entryY=0.75;entryDx=0;entryDy=0;entryPerimeter=0;convertToSvg=1;&quot; edge=&quot;1&quot; parent=&quot;1&quot; source=&quot;H2fNjRapKjcZLar6XIbd-2&quot; target=&quot;H2fNjRapKjcZLar6XIbd-12&quot;&gt;&#10;          &lt;mxGeometry width=&quot;100&quot; relative=&quot;1&quot; as=&quot;geometry&quot;&gt;&#10;            &lt;mxPoint x=&quot;640&quot; y=&quot;302&quot; as=&quot;sourcePoint&quot; /&gt;&#10;            &lt;mxPoint x=&quot;760&quot; y=&quot;220&quot; as=&quot;targetPoint&quot; /&gt;&#10;          &lt;/mxGeometry&gt;&#10;        &lt;/mxCell&gt;&#10;      &lt;/root&gt;&#10;    &lt;/mxGraphModel&gt;&#10;  &lt;/diagram&gt;&#10;&lt;/mxfile&gt;&#10;"><defs/><rect fill="#ffffff" width="100%" height="100%" x="0" y="0" style="fill: light-dark(#ffffff, var(--ge-dark-color, #121212));"/><g><g data-cell-id="0"><g data-cell-id="1"><g data-cell-id="H2fNjRapKjcZLar6XIbd-1"><g transform="translate(0.5,0.5)"><path d="M 170 0 L 910 0 L 910 740 L 170 740 Z" fill="none" stroke="#232f3e" stroke-miterlimit="10" pointer-events="none" style="stroke: light-dark(rgb(35, 47, 62), rgb(189, 199, 212));"/><path d="M 176.09 7.18 C 176.01 7.18 175.93 7.19 175.85 7.19 C 175.5 7.19 175.15 7.23 174.81 7.32 C 174.53 7.39 174.25 7.49 173.98 7.62 C 173.9 7.65 173.84 7.7 173.79 7.76 C 173.75 7.83 173.74 7.91 173.74 7.99 L 173.74 8.32 C 173.74 8.46 173.78 8.53 173.88 8.53 L 173.99 8.53 L 174.22 8.44 C 174.45 8.35 174.69 8.27 174.94 8.21 C 175.17 8.16 175.41 8.13 175.65 8.13 C 176.04 8.09 176.43 8.2 176.74 8.44 C 176.97 8.74 177.09 9.12 177.05 9.5 L 177.05 9.99 C 176.78 9.93 176.54 9.88 176.29 9.84 C 176.05 9.81 175.81 9.79 175.57 9.79 C 174.98 9.76 174.4 9.94 173.94 10.31 C 173.54 10.65 173.32 11.15 173.34 11.68 C 173.31 12.15 173.49 12.62 173.82 12.96 C 174.18 13.29 174.66 13.46 175.15 13.44 C 175.91 13.45 176.63 13.11 177.11 12.51 C 177.18 12.66 177.24 12.79 177.31 12.91 C 177.38 13.02 177.46 13.12 177.55 13.21 C 177.6 13.27 177.67 13.31 177.75 13.31 C 177.81 13.31 177.87 13.29 177.92 13.25 L 178.34 12.97 C 178.41 12.93 178.46 12.86 178.47 12.77 C 178.47 12.72 178.45 12.67 178.42 12.62 C 178.34 12.47 178.26 12.31 178.21 12.14 C 178.15 11.95 178.12 11.75 178.13 11.55 L 178.14 9.37 C 178.2 8.77 178 8.18 177.59 7.74 C 177.17 7.39 176.64 7.19 176.09 7.18 Z M 189.89 7.19 C 189.78 7.19 189.68 7.19 189.57 7.2 C 189.29 7.2 189 7.24 188.73 7.31 C 188.47 7.38 188.23 7.5 188.01 7.66 C 187.82 7.81 187.66 7.99 187.54 8.21 C 187.42 8.43 187.35 8.67 187.36 8.92 C 187.36 9.27 187.48 9.61 187.69 9.89 C 187.97 10.22 188.34 10.46 188.76 10.56 L 189.72 10.87 C 189.97 10.93 190.2 11.05 190.39 11.22 C 190.51 11.35 190.58 11.51 190.57 11.69 C 190.58 11.94 190.45 12.18 190.23 12.31 C 189.93 12.48 189.6 12.56 189.26 12.54 C 188.99 12.54 188.72 12.51 188.46 12.45 C 188.22 12.4 187.98 12.32 187.75 12.22 L 187.59 12.15 C 187.54 12.14 187.5 12.14 187.46 12.15 C 187.36 12.15 187.31 12.22 187.31 12.36 L 187.31 12.69 C 187.31 12.76 187.32 12.82 187.35 12.89 C 187.4 12.97 187.47 13.03 187.56 13.07 C 187.8 13.19 188.06 13.28 188.32 13.34 C 188.66 13.41 189 13.45 189.35 13.45 L 189.33 13.46 C 189.66 13.45 189.98 13.4 190.29 13.3 C 190.55 13.22 190.8 13.09 191.01 12.92 C 191.21 12.77 191.38 12.57 191.49 12.34 C 191.61 12.1 191.67 11.83 191.66 11.56 C 191.67 11.23 191.56 10.9 191.36 10.63 C 191.09 10.32 190.73 10.09 190.33 9.99 L 189.39 9.69 C 189.13 9.61 188.88 9.49 188.67 9.32 C 188.54 9.2 188.47 9.03 188.47 8.85 C 188.46 8.61 188.58 8.38 188.79 8.25 C 189.06 8.11 189.36 8.05 189.67 8.06 C 190.11 8.06 190.55 8.14 190.96 8.32 C 191.04 8.37 191.12 8.4 191.21 8.41 C 191.31 8.41 191.36 8.34 191.36 8.19 L 191.36 7.88 C 191.37 7.8 191.35 7.72 191.31 7.66 C 191.25 7.59 191.18 7.54 191.11 7.49 L 190.83 7.38 L 190.45 7.27 L 190.01 7.2 C 189.97 7.2 189.93 7.19 189.89 7.19 Z M 186.02 7.36 C 185.94 7.35 185.86 7.38 185.79 7.42 C 185.72 7.5 185.68 7.59 185.66 7.69 L 184.51 12.14 L 183.47 7.71 C 183.45 7.61 183.41 7.52 183.34 7.44 C 183.26 7.39 183.17 7.37 183.07 7.38 L 182.54 7.38 C 182.44 7.37 182.35 7.39 182.27 7.44 C 182.2 7.51 182.15 7.61 182.14 7.71 L 181.09 12.14 L 179.97 7.7 C 179.95 7.6 179.91 7.51 179.84 7.44 C 179.76 7.39 179.67 7.36 179.58 7.37 L 178.92 7.37 C 178.81 7.37 178.76 7.43 178.76 7.54 C 178.77 7.63 178.79 7.72 178.82 7.81 L 180.38 12.95 C 180.4 13.05 180.45 13.14 180.52 13.21 C 180.6 13.26 180.69 13.29 180.78 13.28 L 181.36 13.26 C 181.46 13.27 181.55 13.25 181.63 13.19 C 181.7 13.12 181.74 13.03 181.76 12.93 L 182.79 8.64 L 183.82 12.93 C 183.83 13.03 183.88 13.12 183.95 13.19 C 184.03 13.25 184.12 13.27 184.21 13.26 L 184.78 13.26 C 184.88 13.27 184.97 13.25 185.04 13.2 C 185.11 13.13 185.16 13.03 185.18 12.94 L 186.79 7.79 C 186.84 7.72 186.84 7.63 186.84 7.63 C 186.84 7.59 186.84 7.56 186.84 7.52 C 186.84 7.48 186.82 7.43 186.79 7.4 C 186.76 7.37 186.72 7.35 186.67 7.36 L 186.05 7.36 C 186.04 7.36 186.03 7.36 186.02 7.36 Z M 175.65 10.62 C 175.7 10.62 175.75 10.62 175.8 10.62 L 176.43 10.62 C 176.64 10.64 176.85 10.67 177.06 10.71 L 177.06 11.01 C 177.07 11.21 177.05 11.4 177 11.59 C 176.96 11.75 176.88 11.9 176.77 12.01 C 176.61 12.21 176.39 12.36 176.14 12.44 C 175.91 12.52 175.67 12.56 175.43 12.56 C 175.18 12.6 174.93 12.53 174.73 12.37 C 174.55 12.18 174.46 11.92 174.49 11.66 C 174.47 11.36 174.59 11.08 174.81 10.89 C 175.06 10.72 175.35 10.62 175.65 10.62 Z M 191.04 14.72 C 190.34 14.73 189.51 14.89 188.88 15.33 C 188.69 15.46 188.72 15.63 188.94 15.63 C 189.64 15.54 191.21 15.35 191.5 15.71 C 191.78 16.06 191.19 17.54 190.94 18.21 C 190.86 18.41 191.03 18.49 191.21 18.34 C 192.39 17.36 192.72 15.3 192.46 15 C 192.32 14.85 191.74 14.71 191.04 14.72 Z M 172.65 15.1 C 172.5 15.12 172.42 15.3 172.58 15.44 C 175.29 17.89 178.82 19.23 182.48 19.21 C 185.37 19.22 188.2 18.36 190.59 16.74 C 190.95 16.47 190.63 16.07 190.26 16.23 C 187.87 17.24 185.3 17.76 182.71 17.77 C 179.23 17.78 175.82 16.87 172.81 15.14 C 172.75 15.11 172.69 15.1 172.65 15.1 Z M 170 0 L 195 0 L 195 25 L 170 25 Z" fill="#232f3e" stroke="none" pointer-events="all" style="fill: light-dark(rgb(35, 47, 62), rgb(189, 199, 212));"/></g><g><g fill="#232F3E" font-family="Helvetica" font-size="18px" style="fill: light-dark(rgb(35, 47, 62), rgb(189, 199, 212));"><text x="202" y="24"><tspan>AWS Cloud</tspan></text></g></g></g><g data-cell-id="HFJM1gJeS1aWMsCjSJut-6"><g transform="translate(0.5,0.5)"><path d="M 339 609 L 441 609 L 489.88 609" fill="none" stroke="#545b64" stroke-miterlimit="10" pointer-events="stroke" style="stroke: light-dark(rgb(84, 91, 100), rgb(154, 160, 168));"/><path d="M 499.88 609 L 489.88 614 L 489.88 604 Z" fill="#545b64" stroke="#545b64" stroke-miterlimit="10" pointer-events="all" style="fill: light-dark(rgb(84, 91, 100), rgb(154, 160, 168)); stroke: light-dark(rgb(84, 91, 100), rgb(154, 160, 168));"/></g></g><g data-cell-id="H2fNjRapKjcZLar6XIbd-16"><g transform="translate(0.5,0.5)"><path d="M 741 609 L 590.12 609" fill="none" stroke="#545b64" stroke-miterlimit="10" pointer-events="stroke" style="stroke: light-dark(rgb(84, 91, 100), rgb(154, 160, 168));"/><path d="M 580.12 609 L 590.12 604 L 590.12 614 Z" fill="#545b64" stroke="#545b64" stroke-miterlimit="10" pointer-events="all" style="fill: light-dark(rgb(84, 91, 100), rgb(154, 160, 168)); stroke: light-dark(rgb(84, 91, 100), rgb(154, 160, 168));"/></g></g><g data-cell-id="HFJM1gJeS1aWMsCjSJut-3"><g transform="translate(0.5,0.5)"><rect x="631" y="590" width="60" height="40" fill="#ffffff" stroke="none" pointer-events="all" style="fill: light-dark(rgb(255, 255, 255), rgb(18, 18, 18));"/></g></g><g data-cell-id="H2fNjRapKjcZLar6XIbd-18"><g transform="translate(0.5,0.5)"><rect x="641" y="589" width="40" height="40" fill="none" stroke="none" pointer-events="all"/><path d="M 644.29 625.82 L 652.25 625.82 C 652.75 625.82 653.15 625.41 653.15 624.91 L 653.15 607.41 C 653.15 606.91 652.75 606.5 652.25 606.5 L 644.29 606.5 C 643.79 606.5 643.39 606.91 643.39 607.41 L 643.39 624.91 C 643.39 625.41 643.79 625.82 644.29 625.82 Z M 645.2 624.01 L 645.2 608.31 L 651.34 608.31 L 651.34 624.01 Z M 657.02 625.82 L 664.98 625.82 C 665.48 625.82 665.88 625.41 665.88 624.91 L 665.88 611.39 C 665.88 610.89 665.48 610.48 664.98 610.48 L 657.02 610.48 C 656.52 610.48 656.12 610.89 656.12 611.39 L 656.12 624.91 C 656.12 625.41 656.52 625.82 657.02 625.82 Z M 657.93 624.01 L 657.93 612.29 L 664.07 612.29 L 664.07 624.01 Z M 641.11 629 L 680.89 629 L 680.89 627.19 L 641.11 627.19 Z M 673.73 601.95 C 677.3 601.95 680.2 599.04 680.2 595.47 C 680.2 591.9 677.3 589 673.73 589 C 670.16 589 667.25 591.9 667.25 595.47 C 667.25 599.04 670.16 601.95 673.73 601.95 Z M 673.73 590.81 C 676.3 590.81 678.39 592.9 678.39 595.47 C 678.39 598.05 676.3 600.14 673.73 600.14 C 671.16 600.14 669.07 598.05 669.07 595.47 C 669.07 592.9 671.16 590.81 673.73 590.81 Z M 677.32 603 C 675.06 604.07 672.4 604.07 670.14 603 C 669.86 602.86 669.53 602.88 669.27 603.05 C 669 603.21 668.85 603.5 668.85 603.81 L 668.85 624.91 C 668.85 625.41 669.25 625.82 669.75 625.82 L 677.71 625.82 C 678.21 625.82 678.61 625.41 678.61 624.91 L 678.61 603.81 C 678.61 603.5 678.45 603.21 678.19 603.05 C 677.93 602.88 677.6 602.86 677.32 603 Z M 676.8 624.01 L 670.66 624.01 L 670.66 605.14 C 672.63 605.77 674.82 605.77 676.8 605.14 Z" fill="#e7157b" stroke="none" pointer-events="all" style="fill: light-dark(rgb(231, 21, 123), rgb(255, 129, 217));"/></g><g><g fill="#232F3E" font-family="Helvetica" text-anchor="middle" font-size="18px" style="fill: light-dark(rgb(35, 47, 62), rgb(189, 199, 212));"><text x="661" y="653">Alert</text></g></g></g><g data-cell-id="H2fNjRapKjcZLar6XIbd-2"><g transform="translate(0.5,0.5)"><rect x="0" y="259.8" width="80" height="58.4" fill="none" stroke="none" pointer-events="all"/><path d="M 42.31 259.9 C 41.01 259.9 39.93 260.98 39.93 262.28 L 39.93 278.86 L 41.53 278.86 L 41.53 262.28 C 41.53 261.83 41.87 261.5 42.31 261.5 L 71.08 261.5 C 71.53 261.5 71.86 261.83 71.86 262.28 L 71.86 284.66 L 73.46 284.66 L 73.46 262.28 C 73.46 260.98 72.39 259.9 71.08 259.9 Z M 44.88 262.81 C 43.75 262.81 42.8 263.75 42.8 264.89 L 42.8 278.86 L 44.4 278.86 L 44.4 264.89 C 44.4 264.61 44.6 264.41 44.88 264.41 L 68.44 264.41 C 68.72 264.41 68.92 264.61 68.92 264.89 L 68.92 284.66 L 70.52 284.66 L 70.52 264.89 C 70.52 263.75 69.58 262.81 68.44 262.81 Z M 5.67 280.23 C 4.49 280.23 3.66 281.15 3.66 282.37 L 3.66 312.86 L 0.93 312.86 C 0.45 312.86 0.21 313.2 0.12 313.39 C 0.02 313.58 0 313.75 0 313.93 L 0 316.04 C 0 317.11 2.35 318.08 3.65 318.08 L 49.66 318.08 C 50.81 318.08 53.16 317.17 53.16 316.01 L 53.16 313.93 C 53.16 313.75 53.13 313.58 53.04 313.39 C 52.94 313.2 52.71 312.86 52.23 312.86 L 49.48 312.86 L 49.48 282.21 C 49.48 281.11 48.63 280.26 47.58 280.23 Z M 5.26 281.83 L 47.89 281.83 L 47.89 312.86 L 5.26 312.86 Z M 8.53 283.12 C 7.46 283.12 6.64 283.94 6.64 284.98 L 6.64 309.32 C 6.64 311.26 7.85 311.64 8.67 311.66 L 44.21 311.66 C 45.87 311.66 46.74 310.12 46.74 309.04 L 46.74 285.54 C 46.74 284.47 45.97 283.12 44.12 283.12 Z M 8.24 284.71 L 45.14 284.71 L 45.14 310.07 L 8.24 310.07 Z M 66.69 286.06 C 64.76 286.06 63.19 287.64 63.19 289.57 L 63.19 315.47 C 63.19 317.14 64.75 318.1 66.68 318.1 L 76.69 318.1 C 78.62 318.1 80 316.89 80 315.28 L 80 289.57 C 80 287.64 78.42 286.06 76.49 286.06 Z M 66.69 287.66 L 76.49 287.66 C 77.56 287.66 78.4 288.5 78.4 289.57 L 78.4 291.87 L 64.78 291.87 L 64.78 289.57 C 64.78 288.5 65.62 287.66 66.69 287.66 Z M 71.17 288.96 L 71.17 290.55 L 74.83 290.55 L 74.83 288.96 Z M 69.75 288.98 C 69.32 288.98 68.98 289.32 68.98 289.74 C 68.98 290.17 69.33 290.51 69.75 290.51 C 70.17 290.51 70.52 290.17 70.52 289.74 C 70.52 289.32 70.17 288.98 69.75 288.98 Z M 64.78 293.47 L 78.4 293.47 L 78.4 312.86 L 64.78 312.86 Z M 50.86 296.25 L 50.86 297.85 L 61.72 297.85 L 61.76 296.25 Z M 56.36 298.31 C 54.91 298.31 53.72 299.5 53.72 300.95 C 53.72 302.4 54.91 303.59 56.36 303.59 C 57.81 303.59 59 302.4 59 300.95 C 59 299.5 57.81 298.31 56.36 298.31 Z M 56.36 299.91 C 56.94 299.91 57.41 300.37 57.41 300.95 C 57.41 301.54 56.94 302 56.36 302 C 55.77 302 55.32 301.54 55.32 300.95 C 55.32 300.37 55.77 299.91 56.36 299.91 Z M 50.86 304.15 L 50.86 305.75 L 61.77 305.75 L 61.77 304.15 Z M 1.6 314.46 L 51.56 314.46 L 51.56 315.64 C 51.56 316.13 50.91 316.48 49.86 316.48 L 3.43 316.48 C 2.45 316.48 1.6 316.12 1.6 315.63 Z M 64.78 314.46 L 78.4 314.46 L 78.4 315.28 C 78.4 316.35 77.76 316.5 76.69 316.5 L 66.68 316.5 C 65.61 316.5 64.78 316.26 64.78 315.47 Z" fill="#879196" stroke="none" pointer-events="all" style="fill: light-dark(rgb(135, 145, 150), rgb(106, 115, 119));"/></g><g><g fill="#545B64" font-family="Helvetica" text-anchor="middle" font-size="18px" style="fill: light-dark(rgb(84, 91, 100), rgb(154, 160, 168));"><text x="40" y="342.2">Devices</text></g></g></g><g data-cell-id="H2fNjRapKjcZLar6XIbd-3"><g transform="translate(0.5,0.5)"><path d="M 261 410 L 339 410 L 339 488 L 261 488 Z" fill="#dd344c" stroke="none" pointer-events="all" style="fill: light-dark(rgb(221, 52, 76), rgb(255, 127, 147));"/><path d="M 271.47 450.11 L 268.8 450.11 L 268.8 447.89 L 271.47 447.89 C 271.7 442.25 273.52 436.89 276.83 432.31 L 278.64 433.62 C 275.61 437.81 273.92 442.72 273.7 447.89 L 276.6 447.89 L 276.6 450.11 L 273.7 450.11 C 273.91 455.31 275.59 460.25 278.64 464.46 L 276.83 465.77 C 273.51 461.17 271.68 455.78 271.47 450.11 Z M 316.73 472.21 C 312.14 475.53 306.77 477.35 301.11 477.57 L 301.11 480.2 L 298.89 480.2 L 298.89 477.57 C 293.23 477.35 287.85 475.53 283.27 472.21 L 284.58 470.4 C 288.78 473.44 293.71 475.13 298.89 475.34 L 298.89 472.4 L 301.11 472.4 L 301.11 475.34 C 306.29 475.13 311.22 473.44 315.42 470.4 Z M 283.27 425.87 C 287.85 422.56 293.23 420.73 298.89 420.51 L 298.89 417.8 L 301.11 417.8 L 301.11 420.51 C 306.77 420.73 312.14 422.56 316.73 425.87 L 315.42 427.68 C 311.22 424.64 306.29 422.96 301.11 422.74 L 301.11 425.6 L 298.89 425.6 L 298.89 422.74 C 293.71 422.96 288.78 424.64 284.58 427.68 Z M 331.2 447.89 L 331.2 450.11 L 328.53 450.11 C 328.32 455.78 326.49 461.17 323.17 465.77 L 321.36 464.46 C 324.41 460.25 326.09 455.31 326.3 450.11 L 323.4 450.11 L 323.4 447.89 L 326.3 447.89 C 326.07 442.72 324.39 437.81 321.36 433.62 L 323.17 432.31 C 326.47 436.89 328.3 442.25 328.52 447.89 Z M 316.68 430.78 L 325.42 422.05 L 326.99 423.62 L 318.26 432.36 Z M 283.31 467.3 L 274.58 476.04 L 273 474.46 L 281.74 465.73 Z M 285.8 436.37 L 269.26 419.84 L 270.83 418.26 L 287.37 434.8 Z M 314.16 461.58 L 330.74 478.16 L 329.16 479.74 L 312.58 463.16 Z M 290.71 449.82 C 290.79 449.67 290.89 449.52 290.98 449.37 C 292.85 446.43 292.32 442.41 291.72 439.99 C 293.33 441.04 294.77 443.22 295.27 444.14 C 295.48 444.53 295.89 444.76 296.34 444.72 C 296.78 444.69 297.15 444.4 297.3 443.98 C 298.96 439.27 298.12 435.73 296.95 433.43 C 298.37 434.25 299.46 435.44 300.19 436.96 C 301.77 440.24 301.42 444.72 299.27 448.67 C 296.34 454.05 296.93 459.7 297.6 462.74 C 295.93 462.02 294.44 461.21 293.15 460.31 C 289.78 457.96 288.71 453.35 290.71 449.82 Z M 305.68 449.44 C 305.6 449.9 305.82 450.35 306.22 450.58 C 306.61 450.82 307.12 450.78 307.48 450.49 C 307.57 450.42 309.39 448.91 310.28 445.26 C 311.34 446.81 312.46 449.94 310.98 455.69 C 309.51 461.38 302.54 462.98 300.05 463.37 C 299.45 461.22 298.24 455.24 301.23 449.73 C 303.36 445.82 303.92 441.4 302.86 437.75 C 304.87 440.12 306.58 443.84 305.68 449.44 Z M 288.77 448.72 C 286.21 453.25 287.57 459.14 291.88 462.14 C 293.83 463.5 296.19 464.68 298.9 465.65 C 299.02 465.69 299.15 465.71 299.27 465.71 C 299.3 465.71 299.32 465.7 299.34 465.7 L 299.34 465.71 C 299.81 465.67 310.95 464.71 313.13 456.25 C 315.94 445.36 310.31 442.14 310.07 442 C 309.75 441.83 309.35 441.82 309.02 441.99 C 308.69 442.17 308.47 442.49 308.43 442.87 C 308.35 443.62 308.23 444.29 308.08 444.88 C 307.31 436.34 300.53 432.86 299.16 432.24 C 297.76 431.16 296.05 430.43 294.07 430.07 C 293.58 429.98 293.08 430.24 292.87 430.7 C 292.66 431.16 292.78 431.7 293.17 432.03 C 293.33 432.17 296.81 435.18 295.81 440.91 C 294.52 439.21 292.46 437.17 290.04 437.17 C 289.67 437.17 289.33 437.35 289.12 437.65 C 288.91 437.95 288.87 438.34 289 438.68 C 289.02 438.74 291.3 444.73 289.1 448.18 C 288.98 448.36 288.87 448.54 288.77 448.72 Z" fill="#ffffff" stroke="none" pointer-events="all" style="fill: light-dark(rgb(255, 255, 255), rgb(18, 18, 18));"/></g><g><g fill="#232F3E" font-family="Helvetica" font-size="18px" style="fill: light-dark(rgb(35, 47, 62), rgb(189, 199, 212));"><text x="346" y="457">WAF</text></g></g></g><g data-cell-id="H2fNjRapKjcZLar6XIbd-4"><g transform="translate(0.5,0.5)"><path d="M 743 90 L 821 90 L 821 168 L 743 168 Z" fill="#dd344c" stroke="none" pointer-events="all" style="fill: light-dark(rgb(221, 52, 76), rgb(255, 127, 147));"/><path d="M 753.03 150.17 L 810.97 150.17 L 810.97 107.83 L 753.03 107.83 Z M 813.2 106.71 L 813.2 151.29 C 813.2 151.9 812.7 152.4 812.09 152.4 L 751.91 152.4 C 751.3 152.4 750.8 151.9 750.8 151.29 L 750.8 106.71 C 750.8 106.1 751.3 105.6 751.91 105.6 L 812.09 105.6 C 812.7 105.6 813.2 106.1 813.2 106.71 Z M 786.46 137.91 L 803.17 137.91 L 803.17 135.69 L 786.46 135.69 Z M 800.94 131.23 L 806.51 131.23 L 806.51 129 L 800.94 129 Z M 786.46 131.23 L 795.37 131.23 L 795.37 129 L 786.46 129 Z M 769.74 135.69 C 769.74 135.07 769.24 134.57 768.63 134.57 C 768.01 134.57 767.51 135.07 767.51 135.69 C 767.51 136.3 768.01 136.8 768.63 136.8 C 769.24 136.8 769.74 136.3 769.74 135.69 Z M 771.97 135.69 C 771.97 137.14 771.04 138.36 769.74 138.82 L 769.74 141.26 L 767.51 141.26 L 767.51 138.82 C 766.22 138.36 765.29 137.14 765.29 135.69 C 765.29 133.84 766.79 132.34 768.63 132.34 C 770.47 132.34 771.97 133.84 771.97 135.69 Z M 758.6 144.59 L 778.65 144.6 L 778.65 140.14 L 774.2 140.14 L 774.2 137.91 L 778.65 137.91 L 778.65 134.57 L 774.2 134.57 L 774.2 132.34 L 778.66 132.34 L 778.66 129.01 L 758.61 129 Z M 761.94 126.77 L 775.31 126.78 L 775.31 118.97 C 775.32 116.41 772.19 114.15 768.63 114.15 L 768.62 114.15 C 765.07 114.15 761.95 116.4 761.95 118.97 Z M 756.37 145.71 L 756.38 127.89 C 756.38 127.59 756.5 127.31 756.7 127.1 C 756.91 126.89 757.2 126.77 757.49 126.77 L 759.71 126.77 L 759.72 118.97 C 759.72 115.08 763.71 111.92 768.62 111.92 L 768.63 111.92 C 773.54 111.93 777.54 115.09 777.54 118.97 L 777.54 126.78 L 779.77 126.78 C 780.39 126.78 780.89 127.28 780.89 127.89 L 780.88 145.71 C 780.88 146.01 780.76 146.29 780.55 146.5 C 780.34 146.71 780.06 146.83 779.76 146.83 L 757.49 146.82 C 756.87 146.82 756.37 146.32 756.37 145.71 Z M 804.29 124.54 L 806.51 124.54 L 806.51 122.31 L 804.29 122.31 Z M 786.46 124.54 L 798.71 124.54 L 798.71 122.31 L 786.46 122.31 Z" fill="#ffffff" stroke="none" pointer-events="all" style="fill: light-dark(rgb(255, 255, 255), rgb(18, 18, 18));"/></g><g><g fill="#232F3E" font-family="Helvetica" text-anchor="middle" font-size="18px" style="fill: light-dark(rgb(35, 47, 62), rgb(189, 199, 212));"><text x="782" y="85">IAM</text></g></g></g><g data-cell-id="H2fNjRapKjcZLar6XIbd-6"><g transform="translate(0.5,0.5)"><path d="M 622 250 L 700 250 L 700 328 L 622 328 Z" fill="#7aa116" stroke="none" pointer-events="all" style="fill: light-dark(rgb(122, 161, 22), rgb(97, 130, 11));"/><path d="M 684.28 292.22 L 684.71 289.21 C 688.66 291.57 688.71 292.55 688.71 292.58 C 688.7 292.58 688.03 293.14 684.28 292.22 Z M 682.12 291.62 C 675.3 289.56 665.8 285.2 661.96 283.39 C 661.96 283.37 661.96 283.36 661.96 283.34 C 661.96 281.86 660.76 280.66 659.28 280.66 C 657.81 280.66 656.61 281.86 656.61 283.34 C 656.61 284.82 657.81 286.02 659.28 286.02 C 659.93 286.02 660.52 285.78 660.98 285.39 C 665.51 287.53 674.93 291.82 681.8 293.85 L 679.08 313.03 C 679.07 313.08 679.07 313.13 679.07 313.18 C 679.07 314.87 671.6 317.97 659.39 317.97 C 647.05 317.97 639.49 314.87 639.49 313.18 C 639.49 313.13 639.49 313.08 639.48 313.03 L 633.81 271.57 C 638.72 274.95 649.29 276.74 659.39 276.74 C 669.48 276.74 680.03 274.96 684.96 271.59 Z M 633.21 267.25 C 633.29 265.78 641.71 260.03 659.39 260.03 C 677.07 260.03 685.5 265.78 685.58 267.25 L 685.58 267.75 C 684.61 271.04 673.69 274.51 659.39 274.51 C 645.07 274.51 634.15 271.02 633.21 267.73 Z M 687.81 267.27 C 687.81 263.41 676.74 257.8 659.39 257.8 C 642.05 257.8 630.98 263.41 630.98 267.27 L 631.08 268.11 L 637.27 313.27 C 637.41 318.32 650.88 320.2 659.39 320.2 C 669.94 320.2 681.15 317.77 681.3 313.27 L 683.97 294.44 C 685.45 294.8 686.68 294.98 687.66 294.98 C 688.98 294.98 689.87 294.66 690.41 294.01 C 690.85 293.49 691.02 292.85 690.89 292.16 C 690.61 290.62 688.77 288.96 685.05 286.83 L 687.69 268.16 Z" fill="#ffffff" stroke="none" pointer-events="all" style="fill: light-dark(rgb(255, 255, 255), rgb(18, 18, 18));"/></g><g><g fill="#232F3E" font-family="Helvetica" text-anchor="middle" font-size="18px" style="fill: light-dark(rgb(35, 47, 62), rgb(189, 199, 212));"><text x="661" y="245">S3 Standard</text></g></g></g><g data-cell-id="H2fNjRapKjcZLar6XIbd-7"><g transform="translate(0.5,0.5)"><path d="M 500 410 L 579 410 L 579 489 L 500 489 Z" fill="#ed7100" stroke="none" pointer-events="all" style="fill: light-dark(rgb(237, 113, 0), rgb(216, 109, 12));"/><path d="M 525.99 478.84 L 511.98 478.84 L 527.48 446.45 L 534.5 460.91 Z M 528.49 443.35 C 528.3 442.96 527.91 442.72 527.47 442.72 L 527.47 442.72 C 527.03 442.72 526.64 442.97 526.45 443.36 L 509.17 479.49 C 509 479.83 509.02 480.25 509.23 480.57 C 509.44 480.9 509.8 481.1 510.19 481.1 L 526.71 481.1 C 527.15 481.1 527.55 480.85 527.73 480.45 L 536.78 461.38 C 536.92 461.07 536.92 460.71 536.77 460.41 Z M 567.74 478.84 L 553.81 478.84 L 531.48 432.09 C 531.29 431.69 530.89 431.44 530.46 431.44 L 521.35 431.44 L 521.36 420.16 L 539.21 420.16 L 561.45 466.91 C 561.63 467.31 562.03 467.56 562.47 467.56 L 567.74 467.56 Z M 568.87 465.3 L 563.18 465.3 L 540.95 418.54 C 540.76 418.15 540.36 417.9 539.93 417.9 L 520.23 417.9 C 519.6 417.9 519.1 418.4 519.1 419.03 L 519.08 432.57 C 519.08 432.87 519.2 433.16 519.41 433.37 C 519.63 433.58 519.91 433.7 520.21 433.7 L 529.74 433.7 L 552.08 480.46 C 552.27 480.85 552.66 481.1 553.1 481.1 L 568.87 481.1 C 569.49 481.1 570 480.59 570 479.97 L 570 466.43 C 570 465.81 569.49 465.3 568.87 465.3 Z" fill="#ffffff" stroke="none" pointer-events="all" style="fill: light-dark(rgb(255, 255, 255), rgb(18, 18, 18));"/></g><g><g fill="#232F3E" font-family="Helvetica" font-size="18px" style="fill: light-dark(rgb(35, 47, 62), rgb(189, 199, 212));"><text x="586" y="457.5">Lambda</text></g></g></g><g data-cell-id="H2fNjRapKjcZLar6XIbd-8"><g transform="translate(0.5,0.5)"><path d="M 261 570 L 339 570 L 339 648 L 261 648 Z" fill="#e7157b" stroke="none" pointer-events="all" style="fill: light-dark(rgb(231, 21, 123), rgb(255, 129, 217));"/><path d="M 316.45 617.15 C 316.45 612.83 312.91 609.31 308.55 609.31 C 304.2 609.31 300.65 612.83 300.65 617.15 C 300.65 621.48 304.2 625 308.55 625 C 312.91 625 316.45 621.48 316.45 617.15 M 318.67 617.15 C 318.67 622.7 314.13 627.21 308.55 627.21 C 302.97 627.21 298.43 622.7 298.43 617.15 C 298.43 611.61 302.97 607.1 308.55 607.1 C 314.13 607.1 318.67 611.61 318.67 617.15 M 328.01 632.31 L 320.26 625.37 C 319.63 626.25 318.91 627.05 318.1 627.76 L 325.85 634.7 C 326.51 635.29 327.54 635.24 328.13 634.58 C 328.73 633.93 328.67 632.91 328.01 632.31 M 308.55 629.2 C 315.24 629.2 320.68 623.8 320.68 617.15 C 320.68 610.51 315.24 605.11 308.55 605.11 C 301.87 605.11 296.43 610.51 296.43 617.15 C 296.43 623.8 301.87 629.2 308.55 629.2 M 329.79 636.06 C 329.03 636.9 327.98 637.32 326.93 637.32 C 326.01 637.32 325.09 637 324.36 636.34 L 316.31 629.13 C 314.07 630.57 311.41 631.41 308.55 631.41 C 300.64 631.41 294.2 625.01 294.2 617.15 C 294.2 609.3 300.64 602.9 308.55 602.9 C 316.46 602.9 322.9 609.3 322.9 617.15 C 322.9 619.41 322.36 621.54 321.41 623.43 L 329.5 630.67 C 331.07 632.08 331.2 634.5 329.79 636.06 M 279.07 597.92 C 279.07 598.49 279.1 599.06 279.17 599.62 C 279.21 599.93 279.11 600.25 278.9 600.49 C 278.73 600.67 278.51 600.8 278.26 600.84 C 275.53 601.54 271.02 603.67 271.02 610.04 C 271.02 614.85 273.7 617.5 275.94 618.89 C 276.7 619.36 277.61 619.62 278.56 619.63 L 291.98 619.64 L 291.98 621.85 L 278.55 621.84 C 277.17 621.83 275.86 621.45 274.76 620.76 C 272.54 619.39 268.8 616.17 268.8 610.04 C 268.8 602.64 273.89 599.91 276.88 598.94 C 276.86 598.6 276.84 598.26 276.84 597.92 C 276.84 591.88 280.97 585.61 286.44 583.34 C 292.84 580.68 299.62 582 304.57 586.87 C 306.11 588.38 307.37 590.22 308.34 592.34 C 309.64 591.26 311.24 590.67 312.93 590.67 C 316.26 590.67 320 593.18 320.66 598.66 C 323.77 599.37 330.35 601.86 330.35 610.12 C 330.35 613.42 329.31 616.15 327.25 618.22 L 325.67 616.67 C 327.3 615.03 328.12 612.82 328.12 610.12 C 328.12 602.9 322.03 601.1 319.41 600.66 C 319.11 600.61 318.85 600.44 318.68 600.2 C 318.51 599.96 318.45 599.66 318.5 599.38 C 318.14 594.89 315.45 592.88 312.93 592.88 C 311.34 592.88 309.85 593.65 308.84 594.99 C 308.6 595.32 308.2 595.48 307.79 595.43 C 307.39 595.37 307.05 595.09 306.91 594.71 C 306 592.2 304.68 590.09 303.01 588.44 C 298.71 584.22 292.84 583.08 287.3 585.38 C 282.68 587.29 279.07 592.8 279.07 597.92" fill="#ffffff" stroke="none" pointer-events="all" style="fill: light-dark(rgb(255, 255, 255), rgb(18, 18, 18));"/></g><g><g fill="#232F3E" font-family="Helvetica" text-anchor="middle" font-size="18px" style="fill: light-dark(rgb(35, 47, 62), rgb(189, 199, 212));"><text x="300" y="672">CloudWatch</text></g></g></g><g data-cell-id="H2fNjRapKjcZLar6XIbd-11"><g transform="translate(0.5,0.5)"><path d="M 741 569 L 821 569 L 821 649 L 741 649 Z" fill="#7aa116" stroke="none" pointer-events="all" style="fill: light-dark(rgb(122, 161, 22), rgb(97, 130, 11));"/><path d="M 791.29 597.57 L 791.29 592.33 L 782.95 600.67 C 782.54 601.08 781.88 601.11 781.43 600.75 L 776.51 596.82 L 769.24 604.09 L 767.62 602.48 L 775.62 594.48 C 776.03 594.07 776.69 594.03 777.14 594.39 L 782.06 598.33 L 789.67 590.71 L 784.43 590.71 L 784.43 588.43 L 792.43 588.43 C 793.06 588.43 793.57 588.94 793.57 589.57 L 793.57 597.57 Z M 765 612.43 L 762.71 612.43 L 762.71 578.14 C 762.71 577.51 763.23 577 763.86 577 L 798.14 577 C 798.77 577 799.29 577.51 799.29 578.14 L 799.29 612.43 L 797 612.43 L 797 579.29 L 765 579.29 Z M 752.43 636.97 L 752.43 611.36 L 766.99 621.44 Z M 781 630.86 C 781.26 630.86 781.51 630.78 781.73 630.63 L 793.11 622.75 L 808.08 638.71 L 753.92 638.71 L 768.89 622.75 L 780.27 630.63 C 780.49 630.78 780.74 630.86 781 630.86 Z M 795.01 621.44 L 809.57 611.36 L 809.57 636.97 Z M 811.47 608.14 L 802.32 600.14 L 800.82 601.86 L 808.75 608.8 L 781 628.01 L 753.25 608.8 L 761.18 601.86 L 759.68 600.14 L 750.53 608.14 C 750.28 608.36 750.14 608.67 750.14 609 L 750.14 639.86 C 750.14 640.49 750.65 641 751.29 641 L 810.71 641 C 811.35 641 811.86 640.49 811.86 639.86 L 811.86 609 C 811.86 608.67 811.72 608.36 811.47 608.14 Z" fill="#ffffff" stroke="none" pointer-events="all" style="fill: light-dark(rgb(255, 255, 255), rgb(18, 18, 18));"/></g><g><g fill="#232F3E" font-family="Helvetica" text-anchor="middle" font-size="18px" style="fill: light-dark(rgb(35, 47, 62), rgb(189, 199, 212));"><text x="781" y="673">Budgets</text></g></g></g><g data-cell-id="H2fNjRapKjcZLar6XIbd-12"><g transform="translate(0.5,0.5)"><path d="M 261 90 L 339 90 L 339 168 L 261 168 Z" fill="#8c4fff" stroke="none" pointer-events="all" style="fill: light-dark(rgb(140, 79, 255), rgb(177, 125, 255));"/><path d="M 309.66 129.82 C 310.49 130.58 310.9 131.6 310.9 132.88 C 310.9 134.27 310.4 135.38 309.4 136.21 C 308.4 137.04 307.05 137.46 305.37 137.46 C 304.03 137.46 302.71 137.17 301.41 136.6 L 301.41 134.9 C 302.95 135.41 304.27 135.67 305.37 135.67 C 306.44 135.67 307.27 135.43 307.86 134.94 C 308.44 134.46 308.73 133.77 308.73 132.88 C 308.73 131.16 307.64 130.3 305.47 130.3 C 304.79 130.3 304.12 130.34 303.45 130.41 L 303.45 129.01 L 307.92 124.13 L 301.62 124.13 L 301.62 122.38 L 310.28 122.38 L 310.28 124.07 L 305.9 128.71 C 305.97 128.69 306.04 128.69 306.11 128.69 L 306.32 128.69 C 307.73 128.69 308.84 129.07 309.66 129.82 M 297.3 129.45 C 298.17 130.26 298.6 131.37 298.6 132.79 C 298.6 134.18 298.1 135.31 297.09 136.17 C 296.08 137.03 294.76 137.46 293.11 137.46 C 291.66 137.46 290.31 137.17 289.05 136.6 L 289.05 134.9 C 290.62 135.41 291.97 135.67 293.09 135.67 C 294.17 135.67 294.99 135.42 295.57 134.93 C 296.14 134.44 296.43 133.74 296.43 132.81 C 296.43 131.81 296.16 131.08 295.62 130.62 C 295.08 130.17 294.2 129.94 292.98 129.94 C 292.1 129.94 291 130.01 289.68 130.15 L 289.68 128.75 L 290.09 122.38 L 297.86 122.38 L 297.86 124.13 L 291.88 124.13 L 291.6 128.45 C 292.38 128.31 293.08 128.24 293.7 128.24 C 295.24 128.24 296.44 128.64 297.3 129.45 M 313.29 145.05 C 307.9 146.02 303.17 148.22 300 150.01 C 296.83 148.22 292.1 146.02 286.71 145.05 C 285.19 144.78 277.62 143.2 277.62 138.83 C 277.62 136.8 278.34 135.45 279.74 133.05 C 281.4 130.18 283.48 126.61 283.48 121.46 C 283.48 117.78 282.51 114.25 280.61 110.96 C 280.83 110.69 281.06 110.41 281.29 110.13 C 284.11 111.54 287.04 112.25 290.03 112.25 C 293.67 112.25 297.03 111.29 300 109.4 C 302.97 111.29 306.32 112.25 309.97 112.25 C 312.95 112.25 315.89 111.54 318.71 110.13 C 318.94 110.41 319.17 110.69 319.39 110.96 C 317.49 114.25 316.52 117.78 316.52 121.46 C 316.52 126.61 318.6 130.18 320.26 133.06 C 321.65 135.45 322.38 136.8 322.38 138.83 C 322.38 143.2 314.81 144.78 313.29 145.05 M 318.75 121.46 C 318.75 117.95 319.74 114.58 321.69 111.46 C 321.94 111.05 321.91 110.53 321.61 110.16 C 321.04 109.47 320.45 108.74 319.86 108.02 C 319.53 107.6 318.94 107.48 318.46 107.74 C 315.72 109.26 312.87 110.02 309.97 110.02 C 306.48 110.02 303.42 109.09 300.63 107.15 C 300.25 106.89 299.75 106.89 299.37 107.15 C 296.58 109.09 293.52 110.02 290.03 110.02 C 287.13 110.02 284.27 109.26 281.54 107.74 C 281.06 107.48 280.47 107.6 280.13 108.02 C 279.55 108.74 278.96 109.47 278.39 110.16 C 278.09 110.53 278.06 111.05 278.31 111.46 C 280.26 114.58 281.25 117.95 281.25 121.46 C 281.25 126.01 279.35 129.29 277.81 131.94 C 276.31 134.52 275.39 136.24 275.39 138.83 C 275.39 144.82 283.75 146.78 286.31 147.24 C 291.72 148.21 296.43 150.5 299.44 152.25 C 299.61 152.36 299.81 152.41 300 152.41 C 300.19 152.41 300.39 152.36 300.56 152.25 C 303.57 150.5 308.28 148.21 313.69 147.24 C 316.25 146.78 324.6 144.82 324.6 138.83 C 324.6 136.24 323.69 134.52 322.19 131.94 C 320.65 129.29 318.75 126.01 318.75 121.46 M 314.45 151.48 C 307.63 152.71 301.92 156.37 300 157.71 C 298.08 156.37 292.37 152.71 285.55 151.48 C 272.13 149.07 271.09 141.18 271.09 138.83 C 271.09 134.94 272.62 132.32 274.09 129.78 C 275.5 127.36 276.95 124.85 276.95 121.46 C 276.95 116.1 273.86 112.31 272.33 110.77 C 273.93 108.82 277.99 103.88 279.99 101.3 C 283.02 104.16 286.54 105.72 290.03 105.72 C 293.89 105.72 297.09 104.15 300 100.79 C 302.91 104.15 306.1 105.72 309.97 105.72 C 313.45 105.72 316.98 104.16 320.01 101.3 C 322.01 103.88 326.06 108.82 327.67 110.77 C 326.14 112.31 323.05 116.1 323.05 121.46 C 323.05 124.85 324.5 127.36 325.91 129.78 C 327.38 132.32 328.91 134.94 328.91 138.83 C 328.91 141.18 327.86 149.07 314.45 151.48 M 327.83 128.66 C 326.46 126.29 325.27 124.25 325.27 121.46 C 325.27 115.58 329.85 111.78 329.89 111.74 C 330.12 111.55 330.27 111.28 330.3 110.99 C 330.33 110.69 330.24 110.4 330.05 110.17 C 329.98 110.08 322.69 101.24 321.02 98.95 C 320.82 98.69 320.52 98.52 320.19 98.5 C 319.86 98.47 319.54 98.61 319.31 98.85 C 316.51 101.84 313.19 103.5 309.97 103.5 C 306.41 103.5 303.61 101.91 300.88 98.35 C 300.46 97.8 299.54 97.8 299.12 98.35 C 296.39 101.91 293.59 103.5 290.03 103.5 C 286.81 103.5 283.49 101.84 280.69 98.85 C 280.46 98.61 280.14 98.47 279.81 98.5 C 279.48 98.52 279.17 98.69 278.98 98.95 C 277.31 101.24 270.02 110.08 269.95 110.17 C 269.76 110.4 269.67 110.69 269.7 110.99 C 269.73 111.28 269.87 111.55 270.1 111.74 C 270.15 111.78 274.73 115.58 274.73 121.46 C 274.73 124.25 273.54 126.29 272.17 128.66 C 270.62 131.33 268.87 134.35 268.87 138.83 C 268.87 146.29 274.96 151.84 285.16 153.67 C 292.84 155.05 299.26 159.92 299.32 159.97 C 299.52 160.12 299.76 160.2 300 160.2 C 300.24 160.2 300.48 160.12 300.68 159.97 C 300.74 159.92 307.14 155.05 314.84 153.67 C 325.04 151.84 331.13 146.29 331.13 138.83 C 331.13 134.35 329.38 131.33 327.83 128.66" fill="#ffffff" stroke="none" pointer-events="all" style="fill: light-dark(rgb(255, 255, 255), rgb(18, 18, 18));"/></g><g><g fill="#232F3E" font-family="Helvetica" text-anchor="middle" font-size="18px" style="fill: light-dark(rgb(35, 47, 62), rgb(189, 199, 212));"><text x="300" y="85">Route 53</text></g></g></g><g data-cell-id="H2fNjRapKjcZLar6XIbd-13"><g transform="translate(0.5,0.5)"><path d="M 381 250 L 459 250 L 459 328 L 381 328 Z" fill="#8c4fff" stroke="none" pointer-events="all" style="fill: light-dark(rgb(140, 79, 255), rgb(177, 125, 255));"/><path d="M 436.85 302.51 C 436.85 300.67 435.35 299.17 433.51 299.17 C 431.66 299.17 430.16 300.67 430.16 302.51 C 430.16 304.35 431.66 305.85 433.51 305.85 C 435.35 305.85 436.85 304.35 436.85 302.51 Z M 439.08 302.51 C 439.08 305.58 436.58 308.08 433.51 308.08 C 430.44 308.08 427.94 305.58 427.94 302.51 C 427.94 299.44 430.44 296.94 433.51 296.94 C 436.58 296.94 439.08 299.44 439.08 302.51 Z M 409.29 286.43 C 409.29 284.59 407.79 283.09 405.95 283.09 C 404.11 283.09 402.61 284.59 402.61 286.43 C 402.61 288.27 404.11 289.77 405.95 289.77 C 407.79 289.77 409.29 288.27 409.29 286.43 Z M 411.52 286.43 C 411.52 289.5 409.02 292 405.95 292 C 402.88 292 400.38 289.5 400.38 286.43 C 400.38 283.36 402.88 280.86 405.95 280.86 C 409.02 280.86 411.52 283.36 411.52 286.43 Z M 419.7 268.95 C 419.7 270.79 421.2 272.29 423.04 272.29 C 424.89 272.29 426.38 270.79 426.38 268.95 C 426.38 267.11 424.89 265.61 423.04 265.61 C 421.2 265.61 419.7 267.11 419.7 268.95 Z M 417.47 268.95 C 417.47 265.88 419.97 263.38 423.04 263.38 C 426.11 263.38 428.61 265.88 428.61 268.95 C 428.61 272.02 426.11 274.52 423.04 274.52 C 419.97 274.52 417.47 272.02 417.47 268.95 Z M 448.97 289 C 448.97 278.67 443.43 269.11 434.5 263.94 C 432.9 264.26 431.35 264.7 429.42 265.4 L 428.66 263.31 C 429.67 262.94 430.57 262.65 431.44 262.4 C 427.85 260.85 423.95 260.03 420 260.03 C 418.12 260.03 416.27 260.22 414.46 260.58 C 415.77 261.34 416.93 262.11 418.06 262.96 L 416.71 264.74 C 415.12 263.53 413.47 262.51 411.31 261.38 C 400.36 264.82 392.48 274.47 391.23 285.8 C 393.53 285.34 395.73 285.08 398.18 285.02 L 398.23 287.25 C 395.67 287.31 393.47 287.58 391.06 288.11 C 391.05 288.41 391.03 288.71 391.03 289 C 391.03 298.65 395.8 307.54 403.65 312.9 C 402.25 308.74 401.56 304.81 401.56 300.97 C 401.56 298.79 401.94 296.99 402.33 295.09 C 402.43 294.65 402.52 294.2 402.61 293.73 L 404.8 294.16 C 404.7 294.64 404.61 295.1 404.51 295.54 C 404.12 297.41 403.79 299.02 403.79 300.97 C 403.79 305.33 404.74 309.83 406.69 314.72 C 410.83 316.87 415.31 317.97 420 317.97 C 423.07 317.97 426.07 317.48 428.93 316.54 C 430.05 314.32 430.88 312.24 431.58 309.84 L 433.72 310.46 C 433.21 312.21 432.63 313.8 431.93 315.38 C 433.73 314.57 435.43 313.57 437.03 312.41 C 436.65 311.46 436.23 310.53 435.78 309.61 L 437.77 308.62 C 438.16 309.39 438.51 310.18 438.85 310.98 C 445.3 305.46 448.97 297.54 448.97 289 Z M 451.2 289 C 451.2 298.72 446.78 307.72 439.08 313.68 C 437.17 315.16 435.1 316.39 432.91 317.38 C 431.99 317.8 431.04 318.19 430.07 318.52 C 426.86 319.64 423.47 320.2 420 320.2 C 414.87 320.2 409.78 318.92 405.28 316.51 C 395.11 311.07 388.8 300.53 388.8 289 C 388.8 288.24 388.82 287.65 388.87 287.12 C 389.62 274.1 398.56 262.83 411.09 259.1 C 413.94 258.24 416.94 257.8 420 257.8 C 425.36 257.8 430.63 259.18 435.25 261.79 C 445.09 267.3 451.2 277.73 451.2 289 Z M 417.01 272.8 L 415.54 271.12 C 413.04 273.3 411.1 275.62 408.83 279.11 L 410.7 280.33 C 412.85 277.01 414.68 274.84 417.01 272.8 Z M 413.62 287.25 L 412.9 289.35 C 418.01 291.11 422.48 293.92 426.95 298.18 L 428.49 296.56 C 423.78 292.07 419.05 289.11 413.62 287.25 Z M 428.52 274.14 C 432.7 280.52 435.06 287.52 435.52 294.95 L 433.29 295.09 C 432.85 288.05 430.62 281.41 426.66 275.37 Z" fill="#ffffff" stroke="none" pointer-events="all" style="fill: light-dark(rgb(255, 255, 255), rgb(18, 18, 18));"/></g><g><g fill="#232F3E" font-family="Helvetica" text-anchor="end" font-size="18px" style="fill: light-dark(rgb(35, 47, 62), rgb(189, 199, 212));"><text x="379" y="245">CloudFront</text></g></g></g><g data-cell-id="H2fNjRapKjcZLar6XIbd-15"><g transform="translate(0.5,0.5)"><path d="M 501 570 L 579 570 L 579 648 L 501 648 Z" fill="#e7157b" stroke="none" pointer-events="all" style="fill: light-dark(rgb(231, 21, 123), rgb(255, 129, 217));"/><path d="M 513.34 606.73 C 514.59 606.73 515.61 607.75 515.61 609 C 515.61 610.25 514.59 611.27 513.34 611.27 C 512.09 611.27 511.07 610.25 511.07 609 C 511.07 607.75 512.09 606.73 513.34 606.73 Z M 540.57 636.23 C 527.31 636.23 515.94 626.55 513.56 613.52 C 515.57 613.42 517.23 612.02 517.71 610.13 L 524.68 610.13 L 524.68 607.87 L 517.71 607.87 C 517.23 605.98 515.57 604.58 513.56 604.48 C 515.93 591.65 527.53 581.77 540.57 581.77 C 545.46 581.77 550.59 583.61 555.8 587.24 L 557.1 585.38 C 551.5 581.48 545.93 579.5 540.57 579.5 C 526.12 579.5 513.28 590.69 511.14 605.05 C 509.75 605.83 508.8 607.3 508.8 609 C 508.8 610.7 509.75 612.17 511.14 612.95 C 513.3 627.54 525.88 638.5 540.57 638.5 C 546.7 638.5 552.98 636.41 558.25 632.61 L 556.92 630.77 C 552.04 634.29 546.23 636.23 540.57 636.23 Z M 528.2 604.96 C 530.31 605.48 532.94 605.6 534.89 605.6 C 536.76 605.6 539.23 605.49 541.28 605.04 L 536.15 615.3 C 536.07 615.46 536.03 615.63 536.03 615.81 L 536.03 620.86 C 535.12 621.44 533.57 622.4 532.63 622.6 L 532.63 615.81 C 532.63 615.66 532.6 615.51 532.54 615.37 Z M 534.89 601.06 C 539.46 601.06 541.9 601.74 542.66 602.19 C 541.9 602.64 539.46 603.33 534.89 603.33 C 530.33 603.33 527.89 602.64 527.13 602.19 C 527.89 601.74 530.33 601.06 534.89 601.06 Z M 531.49 624.88 L 532.63 624.88 C 532.67 624.88 532.72 624.88 532.77 624.87 C 534.16 624.69 535.93 623.62 537.47 622.63 L 537.77 622.44 C 538.1 622.23 538.3 621.87 538.3 621.48 L 538.3 616.08 L 544.61 603.46 C 544.92 603.1 545.11 602.69 545.11 602.19 C 545.11 599.23 538.71 598.79 534.89 598.79 C 531.08 598.79 524.68 599.23 524.68 602.19 C 524.68 602.61 524.82 602.97 525.05 603.29 L 530.36 616.03 L 530.36 623.75 C 530.36 624.38 530.86 624.88 531.49 624.88 Z M 564.39 623.75 C 565.64 623.75 566.66 624.77 566.66 626.02 C 566.66 627.27 565.64 628.29 564.39 628.29 C 563.14 628.29 562.12 627.27 562.12 626.02 C 562.12 624.77 563.14 623.75 564.39 623.75 Z M 564.39 589.71 C 565.64 589.71 566.66 590.73 566.66 591.98 C 566.66 593.23 565.64 594.25 564.39 594.25 C 563.14 594.25 562.12 593.23 562.12 591.98 C 562.12 590.73 563.14 589.71 564.39 589.71 Z M 566.66 606.73 C 567.91 606.73 568.93 607.75 568.93 609 C 568.93 610.25 567.91 611.27 566.66 611.27 C 565.41 611.27 564.39 610.25 564.39 609 C 564.39 607.75 565.41 606.73 566.66 606.73 Z M 555.32 610.13 L 562.29 610.13 C 562.79 612.09 564.55 613.54 566.66 613.54 C 569.16 613.54 571.2 611.5 571.2 609 C 571.2 606.5 569.16 604.46 566.66 604.46 C 564.55 604.46 562.79 605.91 562.29 607.87 L 555.32 607.87 L 555.32 593.12 L 560.02 593.12 C 560.52 595.07 562.28 596.52 564.39 596.52 C 566.9 596.52 568.93 594.48 568.93 591.98 C 568.93 589.48 566.9 587.44 564.39 587.44 C 562.28 587.44 560.52 588.9 560.02 590.85 L 554.18 590.85 C 553.55 590.85 553.05 591.36 553.05 591.98 L 553.05 607.87 L 545.11 607.87 L 545.11 610.13 L 553.05 610.13 L 553.05 626.02 C 553.05 626.64 553.55 627.15 554.18 627.15 L 560.02 627.15 C 560.52 629.1 562.28 630.56 564.39 630.56 C 566.9 630.56 568.93 628.52 568.93 626.02 C 568.93 623.52 566.9 621.48 564.39 621.48 C 562.28 621.48 560.52 622.93 560.02 624.88 L 555.32 624.88 Z" fill="#ffffff" stroke="none" pointer-events="all" style="fill: light-dark(rgb(255, 255, 255), rgb(18, 18, 18));"/></g><g><g fill="#232F3E" font-family="Helvetica" text-anchor="middle" font-size="17px" style="fill: light-dark(rgb(35, 47, 62), rgb(189, 199, 212));"><text x="540" y="671">SNS</text></g></g></g><g data-cell-id="H2fNjRapKjcZLar6XIbd-19"><g transform="translate(0.5,0.5)"><rect x="741" y="424.5" width="78" height="49" fill="none" stroke="none" pointer-events="all"/><path d="M 793.26 448.88 L 815.45 430.61 L 815.45 467.37 Z M 769.52 451.18 L 780 459.8 L 790.48 451.18 L 812.54 469.56 L 747.46 469.56 Z M 766.73 448.88 L 744.55 467.37 L 744.55 430.61 Z M 780 455.21 L 747.49 428.44 L 812.51 428.44 Z M 741 426.04 L 741 471.96 C 741 472.6 741.51 473.11 742.15 473.11 L 817.85 473.11 C 818.49 473.11 819 472.6 819 471.96 L 819 426.04 C 819 425.4 818.49 424.89 817.85 424.89 L 742.15 424.89 C 741.51 424.89 741 425.4 741 426.04 Z" fill="#232f3d" stroke="none" pointer-events="all" style="fill: light-dark(rgb(35, 47, 61), rgb(190, 200, 212));"/></g><g><g fill="#232F3E" font-family="Helvetica" text-anchor="middle" font-size="18px" style="fill: light-dark(rgb(35, 47, 62), rgb(189, 199, 212));"><text x="780" y="497.5">Email</text></g></g></g><g data-cell-id="HFJM1gJeS1aWMsCjSJut-4"><g transform="translate(0.5,0.5)"><rect x="390" y="589" width="60" height="40" fill="#ffffff" stroke="none" pointer-events="all" style="fill: light-dark(rgb(255, 255, 255), rgb(18, 18, 18));"/></g></g><g data-cell-id="HFJM1gJeS1aWMsCjSJut-5"><g transform="translate(0.5,0.5)"><rect x="400" y="590" width="40" height="40" fill="none" stroke="none" pointer-events="all"/><path d="M 403.29 626.82 L 411.25 626.82 C 411.75 626.82 412.15 626.41 412.15 625.91 L 412.15 608.41 C 412.15 607.91 411.75 607.5 411.25 607.5 L 403.29 607.5 C 402.79 607.5 402.39 607.91 402.39 608.41 L 402.39 625.91 C 402.39 626.41 402.79 626.82 403.29 626.82 Z M 404.2 625.01 L 404.2 609.31 L 410.34 609.31 L 410.34 625.01 Z M 416.02 626.82 L 423.98 626.82 C 424.48 626.82 424.88 626.41 424.88 625.91 L 424.88 612.39 C 424.88 611.89 424.48 611.48 423.98 611.48 L 416.02 611.48 C 415.52 611.48 415.12 611.89 415.12 612.39 L 415.12 625.91 C 415.12 626.41 415.52 626.82 416.02 626.82 Z M 416.93 625.01 L 416.93 613.29 L 423.07 613.29 L 423.07 625.01 Z M 400.11 630 L 439.89 630 L 439.89 628.19 L 400.11 628.19 Z M 432.73 602.95 C 436.3 602.95 439.2 600.04 439.2 596.47 C 439.2 592.9 436.3 590 432.73 590 C 429.16 590 426.25 592.9 426.25 596.47 C 426.25 600.04 429.16 602.95 432.73 602.95 Z M 432.73 591.81 C 435.3 591.81 437.39 593.9 437.39 596.47 C 437.39 599.05 435.3 601.14 432.73 601.14 C 430.16 601.14 428.07 599.05 428.07 596.47 C 428.07 593.9 430.16 591.81 432.73 591.81 Z M 436.32 604 C 434.06 605.07 431.4 605.07 429.14 604 C 428.86 603.86 428.53 603.88 428.27 604.05 C 428 604.21 427.85 604.5 427.85 604.81 L 427.85 625.91 C 427.85 626.41 428.25 626.82 428.75 626.82 L 436.71 626.82 C 437.21 626.82 437.61 626.41 437.61 625.91 L 437.61 604.81 C 437.61 604.5 437.45 604.21 437.19 604.05 C 436.93 603.88 436.6 603.86 436.32 604 Z M 435.8 625.01 L 429.66 625.01 L 429.66 606.14 C 431.63 606.77 433.82 606.77 435.8 606.14 Z" fill="#e7157b" stroke="none" pointer-events="all" style="fill: light-dark(rgb(231, 21, 123), rgb(255, 129, 217));"/></g><g><g fill="#232F3E" font-family="Helvetica" text-anchor="middle" font-size="18px" style="fill: light-dark(rgb(35, 47, 62), rgb(189, 199, 212));"><text x="420" y="654">Alarm</text></g></g></g><g data-cell-id="HFJM1gJeS1aWMsCjSJut-8"><g transform="translate(0.5,0.5)"><path d="M 91.12 289 L 369.88 289" fill="none" stroke="#545b64" stroke-miterlimit="10" pointer-events="stroke" style="stroke: light-dark(rgb(84, 91, 100), rgb(154, 160, 168));"/><path d="M 81.12 289 L 91.12 284 L 91.12 294 Z" fill="#545b64" stroke="#545b64" stroke-miterlimit="10" pointer-events="all" style="fill: light-dark(rgb(84, 91, 100), rgb(154, 160, 168)); stroke: light-dark(rgb(84, 91, 100), rgb(154, 160, 168));"/><path d="M 379.88 289 L 369.88 294 L 369.88 284 Z" fill="#545b64" stroke="#545b64" stroke-miterlimit="10" pointer-events="all" style="fill: light-dark(rgb(84, 91, 100), rgb(154, 160, 168)); stroke: light-dark(rgb(84, 91, 100), rgb(154, 160, 168));"/></g></g><g data-cell-id="HFJM1gJeS1aWMsCjSJut-9"><g transform="translate(0.5,0.5)"><path d="M 470.12 289 L 610.88 289" fill="none" stroke="#545b64" stroke-miterlimit="10" pointer-events="stroke" style="stroke: light-dark(rgb(84, 91, 100), rgb(154, 160, 168));"/><path d="M 460.12 289 L 470.12 284 L 470.12 294 Z" fill="#545b64" stroke="#545b64" stroke-miterlimit="10" pointer-events="all" style="fill: light-dark(rgb(84, 91, 100), rgb(154, 160, 168)); stroke: light-dark(rgb(84, 91, 100), rgb(154, 160, 168));"/><path d="M 620.88 289 L 610.88 294 L 610.88 284 Z" fill="#545b64" stroke="#545b64" stroke-miterlimit="10" pointer-events="all" style="fill: light-dark(rgb(84, 91, 100), rgb(154, 160, 168)); stroke: light-dark(rgb(84, 91, 100), rgb(154, 160, 168));"/></g></g><g data-cell-id="HFJM1gJeS1aWMsCjSJut-10"><g transform="translate(0.5,0.5)"><path d="M 308.61 402.97 L 391.89 335.03" fill="none" stroke="#545b64" stroke-miterlimit="10" pointer-events="stroke" style="stroke: light-dark(rgb(84, 91, 100), rgb(154, 160, 168));"/><path d="M 300.87 409.29 L 305.45 399.1 L 311.78 406.85 Z" fill="#545b64" stroke="#545b64" stroke-miterlimit="10" pointer-events="all" style="fill: light-dark(rgb(84, 91, 100), rgb(154, 160, 168)); stroke: light-dark(rgb(84, 91, 100), rgb(154, 160, 168));"/><path d="M 399.63 328.71 L 395.05 338.9 L 388.72 331.15 Z" fill="#545b64" stroke="#545b64" stroke-miterlimit="10" pointer-events="all" style="fill: light-dark(rgb(84, 91, 100), rgb(154, 160, 168)); stroke: light-dark(rgb(84, 91, 100), rgb(154, 160, 168));"/></g></g><g data-cell-id="HFJM1gJeS1aWMsCjSJut-12"><g transform="translate(0.5,0.5)"><path d="M 300 488 L 300 558.88" fill="none" stroke="#545b64" stroke-miterlimit="10" pointer-events="stroke" style="stroke: light-dark(rgb(84, 91, 100), rgb(154, 160, 168));"/><path d="M 300 568.88 L 295 558.88 L 305 558.88 Z" fill="#545b64" stroke="#545b64" stroke-miterlimit="10" pointer-events="all" style="fill: light-dark(rgb(84, 91, 100), rgb(154, 160, 168)); stroke: light-dark(rgb(84, 91, 100), rgb(154, 160, 168));"/></g></g><g data-cell-id="HFJM1gJeS1aWMsCjSJut-13"><g transform="translate(0.5,0.5)"><path d="M 540 570 L 539.57 500.12" fill="none" stroke="#545b64" stroke-miterlimit="10" pointer-events="stroke" style="stroke: light-dark(rgb(84, 91, 100), rgb(154, 160, 168));"/><path d="M 539.51 490.12 L 544.57 500.09 L 534.57 500.15 Z" fill="#545b64" stroke="#545b64" stroke-miterlimit="10" pointer-events="all" style="fill: light-dark(rgb(84, 91, 100), rgb(154, 160, 168)); stroke: light-dark(rgb(84, 91, 100), rgb(154, 160, 168));"/></g></g><g data-cell-id="HFJM1gJeS1aWMsCjSJut-15"><g transform="translate(0.5,0.5)"><path d="M 579 570 L 731.47 478.21" fill="none" stroke="#545b64" stroke-miterlimit="10" pointer-events="stroke" style="stroke: light-dark(rgb(84, 91, 100), rgb(154, 160, 168));"/><path d="M 740.04 473.05 L 734.05 482.5 L 728.9 473.93 Z" fill="#545b64" stroke="#545b64" stroke-miterlimit="10" pointer-events="all" style="fill: light-dark(rgb(84, 91, 100), rgb(154, 160, 168)); stroke: light-dark(rgb(84, 91, 100), rgb(154, 160, 168));"/></g></g><g data-cell-id="HFJM1gJeS1aWMsCjSJut-16"><g transform="translate(0.5,0.5)"><path d="M 448.11 242.97 L 531.39 175.03" fill="none" stroke="#545b64" stroke-miterlimit="10" pointer-events="stroke" style="stroke: light-dark(rgb(84, 91, 100), rgb(154, 160, 168));"/><path d="M 440.37 249.29 L 444.95 239.1 L 451.28 246.85 Z" fill="#545b64" stroke="#545b64" stroke-miterlimit="10" pointer-events="all" style="fill: light-dark(rgb(84, 91, 100), rgb(154, 160, 168)); stroke: light-dark(rgb(84, 91, 100), rgb(154, 160, 168));"/><path d="M 539.13 168.71 L 534.55 178.9 L 528.22 171.15 Z" fill="#545b64" stroke="#545b64" stroke-miterlimit="10" pointer-events="all" style="fill: light-dark(rgb(84, 91, 100), rgb(154, 160, 168)); stroke: light-dark(rgb(84, 91, 100), rgb(154, 160, 168));"/></g></g><g data-cell-id="HFJM1gJeS1aWMsCjSJut-18"><g transform="translate(0.5,0.5)"><rect x="750" y="740" width="160" height="40" fill="none" stroke="none" pointer-events="all"/></g><g><g fill="#000000" font-family="Helvetica" text-anchor="end" font-size="12px" style="fill: light-dark(rgb(0, 0, 0), rgb(255, 255, 255));"><text x="904" y="758">Author: M.Glavitsch</text><text x="904" y="772">Last update: Oct 23, 2025</text></g></g></g><g data-cell-id="HFJM1gJeS1aWMsCjSJut-17"><g transform="translate(0.5,0.5)"><rect x="743" y="170" width="200" height="50" fill="none" stroke="none" pointer-events="all"/></g><g><g fill="#000000" font-family="Helvetica" font-size="16px" style="fill: light-dark(rgb(0, 0, 0), rgb(255, 255, 255));"><text x="745" y="192.5">IAM Roles</text><text x="745" y="211.5">Permission Policies</text></g></g></g><g data-cell-id="HFJM1gJeS1aWMsCjSJut-14"><g transform="translate(0.5,0.5)"><path d="M 539.5 410 L 448.1 335.05" fill="none" stroke="#545b64" stroke-miterlimit="10" pointer-events="stroke" style="stroke: light-dark(rgb(84, 91, 100), rgb(154, 160, 168));"/><path d="M 440.36 328.71 L 451.27 331.18 L 444.93 338.92 Z" fill="#545b64" stroke="#545b64" stroke-miterlimit="10" pointer-events="all" style="fill: light-dark(rgb(84, 91, 100), rgb(154, 160, 168)); stroke: light-dark(rgb(84, 91, 100), rgb(154, 160, 168));"/></g><g><g fill="#000000" font-family="Helvetica" text-anchor="middle" font-size="16px" style="fill: light-dark(rgb(0, 0, 0), rgb(255, 255, 255));"><rect fill="#FFFFFF" stroke="none" x="451" y="351" width="79" height="39" stroke-width="0" style="fill: light-dark(rgb(255, 255, 255), rgb(18, 18, 18));"/><text x="490.01" y="366.92">controls</text><text x="490.01" y="385.92">distribution</text></g></g></g><g data-cell-id="H2fNjRapKjcZLar6XIbd-5"><g transform="translate(0.5,0.5)"><path d="M 501 90 L 579 90 L 579 168 L 501 168 Z" fill="#dd344c" stroke="none" pointer-events="all" style="fill: light-dark(rgb(221, 52, 76), rgb(255, 127, 147));"/><path d="M 535.2 128.2 C 535.48 128.47 535.6 128.86 535.52 129.24 L 534.38 134.48 L 539.42 131.39 C 539.77 131.17 540.23 131.17 540.58 131.39 L 545.59 134.48 L 544.48 129.22 C 544.4 128.85 544.52 128.46 544.79 128.2 L 549.29 123.79 L 543.42 122.94 C 543.06 122.89 542.74 122.66 542.58 122.33 L 539.99 117.02 L 537.34 122.34 C 537.18 122.67 536.86 122.89 536.5 122.95 L 530.65 123.8 Z M 531.64 136.56 L 533.21 129.37 L 527.47 123.83 C 527.16 123.53 527.05 123.09 527.18 122.69 C 527.31 122.28 527.66 121.99 528.08 121.93 L 535.6 120.83 L 539 114.01 C 539.19 113.63 539.55 113.37 540 113.39 C 540.43 113.39 540.81 113.64 541 114.02 L 544.33 120.82 L 551.84 121.91 C 552.26 121.97 552.61 122.26 552.74 122.66 C 552.87 123.07 552.76 123.51 552.46 123.81 L 546.79 129.36 L 548.31 136.56 C 548.4 137 548.22 137.44 547.86 137.7 C 547.49 137.96 547.01 137.97 546.63 137.74 L 540 133.65 L 533.31 137.75 C 533.13 137.86 532.93 137.91 532.73 137.91 C 532.5 137.91 532.28 137.85 532.09 137.71 C 531.72 137.45 531.55 137 531.64 136.56 Z M 511.03 107.85 L 568.97 107.85 L 568.97 102.26 L 511.03 102.26 Z M 571.2 101.14 L 571.2 156.86 C 571.2 157.47 570.7 157.97 570.09 157.97 L 563.4 157.97 L 563.4 155.74 L 568.97 155.74 L 568.97 110.08 L 511.03 110.08 L 511.03 155.74 L 553.37 155.74 L 553.37 157.97 L 509.91 157.97 C 509.3 157.97 508.8 157.47 508.8 156.86 L 508.8 101.14 C 508.8 100.53 509.3 100.03 509.91 100.03 L 570.09 100.03 C 570.7 100.03 571.2 100.53 571.2 101.14 Z M 522.17 150.17 L 528.86 150.17 L 528.86 147.94 L 522.17 147.94 Z M 533.31 150.17 L 548.91 150.17 L 548.91 147.94 L 533.31 147.94 Z M 522.17 144.6 L 528.86 144.6 L 528.86 142.37 L 522.17 142.37 Z M 533.31 144.6 L 557.83 144.6 L 557.83 142.37 L 533.31 142.37 Z" fill="#ffffff" stroke="none" pointer-events="all" style="fill: light-dark(rgb(255, 255, 255), rgb(18, 18, 18));"/></g><g><g fill="#232F3E" font-family="Helvetica" text-anchor="middle" font-size="18px" style="fill: light-dark(rgb(35, 47, 62), rgb(189, 199, 212));"><text x="540" y="63">Certificate</text><text x="540" y="85">Manager</text></g></g></g><g data-cell-id="SvVcy9G818gmS4jsLhIc-5"><g transform="translate(0.5,0.5)"><path d="M 89.38 257.61 L 251.62 154.46" fill="none" stroke="#545b64" stroke-miterlimit="10" pointer-events="stroke" style="stroke: light-dark(rgb(84, 91, 100), rgb(154, 160, 168));"/><path d="M 80.94 262.97 L 86.7 253.39 L 92.06 261.82 Z" fill="#545b64" stroke="#545b64" stroke-miterlimit="10" pointer-events="all" style="fill: light-dark(rgb(84, 91, 100), rgb(154, 160, 168)); stroke: light-dark(rgb(84, 91, 100), rgb(154, 160, 168));"/><path d="M 260.06 149.1 L 254.3 158.68 L 248.94 150.25 Z" fill="#545b64" stroke="#545b64" stroke-miterlimit="10" pointer-events="all" style="fill: light-dark(rgb(84, 91, 100), rgb(154, 160, 168)); stroke: light-dark(rgb(84, 91, 100), rgb(154, 160, 168));"/></g></g></g></g></g></svg>