<?xml version="1.0" encoding="UTF-8"?>
<!-- Do not edit this file with editors other than draw.io -->
<!DOCTYPE svg PUBLIC "-//W3C//DTD SVG 1.1//EN" "http://www.w3.org/Graphics/SVG/1.1/DTD/svg11.dtd">
<svg xmlns="http://www.w3.org/2000/svg" style="background: #ffffff; background-color: light-dark(#ffffff, var(--ge-dark-color, #121212)); color-scheme: light dark;" xmlns:xlink="http://www.w3.org/1999/xlink" version="1.1" width="981px" height="711px" viewBox="-0.5 -0.5 981 711" content="&lt;mxfile host=&quot;app.diagrams.net&quot; agent=&quot;Mozilla/5.0 (Macintosh; Intel Mac OS X 10_15_7) AppleWebKit/537.36 (KHTML, like Gecko) Chrome/141.0.0.0 Safari/537.36&quot; scale=&quot;1&quot; border=&quot;0&quot; version=&quot;28.2.5&quot;&gt;&#10;  &lt;diagram name=&quot;Page-1&quot; id=&quot;pVIxcW2xZ3lmXTLjTOgz&quot;&gt;&#10;    &lt;mxGraphModel dx=&quot;1125&quot; dy=&quot;1056&quot; grid=&quot;1&quot; gridSize=&quot;10&quot; guides=&quot;1&quot; tooltips=&quot;1&quot; connect=&quot;1&quot; arrows=&quot;1&quot; fold=&quot;1&quot; page=&quot;1&quot; pageScale=&quot;1&quot; pageWidth=&quot;1169&quot; pageHeight=&quot;827&quot; math=&quot;0&quot; shadow=&quot;0&quot;&gt;&#10;      &lt;root&gt;&#10;        &lt;mxCell id=&quot;0&quot; /&gt;&#10;        &lt;mxCell id=&quot;1&quot; parent=&quot;0&quot; /&gt;&#10;        &lt;mxCell id=&quot;H2fNjRapKjcZLar6XIbd-1&quot; value=&quot;AWS Cloud&quot; style=&quot;points=[[0,0],[0.25,0],[0.5,0],[0.75,0],[1,0],[1,0.25],[1,0.5],[1,0.75],[1,1],[0.75,1],[0.5,1],[0.25,1],[0,1],[0,0.75],[0,0.5],[0,0.25]];outlineConnect=0;gradientColor=none;whiteSpace=wrap;fontSize=18;fontStyle=0;container=1;pointerEvents=0;collapsible=0;recursiveResize=0;shape=mxgraph.aws4.group;grIcon=mxgraph.aws4.group_aws_cloud_alt;strokeColor=#232F3E;fillColor=#FFFFFF;verticalAlign=top;align=left;spacingLeft=30;fontColor=#232F3E;dashed=0;convertToSvg=1;fillStyle=solid;&quot; parent=&quot;1&quot; vertex=&quot;1&quot;&gt;&#10;          &lt;mxGeometry x=&quot;80&quot; y=&quot;40&quot; width=&quot;980&quot; height=&quot;710&quot; as=&quot;geometry&quot; /&gt;&#10;        &lt;/mxCell&gt;&#10;        &lt;mxCell id=&quot;HFJM1gJeS1aWMsCjSJut-6&quot; value=&quot;&quot; style=&quot;edgeStyle=orthogonalEdgeStyle;endArrow=block;elbow=vertical;startArrow=none;startFill=0;endFill=1;strokeColor=#545B64;rounded=0;exitX=1;exitY=0.5;exitDx=0;exitDy=0;exitPerimeter=0;strokeWidth=1;endSize=9;startSize=9;entryX=0;entryY=0.5;entryDx=0;entryDy=0;entryPerimeter=0;convertToSvg=1;&quot; parent=&quot;H2fNjRapKjcZLar6XIbd-1&quot; source=&quot;H2fNjRapKjcZLar6XIbd-8&quot; target=&quot;H2fNjRapKjcZLar6XIbd-15&quot; edge=&quot;1&quot;&gt;&#10;          &lt;mxGeometry width=&quot;100&quot; relative=&quot;1&quot; as=&quot;geometry&quot;&gt;&#10;            &lt;mxPoint x=&quot;823&quot; y=&quot;590&quot; as=&quot;sourcePoint&quot; /&gt;&#10;            &lt;mxPoint x=&quot;661&quot; y=&quot;590&quot; as=&quot;targetPoint&quot; /&gt;&#10;            &lt;Array as=&quot;points&quot;&gt;&#10;              &lt;mxPoint x=&quot;501&quot; y=&quot;599&quot; /&gt;&#10;              &lt;mxPoint x=&quot;501&quot; y=&quot;599&quot; /&gt;&#10;            &lt;/Array&gt;&#10;          &lt;/mxGeometry&gt;&#10;        &lt;/mxCell&gt;&#10;        &lt;mxCell id=&quot;H2fNjRapKjcZLar6XIbd-16&quot; value=&quot;&quot; style=&quot;edgeStyle=orthogonalEdgeStyle;endArrow=block;elbow=vertical;startArrow=none;startFill=0;endFill=1;strokeColor=#545B64;rounded=0;exitX=0;exitY=0.5;exitDx=0;exitDy=0;exitPerimeter=0;strokeWidth=1;endSize=9;startSize=9;convertToSvg=1;&quot; parent=&quot;H2fNjRapKjcZLar6XIbd-1&quot; source=&quot;H2fNjRapKjcZLar6XIbd-11&quot; edge=&quot;1&quot;&gt;&#10;          &lt;mxGeometry width=&quot;100&quot; relative=&quot;1&quot; as=&quot;geometry&quot;&gt;&#10;            &lt;mxPoint x=&quot;261&quot; y=&quot;500&quot; as=&quot;sourcePoint&quot; /&gt;&#10;            &lt;mxPoint x=&quot;639&quot; y=&quot;599&quot; as=&quot;targetPoint&quot; /&gt;&#10;            &lt;Array as=&quot;points&quot; /&gt;&#10;          &lt;/mxGeometry&gt;&#10;        &lt;/mxCell&gt;&#10;        &lt;mxCell id=&quot;HFJM1gJeS1aWMsCjSJut-3&quot; value=&quot;&quot; style=&quot;rounded=0;whiteSpace=wrap;strokeColor=none;convertToSvg=1;fillStyle=solid;fillColor=#FFFFFF;&quot; parent=&quot;H2fNjRapKjcZLar6XIbd-1&quot; vertex=&quot;1&quot;&gt;&#10;          &lt;mxGeometry x=&quot;691&quot; y=&quot;580&quot; width=&quot;60&quot; height=&quot;40&quot; as=&quot;geometry&quot; /&gt;&#10;        &lt;/mxCell&gt;&#10;        &lt;mxCell id=&quot;H2fNjRapKjcZLar6XIbd-18&quot; value=&quot;Alert&quot; style=&quot;sketch=0;outlineConnect=0;fontColor=#232F3E;gradientColor=none;fillColor=#E7157B;strokeColor=none;dashed=0;verticalLabelPosition=bottom;verticalAlign=top;align=center;fontSize=18;fontStyle=0;aspect=fixed;pointerEvents=1;shape=mxgraph.aws4.alarm;convertToSvg=1;&quot; parent=&quot;H2fNjRapKjcZLar6XIbd-1&quot; vertex=&quot;1&quot;&gt;&#10;          &lt;mxGeometry x=&quot;701&quot; y=&quot;579&quot; width=&quot;40&quot; height=&quot;40&quot; as=&quot;geometry&quot; /&gt;&#10;        &lt;/mxCell&gt;&#10;        &lt;mxCell id=&quot;H2fNjRapKjcZLar6XIbd-2&quot; value=&quot;Devices&quot; style=&quot;sketch=0;outlineConnect=0;gradientColor=none;fontColor=#545B64;strokeColor=none;fillColor=#879196;dashed=0;verticalLabelPosition=top;verticalAlign=bottom;align=center;fontSize=18;fontStyle=0;aspect=fixed;shape=mxgraph.aws4.illustration_devices;pointerEvents=1;labelPosition=center;convertToSvg=1;&quot; parent=&quot;H2fNjRapKjcZLar6XIbd-1&quot; vertex=&quot;1&quot;&gt;&#10;          &lt;mxGeometry x=&quot;81&quot; y=&quot;249&quot; width=&quot;80&quot; height=&quot;58.4&quot; as=&quot;geometry&quot; /&gt;&#10;        &lt;/mxCell&gt;&#10;        &lt;mxCell id=&quot;H2fNjRapKjcZLar6XIbd-3&quot; value=&quot;WAF&quot; style=&quot;sketch=0;points=[[0,0,0],[0.25,0,0],[0.5,0,0],[0.75,0,0],[1,0,0],[0,1,0],[0.25,1,0],[0.5,1,0],[0.75,1,0],[1,1,0],[0,0.25,0],[0,0.5,0],[0,0.75,0],[1,0.25,0],[1,0.5,0],[1,0.75,0]];outlineConnect=0;fontColor=#232F3E;fillColor=#DD344C;strokeColor=#ffffff;dashed=0;verticalLabelPosition=middle;verticalAlign=middle;align=left;fontSize=18;fontStyle=0;aspect=fixed;shape=mxgraph.aws4.resourceIcon;resIcon=mxgraph.aws4.waf;labelPosition=right;spacingLeft=5;convertToSvg=1;&quot; parent=&quot;H2fNjRapKjcZLar6XIbd-1&quot; vertex=&quot;1&quot;&gt;&#10;          &lt;mxGeometry x=&quot;321&quot; y=&quot;400&quot; width=&quot;78&quot; height=&quot;78&quot; as=&quot;geometry&quot; /&gt;&#10;        &lt;/mxCell&gt;&#10;        &lt;mxCell id=&quot;H2fNjRapKjcZLar6XIbd-4&quot; value=&quot;IAM&quot; style=&quot;sketch=0;points=[[0,0,0],[0.25,0,0],[0.5,0,0],[0.75,0,0],[1,0,0],[0,1,0],[0.25,1,0],[0.5,1,0],[0.75,1,0],[1,1,0],[0,0.25,0],[0,0.5,0],[0,0.75,0],[1,0.25,0],[1,0.5,0],[1,0.75,0]];outlineConnect=0;fontColor=#232F3E;fillColor=#DD344C;strokeColor=#ffffff;dashed=0;verticalLabelPosition=top;verticalAlign=bottom;align=center;fontSize=18;fontStyle=0;aspect=fixed;shape=mxgraph.aws4.resourceIcon;resIcon=mxgraph.aws4.identity_and_access_management;labelPosition=center;convertToSvg=1;&quot; parent=&quot;H2fNjRapKjcZLar6XIbd-1&quot; vertex=&quot;1&quot;&gt;&#10;          &lt;mxGeometry x=&quot;682&quot; y=&quot;80&quot; width=&quot;78&quot; height=&quot;78&quot; as=&quot;geometry&quot; /&gt;&#10;        &lt;/mxCell&gt;&#10;        &lt;mxCell id=&quot;H2fNjRapKjcZLar6XIbd-6&quot; value=&quot;S3 Standard&quot; style=&quot;sketch=0;points=[[0,0,0],[0.25,0,0],[0.5,0,0],[0.75,0,0],[1,0,0],[0,1,0],[0.25,1,0],[0.5,1,0],[0.75,1,0],[1,1,0],[0,0.25,0],[0,0.5,0],[0,0.75,0],[1,0.25,0],[1,0.5,0],[1,0.75,0]];outlineConnect=0;fontColor=#232F3E;fillColor=#7AA116;strokeColor=#ffffff;dashed=0;verticalLabelPosition=top;verticalAlign=bottom;align=center;fontSize=18;fontStyle=0;aspect=fixed;shape=mxgraph.aws4.resourceIcon;resIcon=mxgraph.aws4.s3;labelPosition=center;convertToSvg=1;&quot; parent=&quot;H2fNjRapKjcZLar6XIbd-1&quot; vertex=&quot;1&quot;&gt;&#10;          &lt;mxGeometry x=&quot;682&quot; y=&quot;240&quot; width=&quot;78&quot; height=&quot;78&quot; as=&quot;geometry&quot; /&gt;&#10;        &lt;/mxCell&gt;&#10;        &lt;mxCell id=&quot;H2fNjRapKjcZLar6XIbd-7&quot; value=&quot;Lambda&quot; style=&quot;sketch=0;points=[[0,0,0],[0.25,0,0],[0.5,0,0],[0.75,0,0],[1,0,0],[0,1,0],[0.25,1,0],[0.5,1,0],[0.75,1,0],[1,1,0],[0,0.25,0],[0,0.5,0],[0,0.75,0],[1,0.25,0],[1,0.5,0],[1,0.75,0]];outlineConnect=0;fontColor=#232F3E;fillColor=#ED7100;strokeColor=#ffffff;dashed=0;verticalLabelPosition=middle;verticalAlign=middle;align=left;fontSize=18;fontStyle=0;aspect=fixed;shape=mxgraph.aws4.resourceIcon;resIcon=mxgraph.aws4.lambda;labelPosition=right;spacingLeft=5;convertToSvg=1;&quot; parent=&quot;H2fNjRapKjcZLar6XIbd-1&quot; vertex=&quot;1&quot;&gt;&#10;          &lt;mxGeometry x=&quot;560&quot; y=&quot;400&quot; width=&quot;79&quot; height=&quot;79&quot; as=&quot;geometry&quot; /&gt;&#10;        &lt;/mxCell&gt;&#10;        &lt;mxCell id=&quot;H2fNjRapKjcZLar6XIbd-8&quot; value=&quot;CloudWatch&quot; style=&quot;sketch=0;points=[[0,0,0],[0.25,0,0],[0.5,0,0],[0.75,0,0],[1,0,0],[0,1,0],[0.25,1,0],[0.5,1,0],[0.75,1,0],[1,1,0],[0,0.25,0],[0,0.5,0],[0,0.75,0],[1,0.25,0],[1,0.5,0],[1,0.75,0]];points=[[0,0,0],[0.25,0,0],[0.5,0,0],[0.75,0,0],[1,0,0],[0,1,0],[0.25,1,0],[0.5,1,0],[0.75,1,0],[1,1,0],[0,0.25,0],[0,0.5,0],[0,0.75,0],[1,0.25,0],[1,0.5,0],[1,0.75,0]];outlineConnect=0;fontColor=#232F3E;fillColor=#E7157B;strokeColor=#ffffff;dashed=0;verticalLabelPosition=bottom;verticalAlign=top;align=center;fontSize=18;fontStyle=0;aspect=fixed;shape=mxgraph.aws4.resourceIcon;resIcon=mxgraph.aws4.cloudwatch_2;convertToSvg=1;&quot; parent=&quot;H2fNjRapKjcZLar6XIbd-1&quot; vertex=&quot;1&quot;&gt;&#10;          &lt;mxGeometry x=&quot;321&quot; y=&quot;560&quot; width=&quot;78&quot; height=&quot;78&quot; as=&quot;geometry&quot; /&gt;&#10;        &lt;/mxCell&gt;&#10;        &lt;mxCell id=&quot;H2fNjRapKjcZLar6XIbd-11&quot; value=&quot;Budgets&quot; style=&quot;sketch=0;points=[[0,0,0],[0.25,0,0],[0.5,0,0],[0.75,0,0],[1,0,0],[0,1,0],[0.25,1,0],[0.5,1,0],[0.75,1,0],[1,1,0],[0,0.25,0],[0,0.5,0],[0,0.75,0],[1,0.25,0],[1,0.5,0],[1,0.75,0]];outlineConnect=0;fontColor=#232F3E;fillColor=#7AA116;strokeColor=#ffffff;dashed=0;verticalLabelPosition=bottom;verticalAlign=top;align=center;fontSize=18;fontStyle=0;aspect=fixed;shape=mxgraph.aws4.resourceIcon;resIcon=mxgraph.aws4.budgets_2;convertToSvg=1;&quot; parent=&quot;H2fNjRapKjcZLar6XIbd-1&quot; vertex=&quot;1&quot;&gt;&#10;          &lt;mxGeometry x=&quot;801&quot; y=&quot;559&quot; width=&quot;80&quot; height=&quot;80&quot; as=&quot;geometry&quot; /&gt;&#10;        &lt;/mxCell&gt;&#10;        &lt;mxCell id=&quot;H2fNjRapKjcZLar6XIbd-12&quot; value=&quot;Route 53&quot; style=&quot;sketch=0;points=[[0,0,0],[0.25,0,0],[0.5,0,0],[0.75,0,0],[1,0,0],[0,1,0],[0.25,1,0],[0.5,1,0],[0.75,1,0],[1,1,0],[0,0.25,0],[0,0.5,0],[0,0.75,0],[1,0.25,0],[1,0.5,0],[1,0.75,0]];outlineConnect=0;fontColor=#232F3E;fillColor=#8C4FFF;strokeColor=#ffffff;dashed=0;verticalLabelPosition=bottom;verticalAlign=top;align=center;fontSize=18;fontStyle=0;aspect=fixed;shape=mxgraph.aws4.resourceIcon;resIcon=mxgraph.aws4.route_53;convertToSvg=1;&quot; parent=&quot;H2fNjRapKjcZLar6XIbd-1&quot; vertex=&quot;1&quot;&gt;&#10;          &lt;mxGeometry x=&quot;82&quot; y=&quot;401&quot; width=&quot;78&quot; height=&quot;78&quot; as=&quot;geometry&quot; /&gt;&#10;        &lt;/mxCell&gt;&#10;        &lt;mxCell id=&quot;H2fNjRapKjcZLar6XIbd-13&quot; value=&quot;CloudFront&quot; style=&quot;sketch=0;points=[[0,0,0],[0.25,0,0],[0.5,0,0],[0.75,0,0],[1,0,0],[0,1,0],[0.25,1,0],[0.5,1,0],[0.75,1,0],[1,1,0],[0,0.25,0],[0,0.5,0],[0,0.75,0],[1,0.25,0],[1,0.5,0],[1,0.75,0]];outlineConnect=0;fontColor=#232F3E;fillColor=#8C4FFF;strokeColor=#ffffff;dashed=0;verticalLabelPosition=top;verticalAlign=bottom;align=left;fontSize=18;fontStyle=0;aspect=fixed;shape=mxgraph.aws4.resourceIcon;resIcon=mxgraph.aws4.cloudfront;labelPosition=right;convertToSvg=1;&quot; parent=&quot;H2fNjRapKjcZLar6XIbd-1&quot; vertex=&quot;1&quot;&gt;&#10;          &lt;mxGeometry x=&quot;441&quot; y=&quot;240&quot; width=&quot;78&quot; height=&quot;78&quot; as=&quot;geometry&quot; /&gt;&#10;        &lt;/mxCell&gt;&#10;        &lt;mxCell id=&quot;H2fNjRapKjcZLar6XIbd-15&quot; value=&quot;SNS&quot; style=&quot;sketch=0;points=[[0,0,0],[0.25,0,0],[0.5,0,0],[0.75,0,0],[1,0,0],[0,1,0],[0.25,1,0],[0.5,1,0],[0.75,1,0],[1,1,0],[0,0.25,0],[0,0.5,0],[0,0.75,0],[1,0.25,0],[1,0.5,0],[1,0.75,0]];outlineConnect=0;fontColor=#232F3E;fillColor=#E7157B;strokeColor=#ffffff;dashed=0;verticalLabelPosition=bottom;verticalAlign=top;align=center;fontSize=17;fontStyle=0;aspect=fixed;shape=mxgraph.aws4.resourceIcon;resIcon=mxgraph.aws4.sns;convertToSvg=1;&quot; parent=&quot;H2fNjRapKjcZLar6XIbd-1&quot; vertex=&quot;1&quot;&gt;&#10;          &lt;mxGeometry x=&quot;561&quot; y=&quot;560&quot; width=&quot;78&quot; height=&quot;78&quot; as=&quot;geometry&quot; /&gt;&#10;        &lt;/mxCell&gt;&#10;        &lt;mxCell id=&quot;H2fNjRapKjcZLar6XIbd-19&quot; value=&quot;Email&quot; style=&quot;sketch=0;outlineConnect=0;fontColor=#232F3E;gradientColor=none;fillColor=#232F3D;strokeColor=none;dashed=0;verticalLabelPosition=bottom;verticalAlign=top;align=center;fontSize=18;fontStyle=0;aspect=fixed;pointerEvents=1;shape=mxgraph.aws4.email_2;convertToSvg=1;&quot; parent=&quot;H2fNjRapKjcZLar6XIbd-1&quot; vertex=&quot;1&quot;&gt;&#10;          &lt;mxGeometry x=&quot;801&quot; y=&quot;414.5&quot; width=&quot;78&quot; height=&quot;49&quot; as=&quot;geometry&quot; /&gt;&#10;        &lt;/mxCell&gt;&#10;        &lt;mxCell id=&quot;HFJM1gJeS1aWMsCjSJut-4&quot; value=&quot;&quot; style=&quot;rounded=0;whiteSpace=wrap;strokeColor=none;convertToSvg=1;fillStyle=solid;fillColor=#FFFFFF;&quot; parent=&quot;H2fNjRapKjcZLar6XIbd-1&quot; vertex=&quot;1&quot;&gt;&#10;          &lt;mxGeometry x=&quot;450&quot; y=&quot;579&quot; width=&quot;60&quot; height=&quot;40&quot; as=&quot;geometry&quot; /&gt;&#10;        &lt;/mxCell&gt;&#10;        &lt;mxCell id=&quot;HFJM1gJeS1aWMsCjSJut-5&quot; value=&quot;Alarm&quot; style=&quot;sketch=0;outlineConnect=0;fontColor=#232F3E;gradientColor=none;fillColor=#E7157B;strokeColor=none;dashed=0;verticalLabelPosition=bottom;verticalAlign=top;align=center;fontSize=18;fontStyle=0;aspect=fixed;pointerEvents=1;shape=mxgraph.aws4.alarm;convertToSvg=1;&quot; parent=&quot;H2fNjRapKjcZLar6XIbd-1&quot; vertex=&quot;1&quot;&gt;&#10;          &lt;mxGeometry x=&quot;460&quot; y=&quot;580&quot; width=&quot;40&quot; height=&quot;40&quot; as=&quot;geometry&quot; /&gt;&#10;        &lt;/mxCell&gt;&#10;        &lt;mxCell id=&quot;HFJM1gJeS1aWMsCjSJut-7&quot; value=&quot;&quot; style=&quot;edgeStyle=orthogonalEdgeStyle;endArrow=block;elbow=vertical;startArrow=block;startFill=1;endFill=1;strokeColor=#545B64;rounded=0;strokeWidth=1;endSize=9;startSize=9;exitX=0.5;exitY=0;exitDx=0;exitDy=0;exitPerimeter=0;convertToSvg=1;&quot; parent=&quot;H2fNjRapKjcZLar6XIbd-1&quot; source=&quot;H2fNjRapKjcZLar6XIbd-12&quot; target=&quot;H2fNjRapKjcZLar6XIbd-2&quot; edge=&quot;1&quot;&gt;&#10;          &lt;mxGeometry width=&quot;100&quot; relative=&quot;1&quot; as=&quot;geometry&quot;&gt;&#10;            &lt;mxPoint x=&quot;803&quot; y=&quot;640&quot; as=&quot;sourcePoint&quot; /&gt;&#10;            &lt;mxPoint x=&quot;121&quot; y=&quot;300&quot; as=&quot;targetPoint&quot; /&gt;&#10;            &lt;Array as=&quot;points&quot; /&gt;&#10;          &lt;/mxGeometry&gt;&#10;        &lt;/mxCell&gt;&#10;        &lt;mxCell id=&quot;HFJM1gJeS1aWMsCjSJut-8&quot; value=&quot;&quot; style=&quot;edgeStyle=orthogonalEdgeStyle;endArrow=block;elbow=vertical;startArrow=block;startFill=1;endFill=1;strokeColor=#545B64;rounded=0;strokeWidth=1;endSize=9;startSize=9;entryX=0;entryY=0.5;entryDx=0;entryDy=0;entryPerimeter=0;convertToSvg=1;&quot; parent=&quot;H2fNjRapKjcZLar6XIbd-1&quot; source=&quot;H2fNjRapKjcZLar6XIbd-2&quot; target=&quot;H2fNjRapKjcZLar6XIbd-13&quot; edge=&quot;1&quot;&gt;&#10;          &lt;mxGeometry width=&quot;100&quot; relative=&quot;1&quot; as=&quot;geometry&quot;&gt;&#10;            &lt;mxPoint x=&quot;111&quot; y=&quot;493&quot; as=&quot;sourcePoint&quot; /&gt;&#10;            &lt;mxPoint x=&quot;112&quot; y=&quot;360&quot; as=&quot;targetPoint&quot; /&gt;&#10;            &lt;Array as=&quot;points&quot; /&gt;&#10;          &lt;/mxGeometry&gt;&#10;        &lt;/mxCell&gt;&#10;        &lt;mxCell id=&quot;HFJM1gJeS1aWMsCjSJut-9&quot; value=&quot;&quot; style=&quot;edgeStyle=orthogonalEdgeStyle;endArrow=block;elbow=vertical;startArrow=block;startFill=1;endFill=1;strokeColor=#545B64;rounded=0;strokeWidth=1;endSize=9;startSize=9;entryX=0;entryY=0.5;entryDx=0;entryDy=0;entryPerimeter=0;exitX=1;exitY=0.5;exitDx=0;exitDy=0;exitPerimeter=0;convertToSvg=1;&quot; parent=&quot;H2fNjRapKjcZLar6XIbd-1&quot; source=&quot;H2fNjRapKjcZLar6XIbd-13&quot; target=&quot;H2fNjRapKjcZLar6XIbd-6&quot; edge=&quot;1&quot;&gt;&#10;          &lt;mxGeometry width=&quot;100&quot; relative=&quot;1&quot; as=&quot;geometry&quot;&gt;&#10;            &lt;mxPoint x=&quot;521&quot; y=&quot;279&quot; as=&quot;sourcePoint&quot; /&gt;&#10;            &lt;mxPoint x=&quot;541&quot; y=&quot;361&quot; as=&quot;targetPoint&quot; /&gt;&#10;            &lt;Array as=&quot;points&quot; /&gt;&#10;          &lt;/mxGeometry&gt;&#10;        &lt;/mxCell&gt;&#10;        &lt;mxCell id=&quot;HFJM1gJeS1aWMsCjSJut-10&quot; value=&quot;&quot; style=&quot;endArrow=block;elbow=vertical;startArrow=block;startFill=1;endFill=1;strokeColor=#545B64;rounded=0;strokeWidth=1;endSize=9;startSize=9;entryX=0.25;entryY=1;entryDx=0;entryDy=0;entryPerimeter=0;exitX=0.5;exitY=0;exitDx=0;exitDy=0;exitPerimeter=0;convertToSvg=1;&quot; parent=&quot;H2fNjRapKjcZLar6XIbd-1&quot; source=&quot;H2fNjRapKjcZLar6XIbd-3&quot; target=&quot;H2fNjRapKjcZLar6XIbd-13&quot; edge=&quot;1&quot;&gt;&#10;          &lt;mxGeometry width=&quot;100&quot; relative=&quot;1&quot; as=&quot;geometry&quot;&gt;&#10;            &lt;mxPoint x=&quot;591&quot; y=&quot;240&quot; as=&quot;sourcePoint&quot; /&gt;&#10;            &lt;mxPoint x=&quot;783&quot; y=&quot;240&quot; as=&quot;targetPoint&quot; /&gt;&#10;          &lt;/mxGeometry&gt;&#10;        &lt;/mxCell&gt;&#10;        &lt;mxCell id=&quot;HFJM1gJeS1aWMsCjSJut-12&quot; value=&quot;&quot; style=&quot;endArrow=block;elbow=vertical;startArrow=none;startFill=0;endFill=1;strokeColor=#545B64;rounded=0;strokeWidth=1;endSize=9;startSize=9;entryX=0.5;entryY=0;entryDx=0;entryDy=0;entryPerimeter=0;exitX=0.5;exitY=1;exitDx=0;exitDy=0;exitPerimeter=0;convertToSvg=1;&quot; parent=&quot;H2fNjRapKjcZLar6XIbd-1&quot; source=&quot;H2fNjRapKjcZLar6XIbd-3&quot; target=&quot;H2fNjRapKjcZLar6XIbd-8&quot; edge=&quot;1&quot;&gt;&#10;          &lt;mxGeometry width=&quot;100&quot; relative=&quot;1&quot; as=&quot;geometry&quot;&gt;&#10;            &lt;mxPoint x=&quot;391&quot; y=&quot;472&quot; as=&quot;sourcePoint&quot; /&gt;&#10;            &lt;mxPoint x=&quot;492&quot; y=&quot;350&quot; as=&quot;targetPoint&quot; /&gt;&#10;          &lt;/mxGeometry&gt;&#10;        &lt;/mxCell&gt;&#10;        &lt;mxCell id=&quot;HFJM1gJeS1aWMsCjSJut-13&quot; value=&quot;&quot; style=&quot;endArrow=block;elbow=vertical;startArrow=none;startFill=0;endFill=1;strokeColor=#545B64;rounded=0;strokeWidth=1;endSize=9;startSize=9;entryX=0.5;entryY=1;entryDx=0;entryDy=0;entryPerimeter=0;exitX=0.5;exitY=0;exitDx=0;exitDy=0;exitPerimeter=0;convertToSvg=1;&quot; parent=&quot;H2fNjRapKjcZLar6XIbd-1&quot; source=&quot;H2fNjRapKjcZLar6XIbd-15&quot; target=&quot;H2fNjRapKjcZLar6XIbd-7&quot; edge=&quot;1&quot;&gt;&#10;          &lt;mxGeometry width=&quot;100&quot; relative=&quot;1&quot; as=&quot;geometry&quot;&gt;&#10;            &lt;mxPoint x=&quot;161&quot; y=&quot;770&quot; as=&quot;sourcePoint&quot; /&gt;&#10;            &lt;mxPoint x=&quot;161&quot; y=&quot;892&quot; as=&quot;targetPoint&quot; /&gt;&#10;          &lt;/mxGeometry&gt;&#10;        &lt;/mxCell&gt;&#10;        &lt;mxCell id=&quot;HFJM1gJeS1aWMsCjSJut-15&quot; value=&quot;&quot; style=&quot;endArrow=block;elbow=vertical;startArrow=none;startFill=0;endFill=1;strokeColor=#545B64;rounded=0;strokeWidth=1;endSize=9;startSize=9;exitX=1;exitY=0;exitDx=0;exitDy=0;exitPerimeter=0;convertToSvg=1;&quot; parent=&quot;H2fNjRapKjcZLar6XIbd-1&quot; source=&quot;H2fNjRapKjcZLar6XIbd-15&quot; target=&quot;H2fNjRapKjcZLar6XIbd-19&quot; edge=&quot;1&quot;&gt;&#10;          &lt;mxGeometry width=&quot;100&quot; relative=&quot;1&quot; as=&quot;geometry&quot;&gt;&#10;            &lt;mxPoint x=&quot;350&quot; y=&quot;540&quot; as=&quot;sourcePoint&quot; /&gt;&#10;            &lt;mxPoint x=&quot;350&quot; y=&quot;622&quot; as=&quot;targetPoint&quot; /&gt;&#10;          &lt;/mxGeometry&gt;&#10;        &lt;/mxCell&gt;&#10;        &lt;mxCell id=&quot;HFJM1gJeS1aWMsCjSJut-16&quot; value=&quot;&quot; style=&quot;endArrow=block;elbow=vertical;startArrow=block;startFill=1;endFill=1;strokeColor=#545B64;rounded=0;strokeWidth=1;endSize=9;startSize=9;entryX=0.5;entryY=1;entryDx=0;entryDy=0;entryPerimeter=0;exitX=0.5;exitY=0;exitDx=0;exitDy=0;exitPerimeter=0;convertToSvg=1;&quot; parent=&quot;H2fNjRapKjcZLar6XIbd-1&quot; source=&quot;H2fNjRapKjcZLar6XIbd-13&quot; target=&quot;H2fNjRapKjcZLar6XIbd-5&quot; edge=&quot;1&quot;&gt;&#10;          &lt;mxGeometry width=&quot;100&quot; relative=&quot;1&quot; as=&quot;geometry&quot;&gt;&#10;            &lt;mxPoint x=&quot;440&quot; y=&quot;412&quot; as=&quot;sourcePoint&quot; /&gt;&#10;            &lt;mxPoint x=&quot;541&quot; y=&quot;330&quot; as=&quot;targetPoint&quot; /&gt;&#10;          &lt;/mxGeometry&gt;&#10;        &lt;/mxCell&gt;&#10;        &lt;mxCell id=&quot;HFJM1gJeS1aWMsCjSJut-18&quot; value=&quot;Author: M.Glavitsch&amp;#xa;Last update: Oct 14, 2025&quot; style=&quot;text;align=left;verticalAlign=middle;rounded=0;strokeColor=default;spacingLeft=4;spacingBottom=4;spacingRight=4;spacingTop=4;convertToSvg=1;&quot; parent=&quot;H2fNjRapKjcZLar6XIbd-1&quot; vertex=&quot;1&quot;&gt;&#10;          &lt;mxGeometry y=&quot;670&quot; width=&quot;160&quot; height=&quot;40&quot; as=&quot;geometry&quot; /&gt;&#10;        &lt;/mxCell&gt;&#10;        &lt;mxCell id=&quot;HFJM1gJeS1aWMsCjSJut-17&quot; value=&quot;IAM Roles&amp;#xa;Permission Policies&quot; style=&quot;text;align=left;verticalAlign=middle;rounded=0;fontSize=16;convertToSvg=1;&quot; parent=&quot;H2fNjRapKjcZLar6XIbd-1&quot; vertex=&quot;1&quot;&gt;&#10;          &lt;mxGeometry x=&quot;771&quot; y=&quot;94&quot; width=&quot;200&quot; height=&quot;50&quot; as=&quot;geometry&quot; /&gt;&#10;        &lt;/mxCell&gt;&#10;        &lt;mxCell id=&quot;HFJM1gJeS1aWMsCjSJut-14&quot; value=&quot;controls&amp;#xa;distribution&quot; style=&quot;endArrow=block;elbow=vertical;startArrow=none;startFill=0;endFill=1;strokeColor=#545B64;rounded=0;strokeWidth=1;endSize=9;startSize=9;entryX=0.75;entryY=1;entryDx=0;entryDy=0;entryPerimeter=0;exitX=0.5;exitY=0;exitDx=0;exitDy=0;exitPerimeter=0;fontSize=16;convertToSvg=1;labelBackgroundColor=#FFFFFF;&quot; parent=&quot;H2fNjRapKjcZLar6XIbd-1&quot; source=&quot;H2fNjRapKjcZLar6XIbd-7&quot; target=&quot;H2fNjRapKjcZLar6XIbd-13&quot; edge=&quot;1&quot;&gt;&#10;          &lt;mxGeometry x=&quot;-0.0058&quot; width=&quot;100&quot; relative=&quot;1&quot; as=&quot;geometry&quot;&gt;&#10;            &lt;mxPoint x=&quot;661&quot; y=&quot;682&quot; as=&quot;sourcePoint&quot; /&gt;&#10;            &lt;mxPoint x=&quot;661&quot; y=&quot;560&quot; as=&quot;targetPoint&quot; /&gt;&#10;            &lt;mxPoint as=&quot;offset&quot; /&gt;&#10;          &lt;/mxGeometry&gt;&#10;        &lt;/mxCell&gt;&#10;        &lt;mxCell id=&quot;H2fNjRapKjcZLar6XIbd-5&quot; value=&quot;Certificate&amp;#xa;Manager&quot; style=&quot;sketch=0;points=[[0,0,0],[0.25,0,0],[0.5,0,0],[0.75,0,0],[1,0,0],[0,1,0],[0.25,1,0],[0.5,1,0],[0.75,1,0],[1,1,0],[0,0.25,0],[0,0.5,0],[0,0.75,0],[1,0.25,0],[1,0.5,0],[1,0.75,0]];outlineConnect=0;fontColor=#232F3E;fillColor=#DD344C;strokeColor=#ffffff;dashed=0;verticalLabelPosition=top;verticalAlign=bottom;align=center;fontSize=18;fontStyle=0;aspect=fixed;shape=mxgraph.aws4.resourceIcon;resIcon=mxgraph.aws4.certificate_manager_3;labelPosition=center;convertToSvg=1;&quot; parent=&quot;H2fNjRapKjcZLar6XIbd-1&quot; vertex=&quot;1&quot;&gt;&#10;          &lt;mxGeometry x=&quot;441&quot; y=&quot;80&quot; width=&quot;78&quot; height=&quot;78&quot; as=&quot;geometry&quot; /&gt;&#10;        &lt;/mxCell&gt;&#10;      &lt;/root&gt;&#10;    &lt;/mxGraphModel&gt;&#10;  &lt;/diagram&gt;&#10;&lt;/mxfile&gt;&#10;"><defs/><rect fill="#ffffff" width="100%" height="100%" x="0" y="0" style="fill: light-dark(#ffffff, var(--ge-dark-color, #121212));"/><g><g data-cell-id="0"><g data-cell-id="1"><g data-cell-id="H2fNjRapKjcZLar6XIbd-1"><g><path d="M 0 0 L 980 0 L 980 710 L 0 710 Z" fill="#ffffff" stroke="#232f3e" stroke-miterlimit="10" pointer-events="none" style="fill: light-dark(rgb(255, 255, 255), rgb(18, 18, 18)); stroke: light-dark(rgb(35, 47, 62), rgb(189, 199, 212));"/><path d="M 6.09 7.18 C 6.01 7.18 5.93 7.19 5.85 7.19 C 5.5 7.19 5.15 7.23 4.81 7.32 C 4.53 7.39 4.25 7.49 3.98 7.62 C 3.9 7.65 3.84 7.7 3.79 7.76 C 3.75 7.83 3.74 7.91 3.74 7.99 L 3.74 8.32 C 3.74 8.46 3.79 8.53 3.89 8.53 L 3.99 8.53 L 4.22 8.44 C 4.45 8.35 4.69 8.27 4.94 8.21 C 5.17 8.16 5.41 8.13 5.65 8.13 C 6.04 8.09 6.43 8.2 6.73 8.44 C 6.97 8.74 7.09 9.12 7.05 9.5 L 7.05 9.99 C 6.79 9.93 6.54 9.88 6.29 9.84 C 6.05 9.81 5.81 9.79 5.57 9.79 C 4.98 9.76 4.4 9.94 3.94 10.31 C 3.54 10.65 3.32 11.15 3.34 11.68 C 3.31 12.15 3.49 12.62 3.82 12.96 C 4.18 13.29 4.66 13.46 5.15 13.44 C 5.91 13.45 6.63 13.11 7.11 12.51 C 7.18 12.66 7.24 12.79 7.31 12.91 C 7.38 13.02 7.46 13.12 7.55 13.21 C 7.6 13.27 7.67 13.31 7.75 13.31 C 7.81 13.31 7.87 13.29 7.92 13.25 L 8.34 12.97 C 8.41 12.93 8.46 12.86 8.47 12.77 C 8.47 12.72 8.45 12.67 8.42 12.62 C 8.34 12.47 8.26 12.31 8.21 12.14 C 8.15 11.95 8.12 11.75 8.13 11.55 L 8.14 9.37 C 8.2 8.77 8 8.18 7.59 7.74 C 7.17 7.39 6.64 7.19 6.09 7.18 Z M 19.89 7.19 C 19.78 7.19 19.68 7.19 19.57 7.2 C 19.29 7.2 19 7.24 18.73 7.31 C 18.47 7.38 18.23 7.5 18.02 7.66 C 17.82 7.81 17.66 7.99 17.54 8.21 C 17.42 8.43 17.35 8.67 17.36 8.92 C 17.36 9.27 17.48 9.61 17.69 9.89 C 17.97 10.22 18.34 10.46 18.76 10.56 L 19.72 10.87 C 19.97 10.93 20.2 11.05 20.39 11.22 C 20.51 11.35 20.58 11.51 20.57 11.69 C 20.58 11.94 20.45 12.18 20.23 12.31 C 19.93 12.48 19.6 12.56 19.26 12.54 C 18.99 12.54 18.72 12.51 18.46 12.45 C 18.22 12.4 17.98 12.32 17.75 12.22 L 17.59 12.15 C 17.54 12.14 17.5 12.14 17.46 12.15 C 17.36 12.15 17.31 12.22 17.31 12.36 L 17.31 12.69 C 17.31 12.76 17.32 12.82 17.35 12.89 C 17.4 12.97 17.47 13.03 17.56 13.07 C 17.8 13.19 18.06 13.28 18.32 13.34 C 18.66 13.41 19 13.45 19.35 13.45 L 19.33 13.46 C 19.66 13.45 19.98 13.4 20.29 13.3 C 20.55 13.22 20.8 13.09 21.01 12.92 C 21.21 12.77 21.38 12.57 21.49 12.34 C 21.61 12.1 21.67 11.83 21.66 11.56 C 21.67 11.23 21.56 10.9 21.36 10.63 C 21.09 10.32 20.73 10.09 20.33 9.99 L 19.39 9.69 C 19.13 9.61 18.88 9.49 18.67 9.32 C 18.54 9.2 18.47 9.03 18.47 8.85 C 18.46 8.61 18.58 8.38 18.79 8.25 C 19.06 8.11 19.36 8.05 19.67 8.06 C 20.11 8.06 20.55 8.14 20.96 8.32 C 21.04 8.37 21.12 8.4 21.21 8.41 C 21.31 8.41 21.36 8.34 21.36 8.19 L 21.36 7.88 C 21.37 7.8 21.35 7.72 21.31 7.66 C 21.25 7.59 21.18 7.54 21.11 7.49 L 20.83 7.38 L 20.45 7.27 L 20.01 7.2 C 19.97 7.2 19.93 7.19 19.89 7.19 Z M 16.02 7.36 C 15.94 7.35 15.86 7.38 15.79 7.42 C 15.72 7.5 15.68 7.59 15.66 7.69 L 14.51 12.14 L 13.47 7.71 C 13.45 7.61 13.41 7.52 13.34 7.44 C 13.26 7.39 13.17 7.37 13.07 7.38 L 12.54 7.38 C 12.44 7.37 12.35 7.39 12.27 7.44 C 12.2 7.51 12.15 7.61 12.14 7.71 L 11.09 12.14 L 9.97 7.7 C 9.95 7.6 9.91 7.51 9.84 7.44 C 9.76 7.39 9.67 7.36 9.58 7.37 L 8.92 7.37 C 8.81 7.37 8.76 7.43 8.76 7.54 C 8.77 7.63 8.79 7.72 8.82 7.81 L 10.38 12.95 C 10.4 13.05 10.45 13.14 10.52 13.21 C 10.6 13.26 10.69 13.29 10.78 13.28 L 11.36 13.26 C 11.46 13.27 11.55 13.25 11.63 13.19 C 11.7 13.12 11.74 13.03 11.76 12.93 L 12.79 8.64 L 13.82 12.93 C 13.83 13.03 13.88 13.12 13.95 13.19 C 14.03 13.25 14.12 13.27 14.21 13.26 L 14.79 13.26 C 14.88 13.27 14.97 13.25 15.04 13.2 C 15.11 13.13 15.16 13.03 15.18 12.94 L 16.79 7.79 C 16.84 7.72 16.84 7.63 16.84 7.63 C 16.84 7.59 16.84 7.56 16.84 7.52 C 16.84 7.48 16.82 7.43 16.79 7.4 C 16.76 7.37 16.72 7.35 16.67 7.36 L 16.05 7.36 C 16.04 7.36 16.03 7.36 16.02 7.36 Z M 5.65 10.62 C 5.7 10.62 5.75 10.62 5.8 10.62 L 6.43 10.62 C 6.64 10.64 6.85 10.67 7.06 10.71 L 7.07 11.01 C 7.07 11.21 7.05 11.4 7 11.59 C 6.96 11.75 6.88 11.9 6.77 12.01 C 6.61 12.21 6.39 12.36 6.14 12.44 C 5.91 12.52 5.67 12.56 5.43 12.56 C 5.18 12.6 4.93 12.53 4.73 12.37 C 4.55 12.18 4.46 11.92 4.49 11.66 C 4.47 11.36 4.59 11.08 4.81 10.89 C 5.06 10.72 5.35 10.62 5.65 10.62 Z M 21.04 14.72 C 20.34 14.73 19.51 14.89 18.89 15.33 C 18.69 15.46 18.72 15.63 18.94 15.63 C 19.64 15.54 21.21 15.35 21.5 15.71 C 21.78 16.06 21.19 17.54 20.94 18.21 C 20.86 18.41 21.04 18.49 21.21 18.34 C 22.39 17.36 22.72 15.3 22.46 15 C 22.32 14.85 21.74 14.71 21.04 14.72 Z M 2.65 15.1 C 2.5 15.12 2.42 15.3 2.58 15.44 C 5.29 17.89 8.82 19.23 12.48 19.21 C 15.37 19.22 18.2 18.36 20.59 16.74 C 20.95 16.47 20.64 16.07 20.26 16.23 C 17.87 17.24 15.3 17.76 12.71 17.77 C 9.23 17.78 5.82 16.87 2.81 15.14 C 2.75 15.11 2.7 15.1 2.65 15.1 Z M 0 0 L 25 0 L 25 25 L 0 25 Z" fill="#232f3e" stroke="none" pointer-events="all" style="fill: light-dark(rgb(35, 47, 62), rgb(189, 199, 212));"/></g><g><g fill="#232F3E" font-family="Helvetica" font-size="18px" style="fill: light-dark(rgb(35, 47, 62), rgb(189, 199, 212));"><text x="32" y="24"><tspan>AWS Cloud</tspan></text></g></g><g data-cell-id="HFJM1gJeS1aWMsCjSJut-6"><g><path d="M 399 599 L 501 599 L 549.88 599" fill="none" stroke="#545b64" stroke-miterlimit="10" pointer-events="stroke" style="stroke: light-dark(rgb(84, 91, 100), rgb(154, 160, 168));"/><path d="M 559.88 599 L 549.88 604 L 549.88 594 Z" fill="#545b64" stroke="#545b64" stroke-miterlimit="10" pointer-events="all" style="fill: light-dark(rgb(84, 91, 100), rgb(154, 160, 168)); stroke: light-dark(rgb(84, 91, 100), rgb(154, 160, 168));"/></g></g><g data-cell-id="H2fNjRapKjcZLar6XIbd-16"><g><path d="M 801 599 L 650.12 599" fill="none" stroke="#545b64" stroke-miterlimit="10" pointer-events="stroke" style="stroke: light-dark(rgb(84, 91, 100), rgb(154, 160, 168));"/><path d="M 640.12 599 L 650.12 594 L 650.12 604 Z" fill="#545b64" stroke="#545b64" stroke-miterlimit="10" pointer-events="all" style="fill: light-dark(rgb(84, 91, 100), rgb(154, 160, 168)); stroke: light-dark(rgb(84, 91, 100), rgb(154, 160, 168));"/></g></g><g data-cell-id="HFJM1gJeS1aWMsCjSJut-3"><g><rect x="691" y="580" width="60" height="40" fill="#ffffff" stroke="none" pointer-events="all" style="fill: light-dark(rgb(255, 255, 255), rgb(18, 18, 18));"/></g></g><g data-cell-id="H2fNjRapKjcZLar6XIbd-18"><g><rect x="701" y="579" width="40" height="40" fill="none" stroke="none" pointer-events="all"/><path d="M 704.29 615.82 L 712.25 615.82 C 712.75 615.82 713.15 615.41 713.15 614.91 L 713.15 597.41 C 713.15 596.91 712.75 596.5 712.25 596.5 L 704.29 596.5 C 703.79 596.5 703.39 596.91 703.39 597.41 L 703.39 614.91 C 703.39 615.41 703.79 615.82 704.29 615.82 Z M 705.2 614.01 L 705.2 598.31 L 711.34 598.31 L 711.34 614.01 Z M 717.02 615.82 L 724.98 615.82 C 725.48 615.82 725.88 615.41 725.88 614.91 L 725.88 601.39 C 725.88 600.89 725.48 600.48 724.98 600.48 L 717.02 600.48 C 716.52 600.48 716.12 600.89 716.12 601.39 L 716.12 614.91 C 716.12 615.41 716.52 615.82 717.02 615.82 Z M 717.93 614.01 L 717.93 602.29 L 724.07 602.29 L 724.07 614.01 Z M 701.11 619 L 740.89 619 L 740.89 617.19 L 701.11 617.19 Z M 733.73 591.95 C 737.3 591.95 740.2 589.04 740.2 585.47 C 740.2 581.9 737.3 579 733.73 579 C 730.16 579 727.25 581.9 727.25 585.47 C 727.25 589.04 730.16 591.95 733.73 591.95 Z M 733.73 580.81 C 736.3 580.81 738.39 582.9 738.39 585.47 C 738.39 588.05 736.3 590.14 733.73 590.14 C 731.16 590.14 729.07 588.05 729.07 585.47 C 729.07 582.9 731.16 580.81 733.73 580.81 Z M 737.32 593 C 735.06 594.07 732.4 594.07 730.14 593 C 729.86 592.86 729.53 592.88 729.27 593.05 C 729 593.21 728.85 593.5 728.85 593.81 L 728.85 614.91 C 728.85 615.41 729.25 615.82 729.75 615.82 L 737.71 615.82 C 738.21 615.82 738.61 615.41 738.61 614.91 L 738.61 593.81 C 738.61 593.5 738.45 593.21 738.19 593.05 C 737.93 592.88 737.6 592.86 737.32 593 Z M 736.8 614.01 L 730.66 614.01 L 730.66 595.14 C 732.63 595.77 734.82 595.77 736.8 595.14 Z" fill="#e7157b" stroke="none" pointer-events="all" style="fill: light-dark(rgb(231, 21, 123), rgb(255, 129, 217));"/></g><g><g fill="#232F3E" font-family="Helvetica" text-anchor="middle" font-size="18px" style="fill: light-dark(rgb(35, 47, 62), rgb(189, 199, 212));"><text x="721" y="643">Alert</text></g></g></g><g data-cell-id="H2fNjRapKjcZLar6XIbd-2"><g><rect x="81" y="249" width="80" height="58.4" fill="none" stroke="none" pointer-events="all"/><path d="M 123.31 249.1 C 122.01 249.1 120.93 250.18 120.93 251.48 L 120.93 268.06 L 122.53 268.06 L 122.53 251.48 C 122.53 251.03 122.87 250.7 123.31 250.7 L 152.08 250.7 C 152.53 250.7 152.86 251.03 152.86 251.48 L 152.86 273.86 L 154.46 273.86 L 154.46 251.48 C 154.46 250.18 153.39 249.1 152.08 249.1 Z M 125.88 252.01 C 124.75 252.01 123.8 252.95 123.8 254.09 L 123.8 268.06 L 125.4 268.06 L 125.4 254.09 C 125.4 253.81 125.6 253.61 125.88 253.61 L 149.44 253.61 C 149.72 253.61 149.92 253.81 149.92 254.09 L 149.92 273.86 L 151.52 273.86 L 151.52 254.09 C 151.52 252.95 150.58 252.01 149.44 252.01 Z M 86.67 269.43 C 85.49 269.43 84.66 270.35 84.66 271.57 L 84.66 302.06 L 81.93 302.06 C 81.45 302.06 81.21 302.4 81.12 302.59 C 81.02 302.78 81 302.95 81 303.13 L 81 305.24 C 81 306.31 83.35 307.28 84.65 307.28 L 130.66 307.28 C 131.81 307.28 134.16 306.37 134.16 305.21 L 134.16 303.13 C 134.16 302.95 134.13 302.78 134.04 302.59 C 133.94 302.4 133.71 302.06 133.23 302.06 L 130.48 302.06 L 130.48 271.41 C 130.48 270.31 129.63 269.46 128.58 269.43 Z M 86.26 271.03 L 128.89 271.03 L 128.89 302.06 L 86.26 302.06 Z M 89.53 272.32 C 88.46 272.32 87.64 273.14 87.64 274.18 L 87.64 298.52 C 87.64 300.46 88.85 300.84 89.67 300.86 L 125.21 300.86 C 126.87 300.86 127.74 299.32 127.74 298.24 L 127.74 274.74 C 127.74 273.67 126.97 272.32 125.12 272.32 Z M 89.24 273.91 L 126.14 273.91 L 126.14 299.27 L 89.24 299.27 Z M 147.69 275.26 C 145.76 275.26 144.19 276.84 144.19 278.77 L 144.19 304.67 C 144.19 306.34 145.75 307.3 147.68 307.3 L 157.69 307.3 C 159.62 307.3 161 306.09 161 304.48 L 161 278.77 C 161 276.84 159.42 275.26 157.49 275.26 Z M 147.69 276.86 L 157.49 276.86 C 158.56 276.86 159.4 277.7 159.4 278.77 L 159.4 281.07 L 145.78 281.07 L 145.78 278.77 C 145.78 277.7 146.62 276.86 147.69 276.86 Z M 152.17 278.16 L 152.17 279.75 L 155.83 279.75 L 155.83 278.16 Z M 150.75 278.18 C 150.32 278.18 149.98 278.52 149.98 278.94 C 149.98 279.37 150.33 279.71 150.75 279.71 C 151.17 279.71 151.52 279.37 151.52 278.94 C 151.52 278.52 151.17 278.18 150.75 278.18 Z M 145.78 282.67 L 159.4 282.67 L 159.4 302.06 L 145.78 302.06 Z M 131.86 285.45 L 131.86 287.05 L 142.72 287.05 L 142.76 285.45 Z M 137.36 287.51 C 135.91 287.51 134.72 288.7 134.72 290.15 C 134.72 291.6 135.91 292.79 137.36 292.79 C 138.81 292.79 140 291.6 140 290.15 C 140 288.7 138.81 287.51 137.36 287.51 Z M 137.36 289.11 C 137.94 289.11 138.41 289.57 138.41 290.15 C 138.41 290.74 137.94 291.2 137.36 291.2 C 136.77 291.2 136.32 290.74 136.32 290.15 C 136.32 289.57 136.77 289.11 137.36 289.11 Z M 131.86 293.35 L 131.86 294.95 L 142.77 294.95 L 142.77 293.35 Z M 82.6 303.66 L 132.56 303.66 L 132.56 304.84 C 132.56 305.33 131.91 305.68 130.86 305.68 L 84.43 305.68 C 83.45 305.68 82.6 305.32 82.6 304.83 Z M 145.78 303.66 L 159.4 303.66 L 159.4 304.48 C 159.4 305.55 158.76 305.7 157.69 305.7 L 147.68 305.7 C 146.61 305.7 145.78 305.46 145.78 304.67 Z" fill="#879196" stroke="none" pointer-events="all" style="fill: light-dark(rgb(135, 145, 150), rgb(106, 115, 119));"/></g><g><g fill="#545B64" font-family="Helvetica" text-anchor="middle" font-size="18px" style="fill: light-dark(rgb(84, 91, 100), rgb(154, 160, 168));"><text x="121" y="244">Devices</text></g></g></g><g data-cell-id="H2fNjRapKjcZLar6XIbd-3"><g><path d="M 321 400 L 399 400 L 399 478 L 321 478 Z" fill="#dd344c" stroke="none" pointer-events="all" style="fill: light-dark(rgb(221, 52, 76), rgb(255, 127, 147));"/><path d="M 331.47 440.11 L 328.8 440.11 L 328.8 437.89 L 331.47 437.89 C 331.7 432.25 333.52 426.89 336.83 422.31 L 338.64 423.62 C 335.61 427.81 333.92 432.72 333.7 437.89 L 336.6 437.89 L 336.6 440.11 L 333.7 440.11 C 333.91 445.31 335.59 450.25 338.64 454.46 L 336.83 455.77 C 333.51 451.17 331.68 445.78 331.47 440.11 Z M 376.73 462.21 C 372.14 465.53 366.77 467.35 361.11 467.57 L 361.11 470.2 L 358.89 470.2 L 358.89 467.57 C 353.23 467.35 347.85 465.53 343.27 462.21 L 344.58 460.4 C 348.78 463.44 353.71 465.13 358.89 465.34 L 358.89 462.4 L 361.11 462.4 L 361.11 465.34 C 366.29 465.13 371.22 463.44 375.42 460.4 Z M 343.27 415.87 C 347.85 412.56 353.23 410.73 358.89 410.51 L 358.89 407.8 L 361.11 407.8 L 361.11 410.51 C 366.77 410.73 372.14 412.56 376.73 415.87 L 375.42 417.68 C 371.22 414.64 366.29 412.96 361.11 412.74 L 361.11 415.6 L 358.89 415.6 L 358.89 412.74 C 353.71 412.96 348.78 414.64 344.58 417.68 Z M 391.2 437.89 L 391.2 440.11 L 388.53 440.11 C 388.32 445.78 386.49 451.17 383.17 455.77 L 381.36 454.46 C 384.41 450.25 386.09 445.31 386.3 440.11 L 383.4 440.11 L 383.4 437.89 L 386.3 437.89 C 386.07 432.72 384.39 427.81 381.36 423.62 L 383.17 422.31 C 386.47 426.89 388.3 432.25 388.52 437.89 Z M 376.68 420.78 L 385.42 412.05 L 386.99 413.62 L 378.26 422.36 Z M 343.31 457.3 L 334.58 466.04 L 333 464.46 L 341.74 455.73 Z M 345.8 426.37 L 329.26 409.84 L 330.83 408.26 L 347.37 424.8 Z M 374.16 451.58 L 390.74 468.16 L 389.16 469.74 L 372.58 453.16 Z M 350.71 439.82 C 350.79 439.67 350.89 439.52 350.98 439.37 C 352.85 436.43 352.32 432.41 351.72 429.99 C 353.33 431.04 354.77 433.22 355.27 434.14 C 355.48 434.53 355.89 434.76 356.34 434.72 C 356.78 434.69 357.15 434.4 357.3 433.98 C 358.96 429.27 358.12 425.73 356.95 423.43 C 358.37 424.25 359.46 425.44 360.19 426.96 C 361.77 430.24 361.42 434.72 359.27 438.67 C 356.34 444.05 356.93 449.7 357.6 452.74 C 355.93 452.02 354.44 451.21 353.15 450.31 C 349.78 447.96 348.71 443.35 350.71 439.82 Z M 365.68 439.44 C 365.6 439.9 365.82 440.35 366.22 440.58 C 366.61 440.82 367.12 440.78 367.48 440.49 C 367.57 440.42 369.39 438.91 370.28 435.26 C 371.34 436.81 372.46 439.94 370.98 445.69 C 369.51 451.38 362.54 452.98 360.05 453.37 C 359.45 451.22 358.24 445.24 361.23 439.73 C 363.36 435.82 363.92 431.4 362.86 427.75 C 364.87 430.12 366.58 433.84 365.68 439.44 Z M 348.77 438.72 C 346.21 443.25 347.57 449.14 351.88 452.14 C 353.83 453.5 356.19 454.68 358.9 455.65 C 359.02 455.69 359.15 455.71 359.27 455.71 C 359.3 455.71 359.32 455.7 359.34 455.7 L 359.34 455.71 C 359.81 455.67 370.95 454.71 373.13 446.25 C 375.94 435.36 370.31 432.14 370.07 432 C 369.75 431.83 369.35 431.82 369.02 431.99 C 368.69 432.17 368.47 432.49 368.43 432.87 C 368.35 433.62 368.23 434.29 368.08 434.88 C 367.31 426.34 360.53 422.86 359.16 422.24 C 357.76 421.16 356.05 420.43 354.07 420.07 C 353.58 419.98 353.08 420.24 352.87 420.7 C 352.66 421.16 352.78 421.7 353.17 422.03 C 353.33 422.17 356.81 425.18 355.81 430.91 C 354.52 429.21 352.46 427.17 350.04 427.17 C 349.67 427.17 349.33 427.35 349.12 427.65 C 348.91 427.95 348.87 428.34 349 428.68 C 349.02 428.74 351.3 434.73 349.1 438.18 C 348.98 438.36 348.87 438.54 348.77 438.72 Z" fill="#ffffff" stroke="none" pointer-events="all" style="fill: light-dark(rgb(255, 255, 255), rgb(18, 18, 18));"/></g><g><g fill="#232F3E" font-family="Helvetica" font-size="18px" style="fill: light-dark(rgb(35, 47, 62), rgb(189, 199, 212));"><text x="406" y="447">WAF</text></g></g></g><g data-cell-id="H2fNjRapKjcZLar6XIbd-4"><g><path d="M 682 80 L 760 80 L 760 158 L 682 158 Z" fill="#dd344c" stroke="none" pointer-events="all" style="fill: light-dark(rgb(221, 52, 76), rgb(255, 127, 147));"/><path d="M 692.03 140.17 L 749.97 140.17 L 749.97 97.83 L 692.03 97.83 Z M 752.2 96.71 L 752.2 141.29 C 752.2 141.9 751.7 142.4 751.09 142.4 L 690.91 142.4 C 690.3 142.4 689.8 141.9 689.8 141.29 L 689.8 96.71 C 689.8 96.1 690.3 95.6 690.91 95.6 L 751.09 95.6 C 751.7 95.6 752.2 96.1 752.2 96.71 Z M 725.46 127.91 L 742.17 127.91 L 742.17 125.69 L 725.46 125.69 Z M 739.94 121.23 L 745.51 121.23 L 745.51 119 L 739.94 119 Z M 725.46 121.23 L 734.37 121.23 L 734.37 119 L 725.46 119 Z M 708.74 125.69 C 708.74 125.07 708.24 124.57 707.63 124.57 C 707.01 124.57 706.51 125.07 706.51 125.69 C 706.51 126.3 707.01 126.8 707.63 126.8 C 708.24 126.8 708.74 126.3 708.74 125.69 Z M 710.97 125.69 C 710.97 127.14 710.04 128.36 708.74 128.82 L 708.74 131.26 L 706.51 131.26 L 706.51 128.82 C 705.22 128.36 704.29 127.14 704.29 125.69 C 704.29 123.84 705.79 122.34 707.63 122.34 C 709.47 122.34 710.97 123.84 710.97 125.69 Z M 697.6 134.59 L 717.65 134.6 L 717.65 130.14 L 713.2 130.14 L 713.2 127.91 L 717.65 127.91 L 717.65 124.57 L 713.2 124.57 L 713.2 122.34 L 717.66 122.34 L 717.66 119.01 L 697.61 119 Z M 700.94 116.77 L 714.31 116.78 L 714.31 108.97 C 714.32 106.41 711.19 104.15 707.63 104.15 L 707.62 104.15 C 704.07 104.15 700.95 106.4 700.95 108.97 Z M 695.37 135.71 L 695.38 117.89 C 695.38 117.59 695.5 117.31 695.7 117.1 C 695.91 116.89 696.2 116.77 696.49 116.77 L 698.71 116.77 L 698.72 108.97 C 698.72 105.08 702.71 101.92 707.62 101.92 L 707.63 101.92 C 712.54 101.93 716.54 105.09 716.54 108.97 L 716.54 116.78 L 718.77 116.78 C 719.39 116.78 719.89 117.28 719.89 117.89 L 719.88 135.71 C 719.88 136.01 719.76 136.29 719.55 136.5 C 719.34 136.71 719.06 136.83 718.76 136.83 L 696.49 136.82 C 695.87 136.82 695.37 136.32 695.37 135.71 Z M 743.29 114.54 L 745.51 114.54 L 745.51 112.31 L 743.29 112.31 Z M 725.46 114.54 L 737.71 114.54 L 737.71 112.31 L 725.46 112.31 Z" fill="#ffffff" stroke="none" pointer-events="all" style="fill: light-dark(rgb(255, 255, 255), rgb(18, 18, 18));"/></g><g><g fill="#232F3E" font-family="Helvetica" text-anchor="middle" font-size="18px" style="fill: light-dark(rgb(35, 47, 62), rgb(189, 199, 212));"><text x="721" y="75">IAM</text></g></g></g><g data-cell-id="H2fNjRapKjcZLar6XIbd-6"><g><path d="M 682 240 L 760 240 L 760 318 L 682 318 Z" fill="#7aa116" stroke="none" pointer-events="all" style="fill: light-dark(rgb(122, 161, 22), rgb(97, 130, 11));"/><path d="M 744.28 282.22 L 744.71 279.21 C 748.66 281.57 748.71 282.55 748.71 282.58 C 748.7 282.58 748.03 283.14 744.28 282.22 Z M 742.12 281.62 C 735.3 279.56 725.8 275.2 721.96 273.39 C 721.96 273.37 721.96 273.36 721.96 273.34 C 721.96 271.86 720.76 270.66 719.28 270.66 C 717.81 270.66 716.61 271.86 716.61 273.34 C 716.61 274.82 717.81 276.02 719.28 276.02 C 719.93 276.02 720.52 275.78 720.98 275.39 C 725.51 277.53 734.93 281.82 741.8 283.85 L 739.08 303.03 C 739.07 303.08 739.07 303.13 739.07 303.18 C 739.07 304.87 731.6 307.97 719.39 307.97 C 707.05 307.97 699.49 304.87 699.49 303.18 C 699.49 303.13 699.49 303.08 699.48 303.03 L 693.81 261.57 C 698.72 264.95 709.29 266.74 719.39 266.74 C 729.48 266.74 740.03 264.96 744.96 261.59 Z M 693.21 257.25 C 693.29 255.78 701.71 250.03 719.39 250.03 C 737.07 250.03 745.5 255.78 745.58 257.25 L 745.58 257.75 C 744.61 261.04 733.69 264.51 719.39 264.51 C 705.07 264.51 694.15 261.02 693.21 257.73 Z M 747.81 257.27 C 747.81 253.41 736.74 247.8 719.39 247.8 C 702.05 247.8 690.98 253.41 690.98 257.27 L 691.08 258.11 L 697.27 303.27 C 697.41 308.32 710.88 310.2 719.39 310.2 C 729.94 310.2 741.15 307.77 741.3 303.27 L 743.97 284.44 C 745.45 284.8 746.68 284.98 747.66 284.98 C 748.98 284.98 749.87 284.66 750.41 284.01 C 750.85 283.49 751.02 282.85 750.89 282.16 C 750.61 280.62 748.77 278.96 745.05 276.83 L 747.69 258.16 Z" fill="#ffffff" stroke="none" pointer-events="all" style="fill: light-dark(rgb(255, 255, 255), rgb(18, 18, 18));"/></g><g><g fill="#232F3E" font-family="Helvetica" text-anchor="middle" font-size="18px" style="fill: light-dark(rgb(35, 47, 62), rgb(189, 199, 212));"><text x="721" y="235">S3 Standard</text></g></g></g><g data-cell-id="H2fNjRapKjcZLar6XIbd-7"><g><path d="M 560 400 L 639 400 L 639 479 L 560 479 Z" fill="#ed7100" stroke="none" pointer-events="all" style="fill: light-dark(rgb(237, 113, 0), rgb(216, 109, 12));"/><path d="M 585.99 468.84 L 571.98 468.84 L 587.48 436.45 L 594.5 450.91 Z M 588.49 433.35 C 588.3 432.96 587.91 432.72 587.47 432.72 L 587.47 432.72 C 587.03 432.72 586.64 432.97 586.45 433.36 L 569.17 469.49 C 569 469.83 569.02 470.25 569.23 470.57 C 569.44 470.9 569.8 471.1 570.19 471.1 L 586.71 471.1 C 587.15 471.1 587.55 470.85 587.73 470.45 L 596.78 451.38 C 596.92 451.07 596.92 450.71 596.77 450.41 Z M 627.74 468.84 L 613.81 468.84 L 591.48 422.09 C 591.29 421.69 590.89 421.44 590.46 421.44 L 581.35 421.44 L 581.36 410.16 L 599.21 410.16 L 621.45 456.91 C 621.63 457.31 622.03 457.56 622.47 457.56 L 627.74 457.56 Z M 628.87 455.3 L 623.18 455.3 L 600.95 408.54 C 600.76 408.15 600.36 407.9 599.93 407.9 L 580.23 407.9 C 579.6 407.9 579.1 408.4 579.1 409.03 L 579.08 422.57 C 579.08 422.87 579.2 423.16 579.41 423.37 C 579.63 423.58 579.91 423.7 580.21 423.7 L 589.74 423.7 L 612.08 470.46 C 612.27 470.85 612.66 471.1 613.1 471.1 L 628.87 471.1 C 629.49 471.1 630 470.59 630 469.97 L 630 456.43 C 630 455.81 629.49 455.3 628.87 455.3 Z" fill="#ffffff" stroke="none" pointer-events="all" style="fill: light-dark(rgb(255, 255, 255), rgb(18, 18, 18));"/></g><g><g fill="#232F3E" font-family="Helvetica" font-size="18px" style="fill: light-dark(rgb(35, 47, 62), rgb(189, 199, 212));"><text x="646" y="447.5">Lambda</text></g></g></g><g data-cell-id="H2fNjRapKjcZLar6XIbd-8"><g><path d="M 321 560 L 399 560 L 399 638 L 321 638 Z" fill="#e7157b" stroke="none" pointer-events="all" style="fill: light-dark(rgb(231, 21, 123), rgb(255, 129, 217));"/><path d="M 376.45 607.15 C 376.45 602.83 372.91 599.31 368.55 599.31 C 364.2 599.31 360.65 602.83 360.65 607.15 C 360.65 611.48 364.2 615 368.55 615 C 372.91 615 376.45 611.48 376.45 607.15 M 378.67 607.15 C 378.67 612.7 374.13 617.21 368.55 617.21 C 362.97 617.21 358.43 612.7 358.43 607.15 C 358.43 601.61 362.97 597.1 368.55 597.1 C 374.13 597.1 378.67 601.61 378.67 607.15 M 388.01 622.31 L 380.26 615.37 C 379.63 616.25 378.91 617.05 378.1 617.76 L 385.85 624.7 C 386.51 625.29 387.54 625.24 388.13 624.58 C 388.73 623.93 388.67 622.91 388.01 622.31 M 368.55 619.2 C 375.24 619.2 380.68 613.8 380.68 607.15 C 380.68 600.51 375.24 595.11 368.55 595.11 C 361.87 595.11 356.43 600.51 356.43 607.15 C 356.43 613.8 361.87 619.2 368.55 619.2 M 389.79 626.06 C 389.03 626.9 387.98 627.32 386.93 627.32 C 386.01 627.32 385.09 627 384.36 626.34 L 376.31 619.13 C 374.07 620.57 371.41 621.41 368.55 621.41 C 360.64 621.41 354.2 615.01 354.2 607.15 C 354.2 599.3 360.64 592.9 368.55 592.9 C 376.46 592.9 382.9 599.3 382.9 607.15 C 382.9 609.41 382.36 611.54 381.41 613.43 L 389.5 620.67 C 391.07 622.08 391.2 624.5 389.79 626.06 M 339.07 587.92 C 339.07 588.49 339.1 589.06 339.17 589.62 C 339.21 589.93 339.11 590.25 338.9 590.49 C 338.73 590.67 338.51 590.8 338.26 590.84 C 335.53 591.54 331.02 593.67 331.02 600.04 C 331.02 604.85 333.7 607.5 335.94 608.89 C 336.7 609.36 337.61 609.62 338.56 609.63 L 351.98 609.64 L 351.98 611.85 L 338.55 611.84 C 337.17 611.83 335.86 611.45 334.76 610.76 C 332.54 609.39 328.8 606.17 328.8 600.04 C 328.8 592.64 333.89 589.91 336.88 588.94 C 336.86 588.6 336.84 588.26 336.84 587.92 C 336.84 581.88 340.97 575.61 346.44 573.34 C 352.84 570.68 359.62 572 364.57 576.87 C 366.11 578.38 367.37 580.22 368.34 582.34 C 369.64 581.26 371.24 580.67 372.93 580.67 C 376.26 580.67 380 583.18 380.66 588.66 C 383.77 589.37 390.35 591.86 390.35 600.12 C 390.35 603.42 389.31 606.15 387.25 608.22 L 385.67 606.67 C 387.3 605.03 388.12 602.82 388.12 600.12 C 388.12 592.9 382.03 591.1 379.41 590.66 C 379.11 590.61 378.85 590.44 378.68 590.2 C 378.51 589.96 378.45 589.66 378.5 589.38 C 378.14 584.89 375.45 582.88 372.93 582.88 C 371.34 582.88 369.85 583.65 368.84 584.99 C 368.6 585.32 368.2 585.48 367.79 585.43 C 367.39 585.37 367.05 585.09 366.91 584.71 C 366 582.2 364.68 580.09 363.01 578.44 C 358.71 574.22 352.84 573.08 347.3 575.38 C 342.68 577.29 339.07 582.8 339.07 587.92" fill="#ffffff" stroke="none" pointer-events="all" style="fill: light-dark(rgb(255, 255, 255), rgb(18, 18, 18));"/></g><g><g fill="#232F3E" font-family="Helvetica" text-anchor="middle" font-size="18px" style="fill: light-dark(rgb(35, 47, 62), rgb(189, 199, 212));"><text x="360" y="662">CloudWatch</text></g></g></g><g data-cell-id="H2fNjRapKjcZLar6XIbd-11"><g><path d="M 801 559 L 881 559 L 881 639 L 801 639 Z" fill="#7aa116" stroke="none" pointer-events="all" style="fill: light-dark(rgb(122, 161, 22), rgb(97, 130, 11));"/><path d="M 851.29 587.57 L 851.29 582.33 L 842.95 590.67 C 842.54 591.08 841.88 591.11 841.43 590.75 L 836.51 586.82 L 829.24 594.09 L 827.62 592.48 L 835.62 584.48 C 836.03 584.07 836.69 584.03 837.14 584.39 L 842.06 588.33 L 849.67 580.71 L 844.43 580.71 L 844.43 578.43 L 852.43 578.43 C 853.06 578.43 853.57 578.94 853.57 579.57 L 853.57 587.57 Z M 825 602.43 L 822.71 602.43 L 822.71 568.14 C 822.71 567.51 823.23 567 823.86 567 L 858.14 567 C 858.77 567 859.29 567.51 859.29 568.14 L 859.29 602.43 L 857 602.43 L 857 569.29 L 825 569.29 Z M 812.43 626.97 L 812.43 601.36 L 826.99 611.44 Z M 841 620.86 C 841.26 620.86 841.51 620.78 841.73 620.63 L 853.11 612.75 L 868.08 628.71 L 813.92 628.71 L 828.89 612.75 L 840.27 620.63 C 840.49 620.78 840.74 620.86 841 620.86 Z M 855.01 611.44 L 869.57 601.36 L 869.57 626.97 Z M 871.47 598.14 L 862.32 590.14 L 860.82 591.86 L 868.75 598.8 L 841 618.01 L 813.25 598.8 L 821.18 591.86 L 819.68 590.14 L 810.53 598.14 C 810.28 598.36 810.14 598.67 810.14 599 L 810.14 629.86 C 810.14 630.49 810.65 631 811.29 631 L 870.71 631 C 871.35 631 871.86 630.49 871.86 629.86 L 871.86 599 C 871.86 598.67 871.72 598.36 871.47 598.14 Z" fill="#ffffff" stroke="none" pointer-events="all" style="fill: light-dark(rgb(255, 255, 255), rgb(18, 18, 18));"/></g><g><g fill="#232F3E" font-family="Helvetica" text-anchor="middle" font-size="18px" style="fill: light-dark(rgb(35, 47, 62), rgb(189, 199, 212));"><text x="841" y="663">Budgets</text></g></g></g><g data-cell-id="H2fNjRapKjcZLar6XIbd-12"><g><path d="M 82 401 L 160 401 L 160 479 L 82 479 Z" fill="#8c4fff" stroke="none" pointer-events="all" style="fill: light-dark(rgb(140, 79, 255), rgb(177, 125, 255));"/><path d="M 130.66 440.82 C 131.49 441.58 131.9 442.6 131.9 443.88 C 131.9 445.27 131.4 446.38 130.4 447.21 C 129.4 448.04 128.05 448.46 126.37 448.46 C 125.03 448.46 123.71 448.17 122.41 447.6 L 122.41 445.9 C 123.95 446.41 125.27 446.67 126.37 446.67 C 127.44 446.67 128.27 446.43 128.86 445.94 C 129.44 445.46 129.73 444.77 129.73 443.88 C 129.73 442.16 128.64 441.3 126.47 441.3 C 125.79 441.3 125.12 441.34 124.45 441.41 L 124.45 440.01 L 128.92 435.13 L 122.62 435.13 L 122.62 433.38 L 131.28 433.38 L 131.28 435.07 L 126.9 439.71 C 126.97 439.69 127.04 439.69 127.11 439.69 L 127.32 439.69 C 128.73 439.69 129.84 440.07 130.66 440.82 M 118.3 440.45 C 119.17 441.26 119.6 442.37 119.6 443.79 C 119.6 445.18 119.1 446.31 118.09 447.17 C 117.08 448.03 115.76 448.46 114.11 448.46 C 112.66 448.46 111.31 448.17 110.05 447.6 L 110.05 445.9 C 111.62 446.41 112.97 446.67 114.09 446.67 C 115.17 446.67 115.99 446.42 116.57 445.93 C 117.14 445.44 117.43 444.74 117.43 443.81 C 117.43 442.81 117.16 442.08 116.62 441.62 C 116.08 441.17 115.2 440.94 113.98 440.94 C 113.1 440.94 112 441.01 110.68 441.15 L 110.68 439.75 L 111.09 433.38 L 118.86 433.38 L 118.86 435.13 L 112.88 435.13 L 112.6 439.45 C 113.38 439.31 114.08 439.24 114.7 439.24 C 116.24 439.24 117.44 439.64 118.3 440.45 M 134.29 456.05 C 128.9 457.02 124.17 459.22 121 461.01 C 117.83 459.22 113.1 457.02 107.71 456.05 C 106.19 455.78 98.62 454.2 98.62 449.83 C 98.62 447.8 99.34 446.45 100.74 444.05 C 102.4 441.18 104.48 437.61 104.48 432.46 C 104.48 428.78 103.51 425.25 101.61 421.96 C 101.83 421.69 102.06 421.41 102.29 421.13 C 105.11 422.54 108.04 423.25 111.03 423.25 C 114.67 423.25 118.03 422.29 121 420.4 C 123.97 422.29 127.32 423.25 130.97 423.25 C 133.95 423.25 136.89 422.54 139.71 421.13 C 139.94 421.41 140.17 421.69 140.39 421.96 C 138.49 425.25 137.52 428.78 137.52 432.46 C 137.52 437.61 139.6 441.18 141.26 444.06 C 142.65 446.45 143.38 447.8 143.38 449.83 C 143.38 454.2 135.81 455.78 134.29 456.05 M 139.75 432.46 C 139.75 428.95 140.74 425.58 142.69 422.46 C 142.94 422.05 142.91 421.53 142.61 421.16 C 142.04 420.47 141.45 419.74 140.86 419.02 C 140.53 418.6 139.94 418.48 139.46 418.74 C 136.72 420.26 133.87 421.02 130.97 421.02 C 127.48 421.02 124.42 420.09 121.63 418.15 C 121.25 417.89 120.75 417.89 120.37 418.15 C 117.58 420.09 114.52 421.02 111.03 421.02 C 108.13 421.02 105.27 420.26 102.54 418.74 C 102.06 418.48 101.47 418.6 101.13 419.02 C 100.55 419.74 99.96 420.47 99.39 421.16 C 99.09 421.53 99.06 422.05 99.31 422.46 C 101.26 425.58 102.25 428.95 102.25 432.46 C 102.25 437.01 100.35 440.29 98.81 442.94 C 97.31 445.52 96.39 447.24 96.39 449.83 C 96.39 455.82 104.75 457.78 107.31 458.24 C 112.72 459.21 117.43 461.5 120.44 463.25 C 120.61 463.36 120.81 463.41 121 463.41 C 121.19 463.41 121.39 463.36 121.56 463.25 C 124.57 461.5 129.28 459.21 134.69 458.24 C 137.25 457.78 145.6 455.82 145.6 449.83 C 145.6 447.24 144.69 445.52 143.19 442.94 C 141.65 440.29 139.75 437.01 139.75 432.46 M 135.45 462.48 C 128.63 463.71 122.92 467.37 121 468.71 C 119.08 467.37 113.37 463.71 106.55 462.48 C 93.13 460.07 92.09 452.18 92.09 449.83 C 92.09 445.94 93.62 443.32 95.09 440.78 C 96.5 438.36 97.95 435.85 97.95 432.46 C 97.95 427.1 94.86 423.31 93.33 421.77 C 94.93 419.82 98.99 414.88 100.99 412.3 C 104.02 415.16 107.54 416.72 111.03 416.72 C 114.89 416.72 118.09 415.15 121 411.79 C 123.91 415.15 127.1 416.72 130.97 416.72 C 134.45 416.72 137.98 415.16 141.01 412.3 C 143.01 414.88 147.06 419.82 148.67 421.77 C 147.14 423.31 144.05 427.1 144.05 432.46 C 144.05 435.85 145.5 438.36 146.91 440.78 C 148.38 443.32 149.91 445.94 149.91 449.83 C 149.91 452.18 148.86 460.07 135.45 462.48 M 148.83 439.66 C 147.46 437.29 146.27 435.25 146.27 432.46 C 146.27 426.58 150.85 422.78 150.89 422.74 C 151.12 422.55 151.27 422.28 151.3 421.99 C 151.33 421.69 151.24 421.4 151.05 421.17 C 150.98 421.08 143.69 412.24 142.02 409.95 C 141.82 409.69 141.52 409.52 141.19 409.5 C 140.86 409.47 140.54 409.61 140.31 409.85 C 137.51 412.84 134.19 414.5 130.97 414.5 C 127.41 414.5 124.61 412.91 121.88 409.35 C 121.46 408.8 120.54 408.8 120.12 409.35 C 117.39 412.91 114.59 414.5 111.03 414.5 C 107.81 414.5 104.49 412.84 101.69 409.85 C 101.46 409.61 101.14 409.47 100.81 409.5 C 100.48 409.52 100.17 409.69 99.98 409.95 C 98.31 412.24 91.02 421.08 90.95 421.17 C 90.76 421.4 90.67 421.69 90.7 421.99 C 90.73 422.28 90.87 422.55 91.1 422.74 C 91.15 422.78 95.73 426.58 95.73 432.46 C 95.73 435.25 94.54 437.29 93.17 439.66 C 91.62 442.33 89.87 445.35 89.87 449.83 C 89.87 457.29 95.96 462.84 106.16 464.67 C 113.84 466.05 120.26 470.92 120.32 470.97 C 120.52 471.12 120.76 471.2 121 471.2 C 121.24 471.2 121.48 471.12 121.68 470.97 C 121.74 470.92 128.14 466.05 135.84 464.67 C 146.04 462.84 152.13 457.29 152.13 449.83 C 152.13 445.35 150.38 442.33 148.83 439.66" fill="#ffffff" stroke="none" pointer-events="all" style="fill: light-dark(rgb(255, 255, 255), rgb(18, 18, 18));"/></g><g><g fill="#232F3E" font-family="Helvetica" text-anchor="middle" font-size="18px" style="fill: light-dark(rgb(35, 47, 62), rgb(189, 199, 212));"><text x="121" y="503">Route 53</text></g></g></g><g data-cell-id="H2fNjRapKjcZLar6XIbd-13"><g><path d="M 441 240 L 519 240 L 519 318 L 441 318 Z" fill="#8c4fff" stroke="none" pointer-events="all" style="fill: light-dark(rgb(140, 79, 255), rgb(177, 125, 255));"/><path d="M 496.85 292.51 C 496.85 290.67 495.35 289.17 493.51 289.17 C 491.66 289.17 490.16 290.67 490.16 292.51 C 490.16 294.35 491.66 295.85 493.51 295.85 C 495.35 295.85 496.85 294.35 496.85 292.51 Z M 499.08 292.51 C 499.08 295.58 496.58 298.08 493.51 298.08 C 490.44 298.08 487.94 295.58 487.94 292.51 C 487.94 289.44 490.44 286.94 493.51 286.94 C 496.58 286.94 499.08 289.44 499.08 292.51 Z M 469.29 276.43 C 469.29 274.59 467.79 273.09 465.95 273.09 C 464.11 273.09 462.61 274.59 462.61 276.43 C 462.61 278.27 464.11 279.77 465.95 279.77 C 467.79 279.77 469.29 278.27 469.29 276.43 Z M 471.52 276.43 C 471.52 279.5 469.02 282 465.95 282 C 462.88 282 460.38 279.5 460.38 276.43 C 460.38 273.36 462.88 270.86 465.95 270.86 C 469.02 270.86 471.52 273.36 471.52 276.43 Z M 479.7 258.95 C 479.7 260.79 481.2 262.29 483.04 262.29 C 484.89 262.29 486.38 260.79 486.38 258.95 C 486.38 257.11 484.89 255.61 483.04 255.61 C 481.2 255.61 479.7 257.11 479.7 258.95 Z M 477.47 258.95 C 477.47 255.88 479.97 253.38 483.04 253.38 C 486.11 253.38 488.61 255.88 488.61 258.95 C 488.61 262.02 486.11 264.52 483.04 264.52 C 479.97 264.52 477.47 262.02 477.47 258.95 Z M 508.97 279 C 508.97 268.67 503.43 259.11 494.5 253.94 C 492.9 254.26 491.35 254.7 489.42 255.4 L 488.66 253.31 C 489.67 252.94 490.57 252.65 491.44 252.4 C 487.85 250.85 483.95 250.03 480 250.03 C 478.12 250.03 476.27 250.22 474.46 250.58 C 475.77 251.34 476.93 252.11 478.06 252.96 L 476.71 254.74 C 475.12 253.53 473.47 252.51 471.31 251.38 C 460.36 254.82 452.48 264.47 451.23 275.8 C 453.53 275.34 455.73 275.08 458.18 275.02 L 458.23 277.25 C 455.67 277.31 453.47 277.58 451.06 278.11 C 451.05 278.41 451.03 278.71 451.03 279 C 451.03 288.65 455.8 297.54 463.65 302.9 C 462.25 298.74 461.56 294.81 461.56 290.97 C 461.56 288.79 461.94 286.99 462.33 285.09 C 462.43 284.65 462.52 284.2 462.61 283.73 L 464.8 284.16 C 464.7 284.64 464.61 285.1 464.51 285.54 C 464.12 287.41 463.79 289.02 463.79 290.97 C 463.79 295.33 464.74 299.83 466.69 304.72 C 470.83 306.87 475.31 307.97 480 307.97 C 483.07 307.97 486.07 307.48 488.93 306.54 C 490.05 304.32 490.88 302.24 491.58 299.84 L 493.72 300.46 C 493.21 302.21 492.63 303.8 491.93 305.38 C 493.73 304.57 495.43 303.57 497.03 302.41 C 496.65 301.46 496.23 300.53 495.78 299.61 L 497.77 298.62 C 498.16 299.39 498.51 300.18 498.85 300.98 C 505.3 295.46 508.97 287.54 508.97 279 Z M 511.2 279 C 511.2 288.72 506.78 297.72 499.08 303.68 C 497.17 305.16 495.1 306.39 492.91 307.38 C 491.99 307.8 491.04 308.19 490.07 308.52 C 486.86 309.64 483.47 310.2 480 310.2 C 474.87 310.2 469.78 308.92 465.28 306.51 C 455.11 301.07 448.8 290.53 448.8 279 C 448.8 278.24 448.82 277.65 448.87 277.12 C 449.62 264.1 458.56 252.83 471.09 249.1 C 473.94 248.24 476.94 247.8 480 247.8 C 485.36 247.8 490.63 249.18 495.25 251.79 C 505.09 257.3 511.2 267.73 511.2 279 Z M 477.01 262.8 L 475.54 261.12 C 473.04 263.3 471.1 265.62 468.83 269.11 L 470.7 270.33 C 472.85 267.01 474.68 264.84 477.01 262.8 Z M 473.62 277.25 L 472.9 279.35 C 478.01 281.11 482.48 283.92 486.95 288.18 L 488.49 286.56 C 483.78 282.07 479.05 279.11 473.62 277.25 Z M 488.52 264.14 C 492.7 270.52 495.06 277.52 495.52 284.95 L 493.29 285.09 C 492.85 278.05 490.62 271.41 486.66 265.37 Z" fill="#ffffff" stroke="none" pointer-events="all" style="fill: light-dark(rgb(255, 255, 255), rgb(18, 18, 18));"/></g><g><g fill="#232F3E" font-family="Helvetica" font-size="18px" style="fill: light-dark(rgb(35, 47, 62), rgb(189, 199, 212));"><text x="521" y="235">CloudFront</text></g></g></g><g data-cell-id="H2fNjRapKjcZLar6XIbd-15"><g><path d="M 561 560 L 639 560 L 639 638 L 561 638 Z" fill="#e7157b" stroke="none" pointer-events="all" style="fill: light-dark(rgb(231, 21, 123), rgb(255, 129, 217));"/><path d="M 573.34 596.73 C 574.59 596.73 575.61 597.75 575.61 599 C 575.61 600.25 574.59 601.27 573.34 601.27 C 572.09 601.27 571.07 600.25 571.07 599 C 571.07 597.75 572.09 596.73 573.34 596.73 Z M 600.57 626.23 C 587.31 626.23 575.94 616.55 573.56 603.52 C 575.57 603.42 577.23 602.02 577.71 600.13 L 584.68 600.13 L 584.68 597.87 L 577.71 597.87 C 577.23 595.98 575.57 594.58 573.56 594.48 C 575.93 581.65 587.53 571.77 600.57 571.77 C 605.46 571.77 610.59 573.61 615.8 577.24 L 617.1 575.38 C 611.5 571.48 605.93 569.5 600.57 569.5 C 586.12 569.5 573.28 580.69 571.14 595.05 C 569.75 595.83 568.8 597.3 568.8 599 C 568.8 600.7 569.75 602.17 571.14 602.95 C 573.3 617.54 585.88 628.5 600.57 628.5 C 606.7 628.5 612.98 626.41 618.25 622.61 L 616.92 620.77 C 612.04 624.29 606.23 626.23 600.57 626.23 Z M 588.2 594.96 C 590.31 595.48 592.94 595.6 594.89 595.6 C 596.76 595.6 599.23 595.49 601.28 595.04 L 596.15 605.3 C 596.07 605.46 596.03 605.63 596.03 605.81 L 596.03 610.86 C 595.12 611.44 593.57 612.4 592.63 612.6 L 592.63 605.81 C 592.63 605.66 592.6 605.51 592.54 605.37 Z M 594.89 591.06 C 599.46 591.06 601.9 591.74 602.66 592.19 C 601.9 592.64 599.46 593.33 594.89 593.33 C 590.33 593.33 587.89 592.64 587.13 592.19 C 587.89 591.74 590.33 591.06 594.89 591.06 Z M 591.49 614.88 L 592.63 614.88 C 592.67 614.88 592.72 614.88 592.77 614.87 C 594.16 614.69 595.93 613.62 597.47 612.63 L 597.77 612.44 C 598.1 612.23 598.3 611.87 598.3 611.48 L 598.3 606.08 L 604.61 593.46 C 604.92 593.1 605.11 592.69 605.11 592.19 C 605.11 589.23 598.71 588.79 594.89 588.79 C 591.08 588.79 584.68 589.23 584.68 592.19 C 584.68 592.61 584.82 592.97 585.05 593.29 L 590.36 606.03 L 590.36 613.75 C 590.36 614.38 590.86 614.88 591.49 614.88 Z M 624.39 613.75 C 625.64 613.75 626.66 614.77 626.66 616.02 C 626.66 617.27 625.64 618.29 624.39 618.29 C 623.14 618.29 622.12 617.27 622.12 616.02 C 622.12 614.77 623.14 613.75 624.39 613.75 Z M 624.39 579.71 C 625.64 579.71 626.66 580.73 626.66 581.98 C 626.66 583.23 625.64 584.25 624.39 584.25 C 623.14 584.25 622.12 583.23 622.12 581.98 C 622.12 580.73 623.14 579.71 624.39 579.71 Z M 626.66 596.73 C 627.91 596.73 628.93 597.75 628.93 599 C 628.93 600.25 627.91 601.27 626.66 601.27 C 625.41 601.27 624.39 600.25 624.39 599 C 624.39 597.75 625.41 596.73 626.66 596.73 Z M 615.32 600.13 L 622.29 600.13 C 622.79 602.09 624.55 603.54 626.66 603.54 C 629.16 603.54 631.2 601.5 631.2 599 C 631.2 596.5 629.16 594.46 626.66 594.46 C 624.55 594.46 622.79 595.91 622.29 597.87 L 615.32 597.87 L 615.32 583.12 L 620.02 583.12 C 620.52 585.07 622.28 586.52 624.39 586.52 C 626.9 586.52 628.93 584.48 628.93 581.98 C 628.93 579.48 626.9 577.44 624.39 577.44 C 622.28 577.44 620.52 578.9 620.02 580.85 L 614.18 580.85 C 613.55 580.85 613.05 581.36 613.05 581.98 L 613.05 597.87 L 605.11 597.87 L 605.11 600.13 L 613.05 600.13 L 613.05 616.02 C 613.05 616.64 613.55 617.15 614.18 617.15 L 620.02 617.15 C 620.52 619.1 622.28 620.56 624.39 620.56 C 626.9 620.56 628.93 618.52 628.93 616.02 C 628.93 613.52 626.9 611.48 624.39 611.48 C 622.28 611.48 620.52 612.93 620.02 614.88 L 615.32 614.88 Z" fill="#ffffff" stroke="none" pointer-events="all" style="fill: light-dark(rgb(255, 255, 255), rgb(18, 18, 18));"/></g><g><g fill="#232F3E" font-family="Helvetica" text-anchor="middle" font-size="17px" style="fill: light-dark(rgb(35, 47, 62), rgb(189, 199, 212));"><text x="600" y="661">SNS</text></g></g></g><g data-cell-id="H2fNjRapKjcZLar6XIbd-19"><g><rect x="801" y="414.5" width="78" height="49" fill="none" stroke="none" pointer-events="all"/><path d="M 853.26 438.88 L 875.45 420.61 L 875.45 457.37 Z M 829.52 441.18 L 840 449.8 L 850.48 441.18 L 872.54 459.56 L 807.46 459.56 Z M 826.73 438.88 L 804.55 457.37 L 804.55 420.61 Z M 840 445.21 L 807.49 418.44 L 872.51 418.44 Z M 801 416.04 L 801 461.96 C 801 462.6 801.51 463.11 802.15 463.11 L 877.85 463.11 C 878.49 463.11 879 462.6 879 461.96 L 879 416.04 C 879 415.4 878.49 414.89 877.85 414.89 L 802.15 414.89 C 801.51 414.89 801 415.4 801 416.04 Z" fill="#232f3d" stroke="none" pointer-events="all" style="fill: light-dark(rgb(35, 47, 61), rgb(190, 200, 212));"/></g><g><g fill="#232F3E" font-family="Helvetica" text-anchor="middle" font-size="18px" style="fill: light-dark(rgb(35, 47, 62), rgb(189, 199, 212));"><text x="840" y="487.5">Email</text></g></g></g><g data-cell-id="HFJM1gJeS1aWMsCjSJut-4"><g><rect x="450" y="579" width="60" height="40" fill="#ffffff" stroke="none" pointer-events="all" style="fill: light-dark(rgb(255, 255, 255), rgb(18, 18, 18));"/></g></g><g data-cell-id="HFJM1gJeS1aWMsCjSJut-5"><g><rect x="460" y="580" width="40" height="40" fill="none" stroke="none" pointer-events="all"/><path d="M 463.29 616.82 L 471.25 616.82 C 471.75 616.82 472.15 616.41 472.15 615.91 L 472.15 598.41 C 472.15 597.91 471.75 597.5 471.25 597.5 L 463.29 597.5 C 462.79 597.5 462.39 597.91 462.39 598.41 L 462.39 615.91 C 462.39 616.41 462.79 616.82 463.29 616.82 Z M 464.2 615.01 L 464.2 599.31 L 470.34 599.31 L 470.34 615.01 Z M 476.02 616.82 L 483.98 616.82 C 484.48 616.82 484.88 616.41 484.88 615.91 L 484.88 602.39 C 484.88 601.89 484.48 601.48 483.98 601.48 L 476.02 601.48 C 475.52 601.48 475.12 601.89 475.12 602.39 L 475.12 615.91 C 475.12 616.41 475.52 616.82 476.02 616.82 Z M 476.93 615.01 L 476.93 603.29 L 483.07 603.29 L 483.07 615.01 Z M 460.11 620 L 499.89 620 L 499.89 618.19 L 460.11 618.19 Z M 492.73 592.95 C 496.3 592.95 499.2 590.04 499.2 586.47 C 499.2 582.9 496.3 580 492.73 580 C 489.16 580 486.25 582.9 486.25 586.47 C 486.25 590.04 489.16 592.95 492.73 592.95 Z M 492.73 581.81 C 495.3 581.81 497.39 583.9 497.39 586.47 C 497.39 589.05 495.3 591.14 492.73 591.14 C 490.16 591.14 488.07 589.05 488.07 586.47 C 488.07 583.9 490.16 581.81 492.73 581.81 Z M 496.32 594 C 494.06 595.07 491.4 595.07 489.14 594 C 488.86 593.86 488.53 593.88 488.27 594.05 C 488 594.21 487.85 594.5 487.85 594.81 L 487.85 615.91 C 487.85 616.41 488.25 616.82 488.75 616.82 L 496.71 616.82 C 497.21 616.82 497.61 616.41 497.61 615.91 L 497.61 594.81 C 497.61 594.5 497.45 594.21 497.19 594.05 C 496.93 593.88 496.6 593.86 496.32 594 Z M 495.8 615.01 L 489.66 615.01 L 489.66 596.14 C 491.63 596.77 493.82 596.77 495.8 596.14 Z" fill="#e7157b" stroke="none" pointer-events="all" style="fill: light-dark(rgb(231, 21, 123), rgb(255, 129, 217));"/></g><g><g fill="#232F3E" font-family="Helvetica" text-anchor="middle" font-size="18px" style="fill: light-dark(rgb(35, 47, 62), rgb(189, 199, 212));"><text x="480" y="644">Alarm</text></g></g></g><g data-cell-id="HFJM1gJeS1aWMsCjSJut-7"><g><path d="M 121 389.88 L 121 318.42" fill="none" stroke="#545b64" stroke-miterlimit="10" pointer-events="stroke" style="stroke: light-dark(rgb(84, 91, 100), rgb(154, 160, 168));"/><path d="M 121 399.88 L 116 389.88 L 126 389.88 Z" fill="#545b64" stroke="#545b64" stroke-miterlimit="10" pointer-events="all" style="fill: light-dark(rgb(84, 91, 100), rgb(154, 160, 168)); stroke: light-dark(rgb(84, 91, 100), rgb(154, 160, 168));"/><path d="M 121 308.42 L 126 318.42 L 116 318.42 Z" fill="#545b64" stroke="#545b64" stroke-miterlimit="10" pointer-events="all" style="fill: light-dark(rgb(84, 91, 100), rgb(154, 160, 168)); stroke: light-dark(rgb(84, 91, 100), rgb(154, 160, 168));"/></g></g><g data-cell-id="HFJM1gJeS1aWMsCjSJut-8"><g><path d="M 172.12 278.2 L 301 278.2 L 429.88 278.94" fill="none" stroke="#545b64" stroke-miterlimit="10" pointer-events="stroke" style="stroke: light-dark(rgb(84, 91, 100), rgb(154, 160, 168));"/><path d="M 162.12 278.2 L 172.12 273.2 L 172.12 283.2 Z" fill="#545b64" stroke="#545b64" stroke-miterlimit="10" pointer-events="all" style="fill: light-dark(rgb(84, 91, 100), rgb(154, 160, 168)); stroke: light-dark(rgb(84, 91, 100), rgb(154, 160, 168));"/><path d="M 439.88 278.99 L 429.85 283.94 L 429.91 273.94 Z" fill="#545b64" stroke="#545b64" stroke-miterlimit="10" pointer-events="all" style="fill: light-dark(rgb(84, 91, 100), rgb(154, 160, 168)); stroke: light-dark(rgb(84, 91, 100), rgb(154, 160, 168));"/></g></g><g data-cell-id="HFJM1gJeS1aWMsCjSJut-9"><g><path d="M 530.12 279 L 670.88 279" fill="none" stroke="#545b64" stroke-miterlimit="10" pointer-events="stroke" style="stroke: light-dark(rgb(84, 91, 100), rgb(154, 160, 168));"/><path d="M 520.12 279 L 530.12 274 L 530.12 284 Z" fill="#545b64" stroke="#545b64" stroke-miterlimit="10" pointer-events="all" style="fill: light-dark(rgb(84, 91, 100), rgb(154, 160, 168)); stroke: light-dark(rgb(84, 91, 100), rgb(154, 160, 168));"/><path d="M 680.88 279 L 670.88 284 L 670.88 274 Z" fill="#545b64" stroke="#545b64" stroke-miterlimit="10" pointer-events="all" style="fill: light-dark(rgb(84, 91, 100), rgb(154, 160, 168)); stroke: light-dark(rgb(84, 91, 100), rgb(154, 160, 168));"/></g></g><g data-cell-id="HFJM1gJeS1aWMsCjSJut-10"><g><path d="M 368.61 392.97 L 451.89 325.03" fill="none" stroke="#545b64" stroke-miterlimit="10" pointer-events="stroke" style="stroke: light-dark(rgb(84, 91, 100), rgb(154, 160, 168));"/><path d="M 360.87 399.29 L 365.45 389.1 L 371.78 396.85 Z" fill="#545b64" stroke="#545b64" stroke-miterlimit="10" pointer-events="all" style="fill: light-dark(rgb(84, 91, 100), rgb(154, 160, 168)); stroke: light-dark(rgb(84, 91, 100), rgb(154, 160, 168));"/><path d="M 459.63 318.71 L 455.05 328.9 L 448.72 321.15 Z" fill="#545b64" stroke="#545b64" stroke-miterlimit="10" pointer-events="all" style="fill: light-dark(rgb(84, 91, 100), rgb(154, 160, 168)); stroke: light-dark(rgb(84, 91, 100), rgb(154, 160, 168));"/></g></g><g data-cell-id="HFJM1gJeS1aWMsCjSJut-12"><g><path d="M 360 478 L 360 548.88" fill="none" stroke="#545b64" stroke-miterlimit="10" pointer-events="stroke" style="stroke: light-dark(rgb(84, 91, 100), rgb(154, 160, 168));"/><path d="M 360 558.88 L 355 548.88 L 365 548.88 Z" fill="#545b64" stroke="#545b64" stroke-miterlimit="10" pointer-events="all" style="fill: light-dark(rgb(84, 91, 100), rgb(154, 160, 168)); stroke: light-dark(rgb(84, 91, 100), rgb(154, 160, 168));"/></g></g><g data-cell-id="HFJM1gJeS1aWMsCjSJut-13"><g><path d="M 600 560 L 599.57 490.12" fill="none" stroke="#545b64" stroke-miterlimit="10" pointer-events="stroke" style="stroke: light-dark(rgb(84, 91, 100), rgb(154, 160, 168));"/><path d="M 599.51 480.12 L 604.57 490.09 L 594.57 490.15 Z" fill="#545b64" stroke="#545b64" stroke-miterlimit="10" pointer-events="all" style="fill: light-dark(rgb(84, 91, 100), rgb(154, 160, 168)); stroke: light-dark(rgb(84, 91, 100), rgb(154, 160, 168));"/></g></g><g data-cell-id="HFJM1gJeS1aWMsCjSJut-15"><g><path d="M 639 560 L 791.47 468.21" fill="none" stroke="#545b64" stroke-miterlimit="10" pointer-events="stroke" style="stroke: light-dark(rgb(84, 91, 100), rgb(154, 160, 168));"/><path d="M 800.04 463.05 L 794.05 472.5 L 788.9 463.93 Z" fill="#545b64" stroke="#545b64" stroke-miterlimit="10" pointer-events="all" style="fill: light-dark(rgb(84, 91, 100), rgb(154, 160, 168)); stroke: light-dark(rgb(84, 91, 100), rgb(154, 160, 168));"/></g></g><g data-cell-id="HFJM1gJeS1aWMsCjSJut-16"><g><path d="M 480 228.88 L 480 169.12" fill="none" stroke="#545b64" stroke-miterlimit="10" pointer-events="stroke" style="stroke: light-dark(rgb(84, 91, 100), rgb(154, 160, 168));"/><path d="M 480 238.88 L 475 228.88 L 485 228.88 Z" fill="#545b64" stroke="#545b64" stroke-miterlimit="10" pointer-events="all" style="fill: light-dark(rgb(84, 91, 100), rgb(154, 160, 168)); stroke: light-dark(rgb(84, 91, 100), rgb(154, 160, 168));"/><path d="M 480 159.12 L 485 169.12 L 475 169.12 Z" fill="#545b64" stroke="#545b64" stroke-miterlimit="10" pointer-events="all" style="fill: light-dark(rgb(84, 91, 100), rgb(154, 160, 168)); stroke: light-dark(rgb(84, 91, 100), rgb(154, 160, 168));"/></g></g><g data-cell-id="HFJM1gJeS1aWMsCjSJut-18"><g><rect x="0" y="670" width="160" height="40" fill="none" stroke="#000000" pointer-events="all" style="stroke: light-dark(rgb(0, 0, 0), rgb(255, 255, 255));"/></g><g><g fill="#000000" font-family="Helvetica" font-size="12px" style="fill: light-dark(rgb(0, 0, 0), rgb(255, 255, 255));"><text x="6" y="688">Author: M.Glavitsch</text><text x="6" y="702">Last update: Oct 14, 2025</text></g></g></g><g data-cell-id="HFJM1gJeS1aWMsCjSJut-17"><g><rect x="771" y="94" width="200" height="50" fill="none" stroke="none" pointer-events="all"/></g><g><g fill="#000000" font-family="Helvetica" font-size="16px" style="fill: light-dark(rgb(0, 0, 0), rgb(255, 255, 255));"><text x="773" y="116.5">IAM Roles</text><text x="773" y="135.5">Permission Policies</text></g></g></g><g data-cell-id="HFJM1gJeS1aWMsCjSJut-14"><g><path d="M 599.5 400 L 508.1 325.05" fill="none" stroke="#545b64" stroke-miterlimit="10" pointer-events="stroke" style="stroke: light-dark(rgb(84, 91, 100), rgb(154, 160, 168));"/><path d="M 500.36 318.71 L 511.27 321.18 L 504.93 328.92 Z" fill="#545b64" stroke="#545b64" stroke-miterlimit="10" pointer-events="all" style="fill: light-dark(rgb(84, 91, 100), rgb(154, 160, 168)); stroke: light-dark(rgb(84, 91, 100), rgb(154, 160, 168));"/></g><g><g fill="#000000" font-family="Helvetica" text-anchor="middle" font-size="16px" style="fill: light-dark(rgb(0, 0, 0), rgb(255, 255, 255));"><rect fill="#FFFFFF" stroke="none" x="511" y="341" width="79" height="39" stroke-width="0" style="fill: light-dark(rgb(255, 255, 255), rgb(18, 18, 18));"/><text x="550.01" y="356.92">controls</text><text x="550.01" y="375.92">distribution</text></g></g></g><g data-cell-id="H2fNjRapKjcZLar6XIbd-5"><g><path d="M 441 80 L 519 80 L 519 158 L 441 158 Z" fill="#dd344c" stroke="none" pointer-events="all" style="fill: light-dark(rgb(221, 52, 76), rgb(255, 127, 147));"/><path d="M 475.2 118.2 C 475.48 118.47 475.6 118.86 475.52 119.24 L 474.38 124.48 L 479.42 121.39 C 479.77 121.17 480.23 121.17 480.58 121.39 L 485.59 124.48 L 484.48 119.22 C 484.4 118.85 484.52 118.46 484.79 118.2 L 489.29 113.79 L 483.42 112.94 C 483.06 112.89 482.74 112.66 482.58 112.33 L 479.99 107.02 L 477.34 112.34 C 477.18 112.67 476.86 112.89 476.5 112.95 L 470.65 113.8 Z M 471.64 126.56 L 473.21 119.37 L 467.47 113.83 C 467.16 113.53 467.05 113.09 467.18 112.69 C 467.31 112.28 467.66 111.99 468.08 111.93 L 475.6 110.83 L 479 104.01 C 479.19 103.63 479.55 103.37 480 103.39 C 480.43 103.39 480.81 103.64 481 104.02 L 484.33 110.82 L 491.84 111.91 C 492.26 111.97 492.61 112.26 492.74 112.66 C 492.87 113.07 492.76 113.51 492.46 113.81 L 486.79 119.36 L 488.31 126.56 C 488.4 127 488.22 127.44 487.86 127.7 C 487.49 127.96 487.01 127.97 486.63 127.74 L 480 123.65 L 473.31 127.75 C 473.13 127.86 472.93 127.91 472.73 127.91 C 472.5 127.91 472.28 127.85 472.09 127.71 C 471.72 127.45 471.55 127 471.64 126.56 Z M 451.03 97.85 L 508.97 97.85 L 508.97 92.26 L 451.03 92.26 Z M 511.2 91.14 L 511.2 146.86 C 511.2 147.47 510.7 147.97 510.09 147.97 L 503.4 147.97 L 503.4 145.74 L 508.97 145.74 L 508.97 100.08 L 451.03 100.08 L 451.03 145.74 L 493.37 145.74 L 493.37 147.97 L 449.91 147.97 C 449.3 147.97 448.8 147.47 448.8 146.86 L 448.8 91.14 C 448.8 90.53 449.3 90.03 449.91 90.03 L 510.09 90.03 C 510.7 90.03 511.2 90.53 511.2 91.14 Z M 462.17 140.17 L 468.86 140.17 L 468.86 137.94 L 462.17 137.94 Z M 473.31 140.17 L 488.91 140.17 L 488.91 137.94 L 473.31 137.94 Z M 462.17 134.6 L 468.86 134.6 L 468.86 132.37 L 462.17 132.37 Z M 473.31 134.6 L 497.83 134.6 L 497.83 132.37 L 473.31 132.37 Z" fill="#ffffff" stroke="none" pointer-events="all" style="fill: light-dark(rgb(255, 255, 255), rgb(18, 18, 18));"/></g><g><g fill="#232F3E" font-family="Helvetica" text-anchor="middle" font-size="18px" style="fill: light-dark(rgb(35, 47, 62), rgb(189, 199, 212));"><text x="480" y="53">Certificate</text><text x="480" y="75">Manager</text></g></g></g></g></g></g></g></svg>